<svg xmlns="http://www.w3.org/2000/svg" xmlns:xlink="http://www.w3.org/1999/xlink" viewBox="0 0 1920 1080" preserveAspectRatio="xMaxYMid meet"><defs><linearGradient id="a" x1="1599.25" y1="-1043.2" x2="1832.51" y2="-1043.2" gradientTransform="matrix(1 0 0 -1 -381.36 -397.26)" gradientUnits="userSpaceOnUse"><stop offset=".06" stop-color="#cf1e23"/><stop offset=".27" stop-color="#cf2025"/><stop offset=".38" stop-color="#d1282c"/><stop offset=".46" stop-color="#d43539"/><stop offset=".47" stop-color="#d4363a"/><stop offset=".48" stop-color="#d53a3e"/><stop offset=".5" stop-color="#d8484b"/><stop offset=".51" stop-color="#dc5d61"/><stop offset=".53" stop-color="#e37c7f"/><stop offset=".53" stop-color="#e58588"/><stop offset=".53" stop-color="#e58386"/><stop offset=".56" stop-color="#dd6265"/><stop offset=".58" stop-color="#d84a4d"/><stop offset=".61" stop-color="#d53b3f"/><stop offset=".63" stop-color="#d4363a"/><stop offset=".65" stop-color="#d33236"/><stop offset=".74" stop-color="#d02328"/><stop offset=".81" stop-color="#cf1e23"/><stop offset="1" stop-color="#cf1e23"/></linearGradient><linearGradient id="q" x1="1599.25" y1="-1014.15" x2="1832.51" y2="-1014.15" xlink:href="#a"/><linearGradient id="b" x1="1661.69" y1="-1029.18" x2="1767.43" y2="-970.69" gradientTransform="matrix(1 0 0 -1 -381.36 -397.26)" gradientUnits="userSpaceOnUse"><stop offset="0" stop-color="#d4363a"/><stop offset=".12" stop-color="#d32f34"/><stop offset=".49" stop-color="#cf1e23"/><stop offset="1" stop-color="#cd151a"/></linearGradient><linearGradient id="r" x1="1848.89" y1="-1110.24" x2="1491.96" y2="-616.33" xlink:href="#b"/><linearGradient id="s" x1="1540.26" y1="-665.5" x2="1843.94" y2="-1122.16" gradientTransform="matrix(1 0 0 -1 -381.36 -397.26)" gradientUnits="userSpaceOnUse"><stop offset="0" stop-color="#1d1d1d"/><stop offset=".43" stop-color="#8c8c8c"/><stop offset=".9" stop-color="#1d1d1d"/></linearGradient><linearGradient id="u" x1="1924.75" y1="-1120.96" x2="1643.8" y2="-672.02" xlink:href="#a"/><linearGradient id="e" x1="-658.6" y1="-1249.25" x2="-673.92" y2="-1222.71" gradientTransform="rotate(180 232.075 -198.63)" gradientUnits="userSpaceOnUse"><stop offset="0" stop-color="#1e1f21"/><stop offset=".27" stop-color="#1d1d1d"/><stop offset=".61" stop-color="#fff"/></linearGradient><linearGradient id="f" x1="-684.72" y1="-1237.93" x2="-660.05" y2="-1237.93" gradientTransform="rotate(180 232.075 -198.63)" gradientUnits="userSpaceOnUse"><stop offset="0" stop-color="#fff"/><stop offset="1" stop-color="#1e1f21"/></linearGradient><linearGradient id="g" x1="-678.14" y1="-1240.26" x2="-666.64" y2="-1240.26" gradientTransform="rotate(180 232.075 -198.63)" gradientUnits="userSpaceOnUse"><stop offset="0" stop-color="#fff"/><stop offset=".37" stop-color="#d0d0d0"/><stop offset="1" stop-color="#777"/></linearGradient><linearGradient id="C" x1="-537.07" y1="-1180.23" x2="-552.42" y2="-1153.69" xlink:href="#e"/><linearGradient id="D" x1="-563.25" y1="-1168.94" x2="-538.55" y2="-1168.94" xlink:href="#f"/><linearGradient id="E" x1="-556.66" y1="-1171.25" x2="-545.16" y2="-1171.25" xlink:href="#g"/><linearGradient id="h" x1="985.56" y1="-904.84" x2="989.79" y2="-904.84" gradientTransform="matrix(1 0 0 -1 0 -308.59)" gradientUnits="userSpaceOnUse"><stop offset=".03" stop-color="#a9a9a9"/><stop offset=".17" stop-color="#cfcfcf"/><stop offset=".33" stop-color="#fff"/><stop offset=".34" stop-color="#fdfdfd"/><stop offset=".45" stop-color="#dedede"/><stop offset=".57" stop-color="#c7c7c7"/><stop offset=".69" stop-color="#b6b6b6"/><stop offset=".83" stop-color="#acacac"/><stop offset="1" stop-color="#a9a9a9"/></linearGradient><linearGradient id="F" x1="1001.12" y1="-895.1" x2="1005.33" y2="-895.1" xlink:href="#h"/><linearGradient id="G" x1="1016.66" y1="-885.36" x2="1020.9" y2="-885.36" xlink:href="#h"/><linearGradient id="H" x1="1032.22" y1="-875.63" x2="1036.44" y2="-875.63" xlink:href="#h"/><linearGradient id="I" x1="1047.76" y1="-865.89" x2="1051.98" y2="-865.89" xlink:href="#h"/><linearGradient id="J" x1="1063.3" y1="-856.16" x2="1067.54" y2="-856.16" xlink:href="#h"/><linearGradient id="K" x1="1078.86" y1="-846.43" x2="1083.08" y2="-846.43" xlink:href="#h"/><linearGradient id="L" x1="1094.4" y1="-836.69" x2="1098.64" y2="-836.69" xlink:href="#h"/><linearGradient id="M" x1="1109.97" y1="-826.95" x2="1114.18" y2="-826.95" xlink:href="#h"/><linearGradient id="N" x1="1125.51" y1="-817.21" x2="1129.75" y2="-817.21" xlink:href="#h"/><linearGradient id="O" x1="1141.07" y1="-807.48" x2="1145.29" y2="-807.48" xlink:href="#h"/><linearGradient id="P" x1="1156.61" y1="-797.74" x2="1160.83" y2="-797.74" xlink:href="#h"/><linearGradient id="Q" x1="-664.75" y1="-1083.53" x2="-682.45" y2="-1052.88" xlink:href="#e"/><linearGradient id="R" x1="-691.96" y1="-1071.78" x2="-667.29" y2="-1071.78" xlink:href="#f"/><linearGradient id="S" x1="-685.37" y1="-1071.76" x2="-673.88" y2="-1071.76" xlink:href="#g"/><linearGradient id="j" x1="1118.1" y1="-970.04" x2="1147.31" y2="-970.04" gradientTransform="matrix(1 0 0 -1 0 -308.59)" gradientUnits="userSpaceOnUse"><stop offset=".03" stop-color="#d22f33"/><stop offset="1" stop-color="#da5053"/></linearGradient><linearGradient id="U" x1="-539.39" y1="-1156.4" x2="-557.08" y2="-1125.73" xlink:href="#e"/><linearGradient id="V" x1="-566.59" y1="-1144.6" x2="-541.92" y2="-1144.6" xlink:href="#f"/><linearGradient id="W" x1="-560.01" y1="-1144.62" x2="-548.51" y2="-1144.62" xlink:href="#g"/><linearGradient id="Y" x1="992.73" y1="-1042.91" x2="1021.94" y2="-1042.91" xlink:href="#j"/><linearGradient id="Z" x1="1574.57" y1="-1081.14" x2="1572.66" y2="-1084.44" gradientTransform="matrix(1 0 0 -1 -381.39 -397.26)" xlink:href="#h"/><linearGradient id="aa" x1="1559.29" y1="-1090.16" x2="1557.14" y2="-1093.86" gradientTransform="matrix(1 0 0 -1 -381.41 -397.27)" xlink:href="#h"/><linearGradient id="ab" x1="1544.06" y1="-1099.25" x2="1541.91" y2="-1102.96" gradientTransform="matrix(1 0 0 -1 -381.31 -397.26)" xlink:href="#h"/><linearGradient id="ac" x1="1528.65" y1="-1108.36" x2="1526.5" y2="-1112.06" gradientTransform="matrix(1 0 0 -1 -381.41 -397.26)" xlink:href="#h"/><linearGradient id="ad" x1="1513.39" y1="-1117.44" x2="1511.26" y2="-1121.16" gradientTransform="matrix(1 0 0 -1 -381.31 -397.26)" xlink:href="#h"/><linearGradient id="ae" x1="1497.98" y1="-1126.55" x2="1495.85" y2="-1130.27" gradientTransform="matrix(1 0 0 -1 -381.4 -397.26)" xlink:href="#h"/><linearGradient id="af" x1="1482.66" y1="-1135.63" x2="1480.53" y2="-1139.35" gradientTransform="matrix(1 0 0 -1 -381.4 -397.27)" xlink:href="#h"/><linearGradient id="ag" x1="1467.36" y1="-1144.74" x2="1465.2" y2="-1148.45" gradientTransform="matrix(1 0 0 -1 -381.39 -397.27)" xlink:href="#h"/><linearGradient id="ah" x1="1452.02" y1="-1153.82" x2="1449.87" y2="-1157.54" gradientTransform="matrix(1 0 0 -1 -381.39 -397.26)" xlink:href="#h"/><linearGradient id="ai" x1="-783.3" y1="-1174.3" x2="-798.62" y2="-1147.74" xlink:href="#e"/><linearGradient id="aj" x1="-809.37" y1="-1162.93" x2="-784.7" y2="-1162.93" xlink:href="#f"/><linearGradient id="ak" x1="-802.79" y1="-1165.26" x2="-791.29" y2="-1165.26" xlink:href="#g"/><linearGradient id="al" x1="-782.97" y1="-1152.39" x2="-800.66" y2="-1121.72" xlink:href="#e"/><linearGradient id="am" x1="-810.09" y1="-1140.45" x2="-785.42" y2="-1140.45" xlink:href="#f"/><linearGradient id="an" x1="-803.5" y1="-1140.56" x2="-792.01" y2="-1140.56" xlink:href="#g"/><linearGradient id="ap" x1="1236.23" y1="-1038.85" x2="1265.44" y2="-1038.85" xlink:href="#j"/><linearGradient id="aq" x1="-657.52" y1="-1225.2" x2="-675.21" y2="-1194.53" xlink:href="#e"/><linearGradient id="ar" x1="-684.72" y1="-1213.45" x2="-660.05" y2="-1213.45" xlink:href="#f"/><linearGradient id="as" x1="-678.14" y1="-1213.42" x2="-666.64" y2="-1213.42" xlink:href="#g"/><linearGradient id="au" x1="1110.86" y1="-1111.71" x2="1140.07" y2="-1111.71" xlink:href="#j"/><linearGradient id="av" x1="1573.43" y1="-877.58" x2="1577.67" y2="-879.04" gradientTransform="matrix(1 0 0 -1 -381.37 -397.25)" xlink:href="#h"/><linearGradient id="aw" x1="1586.63" y1="-885.2" x2="1590.98" y2="-886.7" gradientTransform="matrix(1 0 0 -1 -381.33 -397.26)" xlink:href="#h"/><linearGradient id="ax" x1="1599.82" y1="-892.71" x2="1604.17" y2="-894.19" gradientTransform="matrix(1 0 0 -1 -381.38 -397.25)" xlink:href="#h"/><linearGradient id="ay" x1="1612.64" y1="-900.06" x2="1616.99" y2="-901.56" gradientTransform="matrix(1 0 0 -1 -380.69 -398.23)" xlink:href="#h"/><linearGradient id="az" x1="1626.26" y1="-907.83" x2="1630.59" y2="-909.33" gradientTransform="matrix(1 0 0 -1 -381.4 -397.25)" xlink:href="#h"/><linearGradient id="aA" x1="1639.48" y1="-915.47" x2="1643.83" y2="-916.94" gradientTransform="matrix(1 0 0 -1 -381.38 -397.26)" xlink:href="#h"/><linearGradient id="aB" x1="1652.71" y1="-923.07" x2="1657.06" y2="-924.56" gradientTransform="matrix(1 0 0 -1 -381.35 -397.26)" xlink:href="#h"/><linearGradient id="aC" x1="1665.96" y1="-930.67" x2="1670.3" y2="-932.17" gradientTransform="matrix(1 0 0 -1 -381.32 -397.26)" xlink:href="#h"/><linearGradient id="aD" x1="1208.68" y1="-746.04" x2="1267.33" y2="-879.67" gradientTransform="matrix(1 0 0 -1 0 -308.59)" gradientUnits="userSpaceOnUse"><stop offset=".03" stop-color="#d22f33"/><stop offset=".45" stop-color="#da5053"/><stop offset="1" stop-color="#de676a"/></linearGradient><linearGradient id="aE" x1="-827.59" y1="-802.38" x2="-837.2" y2="-785.74" gradientTransform="rotate(180 232.075 -198.63)" gradientUnits="userSpaceOnUse"><stop offset=".11" stop-color="#cf1e23"/><stop offset=".37" stop-color="#d74448"/><stop offset=".64" stop-color="#e06e71"/><stop offset=".93" stop-color="#da5053"/></linearGradient><linearGradient id="k" x1="1091.78" y1="-757.32" x2="1211.36" y2="-818.51" gradientTransform="matrix(1 0 0 -1 0 -308.59)" gradientUnits="userSpaceOnUse"><stop offset=".04" stop-color="#2f2f2f"/><stop offset=".22" stop-color="#3e3e3e"/><stop offset=".58" stop-color="#676767"/><stop offset="1" stop-color="#9e9e9e"/></linearGradient><linearGradient id="aG" x1="1167.59" y1="-827.83" x2="1284.61" y2="-652.99" xlink:href="#k"/><linearGradient id="aH" x1="1348.73" y1="-743.96" x2="1075.1" y2="-858.13" xlink:href="#k"/><linearGradient id="aI" x1="1184.41" y1="-894.69" x2="1223.38" y2="-929.66" xlink:href="#k"/><linearGradient id="aJ" x1="1191.06" y1="-816.48" x2="1307.37" y2="-875.97" xlink:href="#k"/><linearGradient id="l" x1="1057.05" y1="-806.48" x2="1156.01" y2="-857.1" gradientTransform="matrix(1 0 0 -1 0 -308.59)" gradientUnits="userSpaceOnUse"><stop offset=".04" stop-color="#cd151a"/><stop offset=".23" stop-color="#d02429"/><stop offset=".61" stop-color="#d94d51"/><stop offset="1" stop-color="#e37c7f"/></linearGradient><linearGradient id="aK" x1="1131.63" y1="-868.15" x2="1218.07" y2="-739.02" xlink:href="#l"/><linearGradient id="aL" x1="1136.92" y1="-918.96" x2="1177.35" y2="-955.22" xlink:href="#l"/><linearGradient id="aM" x1="1151.33" y1="-860.97" x2="1250.31" y2="-911.59" xlink:href="#l"/><linearGradient id="aN" x1="1274.71" y1="-802.33" x2="1040.35" y2="-900.13" xlink:href="#l"/><linearGradient id="aO" x1="1096.53" y1="-970.74" x2="1100.77" y2="-970.74" xlink:href="#h"/><linearGradient id="aP" x1="1112.88" y1="-961.13" x2="1117.1" y2="-961.13" xlink:href="#h"/><linearGradient id="aQ" x1="1129.2" y1="-951.5" x2="1133.42" y2="-951.5" xlink:href="#h"/><linearGradient id="aR" x1="1145.53" y1="-941.9" x2="1149.74" y2="-941.9" xlink:href="#h"/><linearGradient id="aS" x1="1161.85" y1="-932.27" x2="1166.06" y2="-932.27" xlink:href="#h"/><linearGradient id="aT" x1="1178.17" y1="-922.65" x2="1182.41" y2="-922.65" xlink:href="#h"/><linearGradient id="aU" x1="1194.49" y1="-913.04" x2="1198.73" y2="-913.04" xlink:href="#h"/><linearGradient id="aV" x1="1210.84" y1="-903.41" x2="1215.06" y2="-903.41" xlink:href="#h"/><linearGradient id="aW" x1="1227.14" y1="-893.81" x2="1231.38" y2="-893.81" xlink:href="#h"/><linearGradient id="aX" x1="1243.48" y1="-884.18" x2="1247.7" y2="-884.18" xlink:href="#h"/><linearGradient id="aY" x1="1259.81" y1="-874.55" x2="1264.02" y2="-874.55" xlink:href="#h"/><linearGradient id="aZ" x1="1276.13" y1="-864.95" x2="1280.37" y2="-864.95" xlink:href="#h"/><linearGradient id="ba" x1="1292.5" y1="-839.02" x2="1296.71" y2="-839.02" xlink:href="#h"/><linearGradient id="bb" x1="992.73" y1="-918.13" x2="996.97" y2="-918.13" xlink:href="#h"/><linearGradient id="bc" x1="1005.51" y1="-925.28" x2="1009.72" y2="-925.28" xlink:href="#h"/><linearGradient id="bd" x1="1018.27" y1="-932.45" x2="1022.48" y2="-932.45" xlink:href="#h"/><linearGradient id="be" x1="1031.03" y1="-939.63" x2="1035.26" y2="-939.63" xlink:href="#h"/><linearGradient id="bf" x1="1043.81" y1="-946.78" x2="1048.02" y2="-946.78" xlink:href="#h"/><linearGradient id="bg" x1="1056.56" y1="-953.95" x2="1060.78" y2="-953.95" xlink:href="#h"/><linearGradient id="bh" x1="1069.32" y1="-961.12" x2="1073.56" y2="-961.12" xlink:href="#h"/><linearGradient id="bi" x1="1082.1" y1="-968.29" x2="1086.32" y2="-968.29" xlink:href="#h"/><linearGradient id="bj" x1="-651.29" y1="-1019.05" x2="-614.57" y2="-1019.05" gradientTransform="rotate(180 232.075 -198.63)" xlink:href="#b"/><linearGradient id="bk" x1="-533.17" y1="-957.04" x2="-518.64" y2="-957.04" gradientTransform="rotate(180 232.075 -198.63)" xlink:href="#b"/><linearGradient id="bl" x1="1736.63" y1="-829.66" x2="1788.73" y2="-823.69" gradientTransform="matrix(1 0 0 -1 -381.36 -397.26)" xlink:href="#j"/><linearGradient id="bm" x1="-899.01" y1="-829" x2="-888.88" y2="-829" gradientTransform="rotate(180 232.075 -198.63)" xlink:href="#b"/><radialGradient id="m" cx="1580.81" cy="-965.09" r="223.13" gradientTransform="matrix(1 0 0 -1 0 -308.59)" gradientUnits="userSpaceOnUse"><stop offset="0" stop-color="#1d1d1d"/><stop offset="0" stop-color="#492223"/><stop offset=".01" stop-color="#732629"/><stop offset=".01" stop-color="#952a2e"/><stop offset=".02" stop-color="#b02d31"/><stop offset=".02" stop-color="#c42f34"/><stop offset=".03" stop-color="#cf3135"/><stop offset=".04" stop-color="#d33136"/><stop offset="1" stop-color="#d22d31" stop-opacity="0"/></radialGradient><radialGradient id="n" cx="2305.39" cy="-285.73" r="243.24" gradientTransform="matrix(.91 .41 .27 -.6 -342.63 -675.55)" gradientUnits="userSpaceOnUse"><stop offset="0" stop-color="#fff" stop-opacity=".75"/><stop offset=".67" stop-color="#e58386" stop-opacity=".23"/><stop offset="1" stop-color="#d94b4f" stop-opacity="0"/></radialGradient><radialGradient id="o" cx="1752.34" cy="-677.96" r="347.75" gradientTransform="matrix(1.08 0 0 -.86 -542.83 -70)" gradientUnits="userSpaceOnUse"><stop offset="0" stop-color="#e78f91"/><stop offset="1" stop-color="#e78f91" stop-opacity="0"/></radialGradient><radialGradient id="p" cx="1548.31" cy="-823" r="309" gradientTransform="matrix(.96 0 0 -.98 -235.76 -324.09)" gradientUnits="userSpaceOnUse"><stop offset="0" stop-color="#e78f91"/><stop offset=".22" stop-color="#e68b8d" stop-opacity=".8"/><stop offset=".72" stop-color="#e48284" stop-opacity=".29"/><stop offset="1" stop-color="#e37c7f" stop-opacity="0"/></radialGradient><radialGradient id="c" cx="1717.44" cy="-1058.79" r="82.98" gradientTransform="matrix(1 0 0 -1 -381.36 -397.26)" gradientUnits="userSpaceOnUse"><stop offset="0" stop-color="#eca6a8"/><stop offset="1" stop-color="#cf1c21"/></radialGradient><radialGradient id="t" cx="1722.88" cy="-705.19" r="58.31" gradientTransform="matrix(.53 -.22 -.25 -.61 364.63 639.11)" gradientUnits="userSpaceOnUse"><stop offset="0" stop-color="#dc5c5f"/><stop offset=".19" stop-color="#db585b" stop-opacity=".81"/><stop offset=".75" stop-color="#d94d50" stop-opacity=".23"/><stop offset="1" stop-color="#d8484c" stop-opacity="0"/></radialGradient><radialGradient id="v" cx="1845.04" cy="-865.32" r="47.82" xlink:href="#c"/><radialGradient id="w" cx="1615.22" cy="-384.12" r="58.29" gradientTransform="matrix(.48 -.2 -.25 -.61 601.5 541.23)" gradientUnits="userSpaceOnUse"><stop offset="0" stop-color="#dc5c5f"/><stop offset=".29" stop-color="#db5659" stop-opacity=".69"/><stop offset=".78" stop-color="#d94b4e" stop-opacity=".2"/><stop offset="1" stop-color="#d8474a" stop-opacity="0"/></radialGradient><radialGradient id="x" cx="1718.51" cy="-1066.35" r="23.84" gradientTransform="matrix(1 0 0 -1 -381.36 -397.26)" gradientUnits="userSpaceOnUse"><stop offset=".09" stop-color="#dd6064"/><stop offset=".13" stop-color="#d4363a"/><stop offset=".21" stop-color="#d43438" stop-opacity=".86"/><stop offset=".42" stop-color="#d32f33" stop-opacity=".56"/><stop offset=".62" stop-color="#d22b2f" stop-opacity=".32"/><stop offset=".78" stop-color="#d1282c" stop-opacity=".14"/><stop offset=".91" stop-color="#d1272b" stop-opacity=".04"/><stop offset="1" stop-color="#d1262a" stop-opacity="0"/></radialGradient><radialGradient id="d" cx="1719.34" cy="-871.99" r="222.13" gradientTransform="matrix(1 0 0 -1 -381.36 -397.26)" gradientUnits="userSpaceOnUse"><stop offset="0" stop-color="#e78f91"/><stop offset=".22" stop-color="#de898b" stop-opacity=".8"/><stop offset=".72" stop-color="#c67b7c" stop-opacity=".29"/><stop offset="1" stop-color="#b87273" stop-opacity="0"/></radialGradient><radialGradient id="y" cx="1796.34" cy="-783.99" r="222.13" xlink:href="#d"/><radialGradient id="z" cx="1230" cy="-93.61" r="162.93" gradientTransform="matrix(.59 -.24 -.25 -.61 432.11 611.54)" gradientUnits="userSpaceOnUse"><stop offset="0" stop-color="#dc5c5f"/><stop offset=".4" stop-color="#d95154" stop-opacity=".58"/><stop offset=".81" stop-color="#d74549" stop-opacity=".16"/><stop offset="1" stop-color="#d64145" stop-opacity="0"/></radialGradient><radialGradient id="A" cx="1522.6" cy="-656.86" r="23.88" gradientTransform="matrix(1 0 0 -1 -381.36 -397.26)" gradientUnits="userSpaceOnUse"><stop offset=".09" stop-color="#dd6064"/><stop offset=".13" stop-color="#d4363a"/><stop offset=".14" stop-color="#d4363a" stop-opacity=".98"/><stop offset=".38" stop-color="#d33135" stop-opacity=".64"/><stop offset=".59" stop-color="#d22c31" stop-opacity=".36"/><stop offset=".77" stop-color="#d1292e" stop-opacity=".17"/><stop offset=".91" stop-color="#d1282d" stop-opacity=".04"/><stop offset="1" stop-color="#d1272c" stop-opacity="0"/></radialGradient><radialGradient id="B" cx="1678.44" cy="-1088.79" r="82.98" xlink:href="#c"/><radialGradient id="i" cx="-548.36" cy="-1168.82" r="11.06" gradientTransform="rotate(180 232.075 -198.63)" gradientUnits="userSpaceOnUse"><stop offset="0" stop-color="#fff"/><stop offset="1"/></radialGradient><radialGradient id="T" cx="-677.09" cy="-1071.36" r="13.34" xlink:href="#i"/><radialGradient id="X" cx="-551.73" cy="-1144.2" r="13.32" xlink:href="#i"/><radialGradient id="ao" cx="-795.21" cy="-1140.16" r="13.32" xlink:href="#i"/><radialGradient id="at" cx="-669.86" cy="-1213.03" r="13.34" xlink:href="#i"/><radialGradient id="aF" cx="-548.36" cy="-1168.82" r="11.06" gradientTransform="rotate(180 232.075 -198.63)" xlink:href="#c"/></defs><path d="M1477.85 226.23v261.23L1842 697.6V436.21Z" fill="url(#m)"/><path class="letters" d="M1643.21 479.27a.89.89 0 0 1-.15-.5v-1.69a13.16 13.16 0 0 1-2.61-2.33 11.21 11.21 0 0 1-1.63-2.61 6.32 6.32 0 0 1-.58-2.41.31.31 0 0 1 .13-.28.36.36 0 0 1 .32 0l1.89 1.08a1 1 0 0 1 .39.33 3.4 3.4 0 0 1 .26.5 5.35 5.35 0 0 0 1 1.93 6.47 6.47 0 0 0 2 1.74 3.61 3.61 0 0 0 2.17.7c.48 0 .74-.46.74-1.11a2.6 2.6 0 0 0-.39-1.3 6.72 6.72 0 0 0-1.13-1.42c-.52-.52-1.26-1.21-2.18-2.17a19.43 19.43 0 0 1-3.63-3.89 7 7 0 0 1-1.15-3.83 2.54 2.54 0 0 1 1.2-2.5 3.74 3.74 0 0 1 3.24.29v-1.68c0-.17 0-.28.15-.32a.32.32 0 0 1 .35 0l1.3.76a1 1 0 0 1 .5.87v1.82a11.87 11.87 0 0 1 2.35 2.18 12.52 12.52 0 0 1 1.47 2.5 6.76 6.76 0 0 1 .57 2.17c0 .15 0 .26-.13.3a.38.38 0 0 1-.33 0l-2-1.15a1.29 1.29 0 0 1-.61-.78 4 4 0 0 0-.83-1.76 5.9 5.9 0 0 0-1.76-1.54 3 3 0 0 0-1.83-.55c-.43 0-.65.46-.65 1.09a2.71 2.71 0 0 0 .35 1.29 6.27 6.27 0 0 0 1 1.37 18.66 18.66 0 0 0 2.18 1.91 27.2 27.2 0 0 1 3 2.81 9.19 9.19 0 0 1 1.63 2.45 6.43 6.43 0 0 1 .52 2.63 2.64 2.64 0 0 1-1.3 2.65 4.66 4.66 0 0 1-3.54-.47V480a.39.39 0 0 1-.13.35.4.4 0 0 1-.37 0l-1.31-.74a1 1 0 0 1-.52-.35Zm7.28 14.41-3.87 5.85 2 1.17a1 1 0 0 1 .39.39 1.12 1.12 0 0 1 .15.5V503a.36.36 0 0 1-.17.33.4.4 0 0 1-.37 0l-2.83-1.63v.87l2.83 1.63a1 1 0 0 1 .39.39 1.08 1.08 0 0 1 .15.5v1.37a.33.33 0 0 1-.25.39.31.31 0 0 1-.29-.09l-2.83-1.65v1.48a.37.37 0 0 1-.15.35.4.4 0 0 1-.37 0l-1.94-1.13a1.14 1.14 0 0 1-.52-.87v-1.48l-2.82-1.63a.93.93 0 0 1-.37-.39 1 1 0 0 1-.13-.5v-1.37a.42.42 0 0 1 .13-.33h.37l2.82 1.63V500l-2.82-1.63a1 1 0 0 1-.37-.37 1.13 1.13 0 0 1-.13-.5V496c0-.18 0-.28.13-.33s.22 0 .37 0l2 1.18-3.94-10.31a.76.76 0 0 1 0-.3.29.29 0 0 1 .14-.28.24.24 0 0 1 .28 0l1.93 1.13a1.6 1.6 0 0 1 .65.82l3.22 8.41 3.22-4.69a.46.46 0 0 1 .64 0l1.91 1.11a1 1 0 0 1 .31.32.84.84 0 0 1 .13.44.88.88 0 0 1 0 .15Zm-4.49 41.84a22.76 22.76 0 0 1-1.52-1.78c-.57-.72-.87-1-1.15-1.35a5.06 5.06 0 0 0-.92-.74c-.45-.24-.78-.3-1-.17a1.44 1.44 0 0 0-.52.85.38.38 0 0 1 0 .21.28.28 0 0 1-.28 0l-1.61-.91a1 1 0 0 1-.28-.3.71.71 0 0 1-.13-.4 3.23 3.23 0 0 1 .69-2.17 1.69 1.69 0 0 1 1.68-.43 11.73 11.73 0 0 0-.13-1.57c0-.59 0-1-.13-1.09l-1.59-.93a.83.83 0 0 1-.37-.37 1.08 1.08 0 0 1-.15-.5v-1.35a.34.34 0 0 1 .15-.32.4.4 0 0 1 .37 0l1.17.67v-1.48c0-1.91.46-3.17 1.4-3.74s2.17-.36 4 .63a12 12 0 0 1 2.91 2.4 10.63 10.63 0 0 1 1.93 3.06 9.16 9.16 0 0 1 .7 3.26c0 .15 0 .24-.11.31a.38.38 0 0 1-.33 0l-2-1.18a1.31 1.31 0 0 1-.63-.93 5.37 5.37 0 0 0-2.47-4.07c-.79-.45-1.37-.5-1.76-.11a3.15 3.15 0 0 0-.59 2.18 11.37 11.37 0 0 0 0 1.43l3.59 2.07a1.07 1.07 0 0 1 .34.39.81.81 0 0 1 .16.48v1.34c0 .18 0 .29-.16.33a.34.34 0 0 1-.34 0l-3.44-2c.11 1.18.18 2.18.2 2.65a7.49 7.49 0 0 1 .91.87c.26.29.57.68.93 1.15s.68.87.94 1.18a3.23 3.23 0 0 0 .87.69 1.22 1.22 0 0 0 1.13.22 1.41 1.41 0 0 0 .54-1 .25.25 0 0 1 .24 0l1.48.85a.63.63 0 0 1 .28.28.65.65 0 0 1 0 .39 3.33 3.33 0 0 1-.52 2 1.61 1.61 0 0 1-1.3.74 3.15 3.15 0 0 1-1.79-.5 7.66 7.66 0 0 1-1.41-1.26Zm6.41 27a.6.6 0 0 1 .11.43 3.12 3.12 0 0 1-.78 2.18 2.65 2.65 0 0 1-2.17.65 8.13 8.13 0 0 1-3.31-1.18 12.64 12.64 0 0 1-4.35-3.91 11.49 11.49 0 0 1-1.84-5.26l-1.37-.78a1 1 0 0 1-.37-.37 1 1 0 0 1-.13-.5v-1.39a.39.39 0 0 1 .13-.35.4.4 0 0 1 .37 0l1.3.74v-.91l-1.3-.74a1.06 1.06 0 0 1-.37-.39 1 1 0 0 1-.13-.48v-1.41c0-.18 0-.29.13-.33a.48.48 0 0 1 .37 0l1.37.8c.17-1.73.78-2.78 1.82-3.15a5.29 5.29 0 0 1 4.35 1 14.61 14.61 0 0 1 3.3 2.61 12.24 12.24 0 0 1 2.18 3.15 7.78 7.78 0 0 1 .78 3.07.28.28 0 0 1-.13.26.51.51 0 0 1-.3 0l-2-1.2a.83.83 0 0 1-.39-.35 1.62 1.62 0 0 1-.24-.61 5.84 5.84 0 0 0-1.08-2.41 6.8 6.8 0 0 0-2-1.72c-1.72-1-2.74-.63-3 1.13l3.48 2a1.3 1.3 0 0 1 .37.37 1.13 1.13 0 0 1 .13.5v1.39c0 .18 0 .29-.15.33a.36.36 0 0 1-.35 0l-3.54-2.17v1.19l3.54 2a1 1 0 0 1 .5.87V559a.39.39 0 0 1-.13.32h-.37l-3.48-2a6 6 0 0 0 3 4.59 3.65 3.65 0 0 0 2 .63 1.4 1.4 0 0 0 1.08-1.15.36.36 0 0 1 .24-.35.5.5 0 0 1 .39.11l2 1.17a.73.73 0 0 1 .29.22Zm69.55-217.14a1.19 1.19 0 0 1-.13-.49v-2.59l-1.6-.94a.74.74 0 0 1-.35-.37.81.81 0 0 1-.15-.48v-.76c0-.17 0-.28.15-.32a.32.32 0 0 1 .35 0l1.6.91V339l-1.6-.92a.89.89 0 0 1-.35-.37.87.87 0 0 1-.15-.5v-1.34c0-.18 0-.29.15-.33a.36.36 0 0 1 .35 0l1.6.91v-7.32c0-.17 0-.31.13-.37a.4.4 0 0 1 .37 0l5.61 3.26a11.54 11.54 0 0 1 4 3.67 8.79 8.79 0 0 1 1.44 4.83c0 1.65-.48 2.65-1.44 2.95a5.37 5.37 0 0 1-4-1l-3.08-1.78V342l3.41 2a1 1 0 0 1 .5.87v.76a.42.42 0 0 1-.13.33h-.37l-3.41-2v2.61c0 .17 0 .28-.13.32a.36.36 0 0 1-.4 0l-2-1.17a1 1 0 0 1-.32-.32Zm5.89-5.34c.81.48 1.42.61 1.85.41s.63-.72.63-1.56a4.46 4.46 0 0 0-.61-2.31 5.07 5.07 0 0 0-1.87-1.78l-3-1.8v5.26Zm-2.85 38.14a1 1 0 0 1-.15-.5V376a13.31 13.31 0 0 1-2.58-2.33 10.4 10.4 0 0 1-1.63-2.61 7 7 0 0 1-.61-2.41.31.31 0 0 1 .13-.28.32.32 0 0 1 .35 0l1.86 1.08a1.08 1.08 0 0 1 .4.33 3 3 0 0 1 .26.5 5.17 5.17 0 0 0 1 1.93 6.86 6.86 0 0 0 2 1.74 3.61 3.61 0 0 0 2.17.7c.5 0 .74-.46.74-1.13a2.61 2.61 0 0 0-.37-1.28 7.28 7.28 0 0 0-1.15-1.44c-.5-.5-1.26-1.19-2.17-2.17a18.61 18.61 0 0 1-3.63-3.89 6.78 6.78 0 0 1-1.16-3.85 2.53 2.53 0 0 1 1.18-2.48 3.84 3.84 0 0 1 3.24.26V357c0-.17 0-.28.15-.32a.32.32 0 0 1 .35 0l1.3.73a1.3 1.3 0 0 1 .37.37 1.13 1.13 0 0 1 .13.5V360a11.93 11.93 0 0 1 3.85 4.78 6.84 6.84 0 0 1 .54 2.18.35.35 0 0 1-.13.3h-.3l-2-1.15a1.39 1.39 0 0 1-.61-.78 3.83 3.83 0 0 0-.83-1.76 5.45 5.45 0 0 0-1.7-1.57 2.84 2.84 0 0 0-1.8-.54c-.44 0-.66.46-.66 1.09a2.9 2.9 0 0 0 .33 1.28 6.6 6.6 0 0 0 1 1.37c.48.5 1.18 1.15 2.07 1.91a27.9 27.9 0 0 1 3 2.8 8.93 8.93 0 0 1 1.63 2.46 6.44 6.44 0 0 1 .53 2.63c0 1.39-.44 2.28-1.31 2.63a4.53 4.53 0 0 1-3.54-.46v1.68a.36.36 0 0 1-.13.34.4.4 0 0 1-.37 0l-1.3-.73a1.23 1.23 0 0 1-.4-.31Zm7.31 14.41-3.89 5.85 2 1.17a.93.93 0 0 1 .37.39.89.89 0 0 1 .15.5v1.39c0 .16 0 .26-.15.31a.35.35 0 0 1-.37 0l-2.83-1.63v.85l2.83 1.63a1.14 1.14 0 0 1 .52.89v1.37a.33.33 0 0 1-.15.32.29.29 0 0 1-.37 0l-2.83-1.63v1.48c0 .17 0 .28-.15.33a.32.32 0 0 1-.37 0l-1.93-1.11a1.12 1.12 0 0 1-.39-.39.91.91 0 0 1-.13-.48v-1.48l-2.85-1.63a1 1 0 0 1-.35-.39.89.89 0 0 1-.15-.5v-1.61c0-.17 0-.28.15-.33a.32.32 0 0 1 .35 0l2.85 1.64v-.85l-2.85-1.63a1.24 1.24 0 0 1-.35-.37.89.89 0 0 1-.15-.5v-1.39c0-.18 0-.29.15-.33a.32.32 0 0 1 .35 0l2 1.15-3.87-10.3a.76.76 0 0 1 0-.3.39.39 0 0 1 .13-.29.34.34 0 0 1 .31 0l1.93 1.11a1.49 1.49 0 0 1 .63.85l3.22 8.41 3.24-4.69c.15-.22.37-.24.65 0l1.89 1.1a.77.77 0 0 1 .31.31.83.83 0 0 1 .15.43 1 1 0 0 1 0 .35Zm-4.57 41.82c-.43-.46-1-1-1.52-1.76s-.85-1-1.13-1.35a4 4 0 0 0-.91-.74c-.46-.26-.81-.32-1-.19a1.26 1.26 0 0 0-.5.87s0 .17-.13.19a1.12 1.12 0 0 1-.26 0l-1.63-.93a.81.81 0 0 1-.29-.29.94.94 0 0 1 0-.41 3.15 3.15 0 0 1 .68-2.17 1.73 1.73 0 0 1 1.69-.44 10.43 10.43 0 0 0-.13-1.56 4.68 4.68 0 0 0-.15-1.11l-1.59-.91a1 1 0 0 1-.34-.37.9.9 0 0 1-.16-.5v-1.35c0-.17 0-.28.16-.33a.34.34 0 0 1 .34 0l1.18.68v-1.48a4.15 4.15 0 0 1 1.39-3.76c.93-.56 2.17-.35 4 .65a11.29 11.29 0 0 1 2.93 2.39 10.31 10.31 0 0 1 1.92 3.07 8.92 8.92 0 0 1 .71 3.26c0 .15 0 .24-.13.28a.24.24 0 0 1-.3 0l-2-1.17a1.34 1.34 0 0 1-.63-.94 5.45 5.45 0 0 0-2.48-4.08c-.78-.44-1.37-.48-1.76 0a3.11 3.11 0 0 0-.59 2.17v1.43l3.59 2.18a1.13 1.13 0 0 1 .35.37 1 1 0 0 1 .15.5V428a.33.33 0 0 1-.15.33.32.32 0 0 1-.35 0l-3.41-2c0 1.18.17 2.07.17 2.66a4.69 4.69 0 0 1 .91.87 11.5 11.5 0 0 1 .94 1.15c.37.48.67.87.93 1.15a4.63 4.63 0 0 0 .87.72c.5.28.87.34 1.13.21a1.41 1.41 0 0 0 .59-.91.35.35 0 0 1 .15-.17h.24l1.46.84a.89.89 0 0 1 .3.31.88.88 0 0 1 .11.39 3.64 3.64 0 0 1-.52 2 1.75 1.75 0 0 1-1.33.74 3.06 3.06 0 0 1-1.76-.5 7.07 7.07 0 0 1-1.63-1.41Zm6.52 27a.74.74 0 0 1 .13.41 3.14 3.14 0 0 1-.8 2.17 2.63 2.63 0 0 1-2.17.66 7.93 7.93 0 0 1-3.29-1.2 12.47 12.47 0 0 1-4.34-3.89 11.79 11.79 0 0 1-1.85-5.26l-1.37-.78a1.24 1.24 0 0 1-.35-.37 1 1 0 0 1-.15-.5v-1.35c0-.18 0-.31.15-.35a.36.36 0 0 1 .35 0l1.3.74v-.91l-1.3-.74a1.09 1.09 0 0 1-.35-.39.91.91 0 0 1-.15-.5v-1.39c0-.18 0-.29.15-.33a.36.36 0 0 1 .35 0l1.37.78c.2-1.72.8-2.76 1.85-3.15a5.36 5.36 0 0 1 4.34 1 14.07 14.07 0 0 1 3.29 2.61 11.8 11.8 0 0 1 2.17 3.15 8 8 0 0 1 .8 3.06.21.21 0 0 1-.15.24.32.32 0 0 1-.3 0l-2-1.17a1.4 1.4 0 0 1-.42-.35 1.64 1.64 0 0 1-.21-.61 6.67 6.67 0 0 0-1.09-2.41 7.4 7.4 0 0 0-2-1.74c-1.74-1-2.74-.61-3 1.15l3.45 2a1 1 0 0 1 .5.87v1.39c0 .18 0 .29-.13.33s-.22 0-.37 0l-3.59-2v.91l3.55 2.07a.88.88 0 0 1 .37.37 1 1 0 0 1 .13.5v1.39a.39.39 0 0 1-.13.32h-.37l-3.46-2a5.91 5.91 0 0 0 3 4.59 3.41 3.41 0 0 0 2 .61c.5 0 .87-.44 1.08-1.15a.48.48 0 0 1 .22-.33.58.58 0 0 1 .41 0l2 1.19a.76.76 0 0 1 .35.42ZM1693 526.54a1 1 0 0 1 .13.42 2.65 2.65 0 0 1-.72 1.89 2.55 2.55 0 0 1-2.17.52 8.18 8.18 0 0 1-3.24-1.22 11.4 11.4 0 0 1-2.72-2.17 10.76 10.76 0 0 1-1.89-2.78 6.92 6.92 0 0 1-.67-3 3.89 3.89 0 0 1 .21-1.35l-.43-.26a1.12 1.12 0 0 1-.5-.87v-.65c0-.17 0-.28.15-.32a.29.29 0 0 1 .35 0l1.76 1a4.47 4.47 0 0 1 1.46 0l-3.22-1.87a1 1 0 0 1-.35-.37.89.89 0 0 1-.15-.5v-.65c0-.18 0-.29.15-.33a.43.43 0 0 1 .35 0l7.06 4.06a1.14 1.14 0 0 0 .74-.34 1.3 1.3 0 0 0 .24-.85 3.28 3.28 0 0 0-.54-1.8 4.37 4.37 0 0 0-1.5-1.37 3.25 3.25 0 0 0-1.83-.57 1 1 0 0 0-.91.8c-.11.22-.33.24-.63 0l-2-1.15a1 1 0 0 1-.43-.76 2.16 2.16 0 0 1 .69-1.67 2.6 2.6 0 0 1 2-.59 7.2 7.2 0 0 1 3.11 1.09 9.18 9.18 0 0 1 2.5 2.12 9 9 0 0 1 1.63 2.59 7 7 0 0 1 .58 2.69 2.77 2.77 0 0 1-.43 1.68l.72.41a1 1 0 0 1 .5.87v.65a.4.4 0 0 1-.13.33h-.37l-2.7-1.54a16 16 0 0 1-1.69-.24h-.24l4.56 2.76a1 1 0 0 1 .5.87v.65a.39.39 0 0 1-.13.32h-.37l-7.74-4.47a1.27 1.27 0 0 0-.36 1.08 3.57 3.57 0 0 0 .65 2.05 6 6 0 0 0 1.87 1.67 3.5 3.5 0 0 0 2.17.65 1.21 1.21 0 0 0 1-.78c.13-.24.35-.26.63 0l1.91 1.11a.76.76 0 0 1 .33.11Zm-7.09-108a.87.87 0 0 1-.15-.5v-1.69a13 13 0 0 1-2.59-2.33 11 11 0 0 1-1.63-2.58 6.9 6.9 0 0 1-.61-2.44.27.27 0 0 1 .13-.26.32.32 0 0 1 .33 0l1.89 1.09a1.22 1.22 0 0 1 .39.32 3.4 3.4 0 0 1 .26.5 5.23 5.23 0 0 0 1 1.94 7 7 0 0 0 2 1.74 3.65 3.65 0 0 0 2.18.69c.5 0 .74-.45.74-1.11a2.48 2.48 0 0 0-.37-1.3 6.82 6.82 0 0 0-1.15-1.41c-.5-.52-1.26-1.22-2.18-2.18a19.05 19.05 0 0 1-3.61-3.89 6.75 6.75 0 0 1-1.15-3.82 2.56 2.56 0 0 1 1.18-2.5 3.71 3.71 0 0 1 3.23.28v-1.65c0-.2 0-.31.16-.35a.34.34 0 0 1 .34 0l1.31.76a.83.83 0 0 1 .37.37 1.09 1.09 0 0 1 .13.5v1.7a11.53 11.53 0 0 1 2.35 2.17 12.19 12.19 0 0 1 1.5 2.5 6.78 6.78 0 0 1 .54 2.17c0 .15 0 .26-.13.31s-.18 0-.31 0l-2-1.15a1.4 1.4 0 0 1-.6-.79 3.87 3.87 0 0 0-.83-1.76 5.54 5.54 0 0 0-1.76-1.54 3 3 0 0 0-1.8-.54c-.44 0-.66.45-.66 1.08a2.69 2.69 0 0 0 .31 1.28 7.48 7.48 0 0 0 1.06 1.37 18.56 18.56 0 0 0 2.18 1.92 28.9 28.9 0 0 1 3 2.8 9.4 9.4 0 0 1 1.63 2.46 6.4 6.4 0 0 1 .52 2.63 2.65 2.65 0 0 1-1.3 2.65 4.63 4.63 0 0 1-3.7-.2v1.68c0 .17 0 .3-.13.34a.33.33 0 0 1-.36 0l-1.31-.76a1.15 1.15 0 0 1-.37-.5Zm7.3 14.41-3.89 5.85 2.05 1.17a.9.9 0 0 1 .37.4.86.86 0 0 1 .15.49v1.4a.37.37 0 0 1-.15.32.47.47 0 0 1-.37 0l-2.83-1.65v.76l2.83 1.63a.93.93 0 0 1 .37.39 1 1 0 0 1 .15.5v1.37c0 .15 0 .28-.15.33a.35.35 0 0 1-.37 0l-2.83-1.63v1.45a.31.31 0 0 1-.21.38.33.33 0 0 1-.31-.09l-1.93-1.13a1.41 1.41 0 0 1-.4-.37 1.28 1.28 0 0 1-.13-.5v-1.46l-2.84-1.65a1.2 1.2 0 0 1-.5-.89v-1.37a.33.33 0 0 1 .15-.33.36.36 0 0 1 .35 0l2.84 1.63v-.85l-2.84-1.63a.89.89 0 0 1-.35-.37.87.87 0 0 1-.15-.5v-1.39c0-.17 0-.28.15-.32a.32.32 0 0 1 .35 0l2 1.17-3.87-10.32a.81.81 0 0 1 0-.31.31.31 0 0 1 .13-.28.34.34 0 0 1 .31 0l1.93 1.13a1.67 1.67 0 0 1 .65.83l3.2 8.41 3.24-4.7a.45.45 0 0 1 .64 0l1.91 1.11a.81.81 0 0 1 .28.33.67.67 0 0 1 .16.43 1.14 1.14 0 0 1-.16.31Zm-7.3 126.83a.89.89 0 0 1-.15-.5v-1.7a13.61 13.61 0 0 1-2.59-2.32 11.21 11.21 0 0 1-1.63-2.61 6.75 6.75 0 0 1-.61-2.41.39.39 0 0 1 .13-.29.32.32 0 0 1 .33 0l1.89 1.09a.89.89 0 0 1 .39.33 2.62 2.62 0 0 1 .26.5 5.27 5.27 0 0 0 1 1.93 7 7 0 0 0 2 1.74 3.79 3.79 0 0 0 2.18.69c.5 0 .74-.45.74-1.13a2.44 2.44 0 0 0-.37-1.28 7.92 7.92 0 0 0-1.15-1.43c-.5-.5-1.26-1.2-2.18-2.18a18.69 18.69 0 0 1-3.61-3.87 6.79 6.79 0 0 1-1.15-3.84 2.56 2.56 0 0 1 1.18-2.48 3.75 3.75 0 0 1 3.23.28v-1.67c0-.18 0-.28.16-.33a.34.34 0 0 1 .34 0l1.31.76a1 1 0 0 1 .37.35 1.09 1.09 0 0 1 .13.5v1.72a12.08 12.08 0 0 1 2.35 2.28 11.76 11.76 0 0 1 1.5 2.5 6.78 6.78 0 0 1 .54 2.17.37.37 0 0 1-.13.31h-.31l-2-1.15a1.4 1.4 0 0 1-.6-.79 4.11 4.11 0 0 0-.83-1.78 5.83 5.83 0 0 0-1.76-1.52 3 3 0 0 0-1.8-.54c-.44 0-.66.45-.66 1.08a2.76 2.76 0 0 0 .31 1.29 7.76 7.76 0 0 0 1.06 1.36 21.84 21.84 0 0 0 2.18 1.92 28.9 28.9 0 0 1 3 2.8 8.64 8.64 0 0 1 1.63 2.46 6.4 6.4 0 0 1 .52 2.63c0 1.39-.43 2.28-1.3 2.63a4.44 4.44 0 0 1-3.54-.48v1.69a.41.41 0 0 1-.13.35.4.4 0 0 1-.37 0l-1.31-.74a1.56 1.56 0 0 1-.52-.32Zm7.3 14.41-3.89 5.84 2.05 1.18a.87.87 0 0 1 .37.39.89.89 0 0 1 .15.5v1.39c0 .15 0 .26-.15.3a.32.32 0 0 1-.37 0l-2.83-1.63v.84l2.83 1.63a.93.93 0 0 1 .37.39.89.89 0 0 1 .15.5v1.37a.36.36 0 0 1-.15.32.29.29 0 0 1-.37 0l-2.83-1.63V587a.33.33 0 0 1-.15.33h-.39l-1.93-1.11a1 1 0 0 1-.53-.87v-1.45l-2.84-1.63a1 1 0 0 1-.35-.39.89.89 0 0 1-.15-.5V580c0-.17 0-.28.15-.32a.29.29 0 0 1 .35 0l2.84 1.63v-.85l-2.84-1.63a1.12 1.12 0 0 1-.35-.37.89.89 0 0 1-.15-.5v-1.52c0-.18 0-.28.15-.33a.36.36 0 0 1 .35 0l2 1.18-3.8-10.29a.76.76 0 0 1 0-.3.31.31 0 0 1 .13-.28.29.29 0 0 1 .31 0l1.93 1.1a1.76 1.76 0 0 1 .65.85l3.2 8.41 3.15-4.67a.46.46 0 0 1 .64 0l1.91 1.11a.83.83 0 0 1 .29.3.86.86 0 0 1 .15.44.88.88 0 0 1-.07.32Zm-4.56-99.4c-.43-.47-1-1.06-1.52-1.78s-.85-1-1.13-1.35a4.87 4.87 0 0 0-.94-.74 1.18 1.18 0 0 0-1-.19 1.41 1.41 0 0 0-.5.87.29.29 0 0 1-.13.22.3.3 0 0 1-.26 0l-1.63-.94a.63.63 0 0 1-.28-.28.92.92 0 0 1-.11-.39 3.18 3.18 0 0 1 .68-2.18 1.73 1.73 0 0 1 1.69-.43 10.65 10.65 0 0 0-.13-1.57 4.42 4.42 0 0 0-.15-1.08l-1.59-.94a.84.84 0 0 1-.35-.37.87.87 0 0 1-.15-.5v-1.34c0-.18 0-.29.15-.33a.36.36 0 0 1 .35 0l1.18.67v-1.47a4.2 4.2 0 0 1 1.39-3.76c.93-.57 2.28-.35 4 .65a11.86 11.86 0 0 1 2.93 2.39 11.31 11.31 0 0 1 1.91 3.06 8.73 8.73 0 0 1 .72 3.26c0 .16 0 .26-.13.31a.32.32 0 0 1-.3 0l-2-1.15a1.5 1.5 0 0 1-.63-1 5.43 5.43 0 0 0-2.48-4.07c-.79-.45-1.37-.47-1.76-.1a3.11 3.11 0 0 0-.59 2.17v1.43l3.59 2.18a1.15 1.15 0 0 1 .5.85v1.34c0 .18 0 .29-.16.33a.34.34 0 0 1-.34 0l-3.42-2c.11 1.17.18 2.17.18 2.65a5.36 5.36 0 0 1 .91.87 14.73 14.73 0 0 1 .94 1.15c.36.5.69.87.93 1.18a3.89 3.89 0 0 0 .87.69c.5.29.87.35 1.13.22a1.41 1.41 0 0 0 .59-.91.43.43 0 0 1 .15-.18.33.33 0 0 1 .24 0l1.45.85a.71.71 0 0 1 .31.31.77.77 0 0 1 0 .37 3.51 3.51 0 0 1-.55 2 1.69 1.69 0 0 1-1.3.74 3.13 3.13 0 0 1-1.76-.5 7.91 7.91 0 0 1-1.52-1.31Zm6.52 27a.83.83 0 0 1 .13.43 3.16 3.16 0 0 1-.8 2.18 2.6 2.6 0 0 1-2.18.65 8.24 8.24 0 0 1-3.28-1.17 12.34 12.34 0 0 1-4.24-3.92 11.65 11.65 0 0 1-1.87-5.26l-1.37-.87a.91.91 0 0 1-.34-.36.93.93 0 0 1-.16-.5v-1.31a.34.34 0 0 1 .5-.35l1.31.74v-.91l-1.31-.74a1.07 1.07 0 0 1-.34-.39.84.84 0 0 1-.16-.48v-1.41c0-.18 0-.28.16-.33a.4.4 0 0 1 .34 0l1.37.81q.3-2.61 1.83-3.15a5.3 5.3 0 0 1 4.35 1 14.78 14.78 0 0 1 3.28 2.61 12 12 0 0 1 2.17 3.15 8.18 8.18 0 0 1 .81 3.07.25.25 0 0 1-.16.26.39.39 0 0 1-.3 0l-2-1.18a1.29 1.29 0 0 1-.41-.36 1.72 1.72 0 0 1-.22-.61 6.62 6.62 0 0 0-1.09-2.42 7 7 0 0 0-2-1.71c-1.74-1-2.74-.63-3 1.13l3.45 2a.94.94 0 0 1 .37.37 1 1 0 0 1 .13.5v1.41c0 .15 0 .26-.13.3a.35.35 0 0 1-.37 0l-3.65-2v.86l3.54 2a1 1 0 0 1 .5.87v1.43a.35.35 0 0 1-.13.33h-.37l-3.45-2a5.89 5.89 0 0 0 3 4.58 3.47 3.47 0 0 0 2 .63c.5 0 .87-.45 1.09-1.15a.51.51 0 0 1 .22-.35.61.61 0 0 1 .41.11l2 1.18a.81.81 0 0 1 .24.28Zm83.14 77.44a.76.76 0 0 1 .15.41 2.66 2.66 0 0 1-.72 1.9 2.61 2.61 0 0 1-2.17.52 8.18 8.18 0 0 1-3.24-1.22 12.25 12.25 0 0 1-2.74-2.17 11.18 11.18 0 0 1-1.87-2.79 7 7 0 0 1-.72-2.88 3.29 3.29 0 0 1 .24-1.35l-.44-.26a.84.84 0 0 1-.35-.37 1 1 0 0 1-.15-.5v-.54c0-.18 0-.29.15-.33a.36.36 0 0 1 .35 0l1.76 1a5 5 0 0 1 1.44 0l-3.2-1.84a.74.74 0 0 1-.35-.37 1 1 0 0 1-.15-.66v-.65c0-.17 0-.28.15-.32a.36.36 0 0 1 .35 0l7 4.06a1 1 0 0 0 .74-.35 1.17 1.17 0 0 0 .24-.85 3.12 3.12 0 0 0-.54-1.8 4.14 4.14 0 0 0-1.48-1.37 3.2 3.2 0 0 0-1.85-.56 1 1 0 0 0-.91.8c-.11.22-.3.24-.61 0l-2-1.15a.64.64 0 0 1-.3-.33.66.66 0 0 1-.13-.43 2.17 2.17 0 0 1 .67-1.68 2.69 2.69 0 0 1 2-.58 7.32 7.32 0 0 1 3.11 1.08 9.76 9.76 0 0 1 2.5 2.07 8.86 8.86 0 0 1 1.63 2.59 7.08 7.08 0 0 1 .56 2.69 2.73 2.73 0 0 1-.41 1.67l.72.42a.89.89 0 0 1 .35.37.87.87 0 0 1 .15.5v.65a.36.36 0 0 1-.15.32h-.35l-2.7-1.54a12.06 12.06 0 0 1-1.69-.24h-.26l4.65 2.68a.89.89 0 0 1 .35.37.87.87 0 0 1 .15.5v.65a.36.36 0 0 1-.15.32h-.35l-7.76-4.47a1.35 1.35 0 0 0-.37 1.08 3.66 3.66 0 0 0 .67 2 6.1 6.1 0 0 0 1.87 1.67 3.54 3.54 0 0 0 2.18.65 1.24 1.24 0 0 0 1-.8c.13-.22.34-.24.63 0l1.89 1.11a.7.7 0 0 1 .24.32Zm-7-108a.82.82 0 0 1-.15-.5v-1.69a12.78 12.78 0 0 1-2.59-2.33 12.1 12.1 0 0 1-1.65-2.59 6.57 6.57 0 0 1-.59-2.43.33.33 0 0 1 .13-.28.38.38 0 0 1 .33 0l1.89 1.08a1.13 1.13 0 0 1 .39.33 3.4 3.4 0 0 1 .26.5 5.12 5.12 0 0 0 1 1.93 6.44 6.44 0 0 0 2 1.74 3.63 3.63 0 0 0 2.18.7c.5 0 .74-.46.74-1.11a2.68 2.68 0 0 0-.37-1.3 7.91 7.91 0 0 0-1.16-1.42c-.5-.52-1.26-1.21-2.17-2.17a19.43 19.43 0 0 1-3.63-3.89 7 7 0 0 1-1.15-3.83 2.52 2.52 0 0 1 1.19-2.5 3.73 3.73 0 0 1 3.24.29v-1.66c0-.17 0-.28.16-.32a.3.3 0 0 1 .34 0l1.31.76a.88.88 0 0 1 .37.37 1.06 1.06 0 0 1 .13.5v1.69a11.54 11.54 0 0 1 2.34 2.18 12.3 12.3 0 0 1 1.48 2.49 6.89 6.89 0 0 1 .67 2.23c0 .15 0 .26-.13.3a.38.38 0 0 1-.33 0l-2-1.15a1.36 1.36 0 0 1-.61-.78 4 4 0 0 0-.82-1.76 6.07 6.07 0 0 0-1.76-1.55 3.13 3.13 0 0 0-1.81-.54c-.45 0-.67.46-.67 1.09a2.6 2.6 0 0 0 .33 1.28 5.65 5.65 0 0 0 1.06 1.37c.65.67 1.33 1.31 2 1.91a27.29 27.29 0 0 1 3 2.81 9.19 9.19 0 0 1 1.63 2.45 6.43 6.43 0 0 1 .52 2.63 2.64 2.64 0 0 1-1.3 2.65 4.66 4.66 0 0 1-3.54-.47v1.93c0 .17 0 .3-.13.35a.4.4 0 0 1-.37 0l-1.31-.76a1 1 0 0 1-.54-.46Zm7.28 14.41-3.87 5.85 2 1.17a1.15 1.15 0 0 1 .37.39 1 1 0 0 1 .15.5V495a.35.35 0 0 1-.52.33l-2.85-1.63v.85l2.85 1.63a1.07 1.07 0 0 1 .37.39 1 1 0 0 1 .15.5v1.37c0 .15 0 .28-.15.32a.32.32 0 0 1-.37 0l-2.85-1.63v1.46a.37.37 0 0 1-.15.35.4.4 0 0 1-.37 0l-1.94-1.11a1.71 1.71 0 0 1-.37-.39 1.31 1.31 0 0 1-.15-.5v-1.46l-2.82-1.65a1 1 0 0 1-.35-.37 1 1 0 0 1-.15-.52v-1.37a.34.34 0 0 1 .15-.33.36.36 0 0 1 .35 0l2.82 1.63V492l-2.82-1.63a1 1 0 0 1-.35-.37.84.84 0 0 1-.15-.5v-1.4a.33.33 0 0 1 .15-.33.32.32 0 0 1 .35 0l2 1.17-4-10.3a.76.76 0 0 1 0-.3.33.33 0 0 1 .13-.29.28.28 0 0 1 .28 0l1.94 1.13a1.67 1.67 0 0 1 .65.83l3.22 8.41 3.21-4.69a.46.46 0 0 1 .65 0l1.92 1.1a1 1 0 0 1 .3.33.76.76 0 0 1 .13.44l-.13.06Zm-7.28 126.82a.87.87 0 0 1-.15-.5v-1.69a13.52 13.52 0 0 1-2.68-2.33 11.79 11.79 0 0 1-1.65-2.6 6.51 6.51 0 0 1-.58-2.42.27.27 0 0 1 .13-.28.31.31 0 0 1 .32 0l1.89 1.09a.88.88 0 0 1 .39.32 2.7 2.7 0 0 1 .27.5 5.21 5.21 0 0 0 1 1.94 6.86 6.86 0 0 0 2 1.74 3.6 3.6 0 0 0 2.17.69c.5 0 .74-.45.74-1.13a2.64 2.64 0 0 0-.37-1.28 8.86 8.86 0 0 0-1.15-1.44c-.5-.5-1.26-1.19-2.18-2.17a18.79 18.79 0 0 1-3.63-3.87 7 7 0 0 1-1.15-3.84 2.5 2.5 0 0 1 1.2-2.48 3.74 3.74 0 0 1 3.24.28v-1.67c0-.18 0-.29.15-.33a.36.36 0 0 1 .35 0l1.3.76a1 1 0 0 1 .37.35 1.06 1.06 0 0 1 .13.5v1.72a11.29 11.29 0 0 1 2.35 2.28 12.57 12.57 0 0 1 1.48 2.5 7.09 7.09 0 0 1 .56 2.17.37.37 0 0 1-.13.31.38.38 0 0 1-.33 0l-2-1.16a1.29 1.29 0 0 1-.61-.78 4.22 4.22 0 0 0-.83-1.78 6.26 6.26 0 0 0-1.76-1.52 3.06 3.06 0 0 0-1.8-.55c-.46 0-.68.46-.68 1.09a2.83 2.83 0 0 0 .33 1.28 5.65 5.65 0 0 0 1.06 1.37 26.47 26.47 0 0 0 2 1.91 28.23 28.23 0 0 1 3 2.81 9.19 9.19 0 0 1 1.63 2.45 6.64 6.64 0 0 1 .52 2.63c0 1.4-.44 2.29-1.31 2.63a4.33 4.33 0 0 1-3.54-.47v1.89a.39.39 0 0 1-.13.35.48.48 0 0 1-.37 0l-1.3-.74a1.13 1.13 0 0 1-.46-.53Zm7.28 14.41-3.87 5.85 2 1.18a1.07 1.07 0 0 1 .37.39 1 1 0 0 1 .15.5v1.39a.32.32 0 0 1-.33.32.31.31 0 0 1-.19-.06l-2.85-1.63v.85l2.85 1.63a1.07 1.07 0 0 1 .37.39 1 1 0 0 1 .15.5v1.28a.39.39 0 0 1-.15.33.35.35 0 0 1-.37 0l-2.85-1.66v1.48c0 .18 0 .28-.15.33a1.15 1.15 0 0 1-.37 0l-1.94-1.11a1.15 1.15 0 0 1-.37-.39 1 1 0 0 1-.15-.48v-1.46l-2.82-1.63a1 1 0 0 1-.35-.39.89.89 0 0 1-.15-.5v-1.37c0-.17 0-.28.15-.33a.32.32 0 0 1 .35 0l2.82 1.64v-.85l-2.82-1.63a1 1 0 0 1-.35-.37.89.89 0 0 1-.15-.5v-1.39c0-.18 0-.29.15-.33a.36.36 0 0 1 .35 0l2 1.17-3.87-10.3a.76.76 0 0 1 0-.3.31.31 0 0 1 .13-.28.24.24 0 0 1 .28 0l1.94 1.1a1.76 1.76 0 0 1 .65.85l3.22 8.41 3.21-4.69a.47.47 0 0 1 .65 0l1.92 1.11a.79.79 0 0 1 .3.3.84.84 0 0 1 .13.44 1 1 0 0 1-.26.23Zm-4.54-99.39c-.44-.48-1-1.06-1.52-1.78l-1.13-1.35a5.2 5.2 0 0 0-.94-.74 1.06 1.06 0 0 0-1-.19 1.41 1.41 0 0 0-.52.87.37.37 0 0 1 0 .21.28.28 0 0 1-.28 0l-1.61-.93a.63.63 0 0 1-.28-.28.64.64 0 0 1-.11-.4 3.09 3.09 0 0 1 .67-2.17 1.7 1.7 0 0 1 1.7-.43c0-.53-.08-1-.15-1.57a5 5 0 0 0-.13-1.09l-1.59-.93a.83.83 0 0 1-.37-.37 1.06 1.06 0 0 1-.13-.5v-1.33c0-.17 0-.28.13-.32a.4.4 0 0 1 .37 0l1.17.67v-1.48c0-1.91.46-3.17 1.39-3.76s2.18-.34 4 .65a11.63 11.63 0 0 1 2.92 2.4 10.63 10.63 0 0 1 1.93 3.06 9.75 9.75 0 0 1 .72 3.28.31.31 0 0 1-.13.28.32.32 0 0 1-.33 0l-2-1.15a1.49 1.49 0 0 1-.63-1 5.4 5.4 0 0 0-2.48-4.07c-.78-.45-1.36-.5-1.76 0a3.08 3.08 0 0 0-.58 2.18 11.37 11.37 0 0 0 0 1.43l3.58 2.07a.94.94 0 0 1 .35.39.8.8 0 0 1 .15.47v1.4c0 .18 0 .28-.15.33a.36.36 0 0 1-.35 0l-3.43-2a26.23 26.23 0 0 1 .19 2.65 6.87 6.87 0 0 1 .92.87q.49.57.93 1.17c.37.48.68.85.94 1.14a3.34 3.34 0 0 0 .87.71 1.21 1.21 0 0 0 1.13.22 1.36 1.36 0 0 0 .58-.91.83.83 0 0 1 .13-.18h.26l1.46.85a.89.89 0 0 1 .31.3.77.77 0 0 1 0 .37 3.38 3.38 0 0 1-.53 2.05 1.69 1.69 0 0 1-1.3.74 3.2 3.2 0 0 1-1.78-.5 7.8 7.8 0 0 1-1.74-1.33Zm6.52 27a.64.64 0 0 1 0 .43 3 3 0 0 1-.78 2.18 2.66 2.66 0 0 1-2.18.65 7.91 7.91 0 0 1-3.28-1.18 12.56 12.56 0 0 1-4.35-3.91 11.49 11.49 0 0 1-1.84-5.26l-1.37-.78a1 1 0 0 1-.35-.37.89.89 0 0 1-.15-.5v-1.39a.33.33 0 0 1 .5-.35l1.3.74v-.93l-1.3-.74a1.09 1.09 0 0 1-.35-.39.83.83 0 0 1-.15-.48v-1.42c0-.17 0-.28.15-.32a.43.43 0 0 1 .35 0l1.37.8c.17-1.74.78-2.78 1.82-3.15a5.3 5.3 0 0 1 4.35 1 14.78 14.78 0 0 1 3.28 2.61 12.24 12.24 0 0 1 2.18 3.15 8 8 0 0 1 .78 3.06.26.26 0 0 1-.13.26.34.34 0 0 1-.31 0l-2-1.17a1.06 1.06 0 0 1-.39-.37 1.69 1.69 0 0 1-.24-.61 5.86 5.86 0 0 0-1.09-2.41 7.11 7.11 0 0 0-2-1.72c-1.74-1-2.74-.63-3 1.13l3.46 2a1.45 1.45 0 0 1 .37.37 1.28 1.28 0 0 1 .13.5v1.39c0 .18 0 .29-.16.33a.34.34 0 0 1-.34 0l-3.55-2v.91l3.55 2a1.45 1.45 0 0 1 .37.37 1.09 1.09 0 0 1 .13.5v1.39a.4.4 0 0 1-.13.33h-.37l-3.46-2a5.89 5.89 0 0 0 3 4.58 3.49 3.49 0 0 0 2 .64c.52 0 .89-.46 1.09-1.16a.36.36 0 0 1 .24-.34.54.54 0 0 1 .39.1l2 1.18a.78.78 0 0 1 .22.37Zm-47.69 55.36a.83.83 0 0 1 .13.43 2.68 2.68 0 0 1-.71 1.89 2.56 2.56 0 0 1-2.18.52 8.78 8.78 0 0 1-3.24-1.21 11 11 0 0 1-2.71-2.18 10 10 0 0 1-1.89-2.78 7 7 0 0 1-.68-2.93 3.54 3.54 0 0 1 .24-1.37l-.46-.24a1.09 1.09 0 0 1-.34-.37 1 1 0 0 1-.16-.5v-.65c0-.18 0-.31.16-.35a.34.34 0 0 1 .34 0l1.77 1a5 5 0 0 1 1.45 0l-3.22-1.85a1 1 0 0 1-.34-.37 1 1 0 0 1-.16-.5v-.65a.39.39 0 0 1 .16-.35.34.34 0 0 1 .34 0l7.07 4.07a1.28 1.28 0 0 0 .74-.35 1.42 1.42 0 0 0 .24-.87 3.12 3.12 0 0 0-.55-1.78 4.17 4.17 0 0 0-1.5-1.39 3.1 3.1 0 0 0-1.82-.55 1 1 0 0 0-.92.81c0 .21-.32.24-.63 0l-2-1.16a.78.78 0 0 1-.31-.34.9.9 0 0 1-.13-.42 2.16 2.16 0 0 1 .7-1.69 2.71 2.71 0 0 1 2-.57 6.91 6.91 0 0 1 3.1 1.09 10 10 0 0 1 2.52 2 9.7 9.7 0 0 1 1.63 2.61 7.27 7.27 0 0 1 .57 2.68 2.89 2.89 0 0 1-.43 1.69l.71.41a1 1 0 0 1 .5.87v.65a.4.4 0 0 1-.13.33h-.37l-2.69-1.56a10.84 10.84 0 0 1-1.7-.22h-.24l4.63 2.67a.83.83 0 0 1 .37.37.89.89 0 0 1 .13.5v.63a.39.39 0 0 1-.13.35.4.4 0 0 1-.37 0l-7.74-4.48a1.26 1.26 0 0 0-.36 1.09 3.5 3.5 0 0 0 .65 2 5.65 5.65 0 0 0 1.87 1.67 3.72 3.72 0 0 0 2.17.68 1.22 1.22 0 0 0 1-.81c.13-.21.35-.26.63 0l1.91 1.09a.79.79 0 0 1 .13.33Zm-7-108a1.16 1.16 0 0 1-.15-.5v-1.7a12.79 12.79 0 0 1-2.58-2.35 10.05 10.05 0 0 1-1.63-2.58 7.12 7.12 0 0 1-.61-2.44.23.23 0 0 1 .15-.26.36.36 0 0 1 .32 0l1.87 1.11a1 1 0 0 1 .4.33 1.83 1.83 0 0 1 .26.5 5.25 5.25 0 0 0 1 1.93 6.86 6.86 0 0 0 2 1.74 3.82 3.82 0 0 0 2.17.7c.5 0 .74-.48.74-1.13a2.52 2.52 0 0 0-.37-1.31 8 8 0 0 0-1.13-1.41l-2.17-2.17a18.77 18.77 0 0 1-3.63-3.87 6.78 6.78 0 0 1-1.16-3.85 2.52 2.52 0 0 1 1.18-2.48 3.84 3.84 0 0 1 3.24.26v-1.61a.34.34 0 0 1 .52-.34l1.28.74a.86.86 0 0 1 .37.36 1.16 1.16 0 0 1 .15.5v1.72a12.3 12.3 0 0 1 2.33 2.17 11.76 11.76 0 0 1 1.5 2.5 6.84 6.84 0 0 1 .54 2.18c0 .15 0 .24-.13.28a.32.32 0 0 1-.3 0l-2-1.15a1.39 1.39 0 0 1-.61-.78 4 4 0 0 0-.83-1.79 5.6 5.6 0 0 0-1.76-1.52 2.84 2.84 0 0 0-1.8-.54c-.44 0-.65.43-.65 1.09a2.51 2.51 0 0 0 .32 1.28 6.65 6.65 0 0 0 1 1.37c.47.5 1.17 1.13 2.06 1.91a30 30 0 0 1 3 2.78 9.51 9.51 0 0 1 1.63 2.48 6.6 6.6 0 0 1 .52 2.63 2.61 2.61 0 0 1-1.31 2.63 4.32 4.32 0 0 1-3.52-.48v1.7a.32.32 0 0 1-.15.32h-.37l-1.28-.76a.84.84 0 0 1-.68-.19Zm7.31 14.41-4.13 5.8 2 1.17a.9.9 0 0 1 .37.4.8.8 0 0 1 .15.47v1.42c0 .15 0 .26-.15.3a.32.32 0 0 1-.37 0l-2.83-1.63v.85l2.83 1.63a.87.87 0 0 1 .37.39.89.89 0 0 1 .15.5V529a.32.32 0 0 1-.15.32h-.37l-2.83-1.63v1.48a.33.33 0 0 1-.15.33.4.4 0 0 1-.37 0l-1.93-1.11a1.12 1.12 0 0 1-.39-.39 1 1 0 0 1-.13-.48V526l-2.85-1.63a1 1 0 0 1-.35-.39 1.21 1.21 0 0 1-.15-.5v-1.39a.3.3 0 0 1 .21-.37.29.29 0 0 1 .29.07l2.85 1.65v-.85l-2.85-1.63a1.26 1.26 0 0 1-.5-.87v-1.39a.3.3 0 0 1 .21-.37.29.29 0 0 1 .29.07l2 1.17-3.82-10.39a.76.76 0 0 1 0-.3v-.29a.32.32 0 0 1 .3 0l1.91 1.11a1.56 1.56 0 0 1 .66.83l3.21 8.43 3.24-4.72c.16-.2.38-.2.65 0l1.89 1.09a.76.76 0 0 1 .31.33.72.72 0 0 1 .15.43 1.42 1.42 0 0 1 0 .2Zm-4.55 41.82c-.45-.46-1-1.07-1.54-1.77s-.85-1-1.13-1.34a3.66 3.66 0 0 0-.93-.74c-.44-.26-.79-.33-1-.2a1.3 1.3 0 0 0-.5.87.39.39 0 0 1-.13.2h-.26l-1.63-.94a.83.83 0 0 1-.29-.3.86.86 0 0 1 0-.39 3.18 3.18 0 0 1 .68-2.18 1.73 1.73 0 0 1 1.69-.43 7.21 7.21 0 0 0-.13-1.59 7.78 7.78 0 0 1-.15-1.08l-1.59-.92a1 1 0 0 1-.35-.37 1 1 0 0 1-.15-.5v-1.34a.39.39 0 0 1 .15-.35.36.36 0 0 1 .35 0l1.18.67V544a4.17 4.17 0 0 1 1.39-3.76c.93-.56 2.17-.37 4 .66a10.72 10.72 0 0 1 2.93 2.39 11.09 11.09 0 0 1 1.92 3 9 9 0 0 1 .71 3.28c0 .15 0 .24-.13.28s-.17 0-.3 0l-2-1.17a1.41 1.41 0 0 1-.63-.93 5.42 5.42 0 0 0-2.48-4.09c-.78-.46-1.37-.48-1.76 0a3.13 3.13 0 0 0-.59 2.17v1.46l3.59 2.06a1.09 1.09 0 0 1 .37.37 1.28 1.28 0 0 1 .13.5v1.35a.41.41 0 0 1-.13.33.4.4 0 0 1-.37 0l-3.42-2c.11 1.2.17 2.09.2 2.67a8 8 0 0 1 .89.85c.26.3.59.7 1 1.17s.67.87.91 1.16a4.58 4.58 0 0 0 .87.71c.5.29.87.35 1.13.2a1.47 1.47 0 0 0 .61-.89.27.27 0 0 1 .13-.18.25.25 0 0 1 .24 0l1.45.85a.77.77 0 0 1 .31.31 1 1 0 0 1 .11.39 3.51 3.51 0 0 1-.55 2 1.66 1.66 0 0 1-1.3.74 3.33 3.33 0 0 1-1.76-.5 6.83 6.83 0 0 1-1.93-1.3Zm6.16 27a.76.76 0 0 1 .13.41 3.24 3.24 0 0 1-.81 2.18 2.65 2.65 0 0 1-2.17.65 7.75 7.75 0 0 1-3.28-1.2 12.11 12.11 0 0 1-4.35-3.91 11.28 11.28 0 0 1-1.85-5.24l-1.37-.78a1.31 1.31 0 0 1-.35-.39.84.84 0 0 1-.08-.41v-1.39c0-.18 0-.31.15-.35a.43.43 0 0 1 .35 0l1.3.76v-.91l-1.3-.76a1 1 0 0 1-.35-.37.91.91 0 0 1-.15-.5v-1.39c0-.18 0-.29.15-.33a.32.32 0 0 1 .35 0l1.37.78c.19-1.72.8-2.76 1.84-3.15a5.37 5.37 0 0 1 4.35 1 13.15 13.15 0 0 1 3.28 2.61 12.24 12.24 0 0 1 2.18 3.15 8 8 0 0 1 .8 3.06.21.21 0 0 1-.15.24.34.34 0 0 1-.31 0l-2-1.17a1.21 1.21 0 0 1-.41-.37 1.75 1.75 0 0 1-.22-.59 6.48 6.48 0 0 0-1.08-2.41 7.3 7.3 0 0 0-2-1.74c-1.74-1-2.74-.61-3 1.15l3.46 2a1 1 0 0 1 .5.87V578a.35.35 0 0 1-.13.33h-.37l-3.54-2v.91l3.54 2a1.3 1.3 0 0 1 .37.37 1.13 1.13 0 0 1 .13.5v1.42a.39.39 0 0 1-.13.32.4.4 0 0 1-.37 0l-3.46-2a6 6 0 0 0 3 4.59 3.41 3.41 0 0 0 2 .61c.5 0 .87-.46 1.08-1.16a.32.32 0 0 1 .22-.32.49.49 0 0 1 .41 0l2 1.19a.85.85 0 0 1 .27.35Z" fill="url(#n)"/><ellipse cx="1342.64" cy="513.05" rx="373.69" ry="298.55" style="isolation:isolate" opacity=".5" fill="url(#o)"/><ellipse cx="1250.61" cy="482.44" rx="296.38" ry="302.29" style="isolation:isolate" opacity=".5" fill="url(#p)"/><g class="monitor"><path d="M1430.15 606.26c0 3.13-2.17 6.52-6.74 9l-64.55 61.62c-8.17 4.72-20.52 5.22-27.6 1.13l-117.37-68.21a8 8 0 0 1-4.74-7.45 4.17 4.17 0 0 0 0 .5v8.87a8.23 8.23 0 0 0 4.76 6.8l117.37 68.21c7.09 4.08 19.43 3.56 27.6-1.16l64.56-61.57c4.54-2.63 6.82-6 6.76-9.15-.05-.55.13-6.39-.05-8.59Z" style="isolation:isolate" opacity=".2" fill="url(#a)"/><path d="m1331.26 679.53-117.37-68.21c-7.06-4.08-6.17-11.23 2-16L1319 555.73c8.17-4.72 20.51-5.22 27.6-1.13l78.92 46.23c7.08 4.08 6.19 11.21-2 15.93L1359 678.38c-8.26 4.71-20.61 5.24-27.69 1.15Z"/><path d="m1331.26 679.36-117.37-68.21a8.21 8.21 0 0 1-4.76-6.8v-8.87c0-3.09 2.32 2.17 6.74-.26L1319 555.57c8.17-4.71 20.51-5.23 27.6-1.15l78.92 46.25c2.37 1.35 4.09-4.34 4.69-2.58.2.61 0 8.69 0 9.37 0 3.17-2.17 6.52-6.76 9.15l-64.55 61.61c-8.21 4.72-20.56 5.22-27.64 1.14Z" fill="url(#q)"/><path d="m1331.26 670.66-117.37-68.22c-7.06-4.09-6.17-11.22 2-15.94L1319 546.86c8.17-4.72 20.51-5.24 27.6-1.15l78.88 46.29c7.08 4.09 6.19 11.21-2 15.93L1359 669.51c-8.26 4.72-20.61 5.24-27.69 1.15Z" fill="url(#b)"/><path d="M1422.41 616.41 1357.86 678c-8.17 4.72-20.52 5.24-27.6 1.15L1212.89 611a8.45 8.45 0 0 1-4.72-6.26c-.37 2.89 1.18 5.69 4.72 7.74l117.37 68.22c7.08 4.09 19.43 3.57 27.6-1.15l64.55-61.62c4.79-2.76 7-6.35 6.72-9.65-.37 2.83-2.63 5.79-6.72 8.13Z" style="isolation:isolate" opacity=".6" fill="url(#c)"/><path d="m1444.66 711-288.4-166.66c-14.76-8.52-26.71-31.37-26.71-51V272.72c0-19.56 12-28.71 26.71-20.19l288.4 166.69c14.76 8.52 26.72 31.36 26.72 51v220.62c.04 19.67-11.91 28.71-26.72 20.16Z" fill="url(#r)"/><path d="m1448.16 695.66-284.4-164.29c-11.87-7.54-19.21-22.6-19.21-38v-222.1a4.75 4.75 0 0 1 7.13-4.07l.82.48 284.73 164.51c14.13 8.15 19.21 22.63 19.21 38v221.45a5.11 5.11 0 0 1-5.24 5 5.21 5.21 0 0 1-2.41-.66Z" fill="url(#s)"/><path d="m1437.21 432.19-284.73-164.51-.83-.48a4.73 4.73 0 0 0-7.12 4.07v222.06c0 15.43 7.34 30.43 19.21 38l284.4 164.29.61.37a5.12 5.12 0 0 0 7-1.94 5.17 5.17 0 0 0 .66-2.4V470.23c.01-15.5-5.07-29.89-19.2-38.04Zm16.15 259.45a2.19 2.19 0 0 1-2.18 2.18 2 2 0 0 1-1-.29l-284.9-164.75c-10.71-6.82-17.71-20.75-17.71-35.45V271.27a1.75 1.75 0 0 1 1.74-1.74 1.55 1.55 0 0 1 .86.26l285.56 165c14.63 8.43 17.71 23.91 17.71 35.43Z" fill="#fff"/><path d="M1475.81 669.09c8.13 19.78 1 41.45-15.91 48.4s-37.23-3.45-45.36-23.21-1-41.45 15.93-48.38 37.21 3.5 45.34 23.19Z" fill="url(#t)"/><path d="m1452.27 415.2-288.44-166.69c-5.85-3.37-11.24-4-15.63-2.28-.57.22-8 4.17-8.54 4.45 4.56-2.17 10.32-1.8 16.62 1.83l288.38 166.71c14.76 8.52 26.72 31.36 26.72 51v220.62c0 12.28-4.66 20.41-11.74 22.71a4.3 4.3 0 0 0 2.32-.78c.35-.2 8.42-4.76 8.7-5 5.08-3.56 8.24-10.87 8.24-21V466.21c.08-19.65-11.87-42.49-26.63-51Z" fill="url(#u)"/><path d="M1446 418.56 1157.54 251.9c-6.06-3.5-11.62-4-16.08-2.17a19.68 19.68 0 0 1 12.87 3l288.46 166.68c14.74 8.5 26.69 31.35 26.69 51v220.65c0 11.6-4.17 19.56-10.6 22.23 8.24-1.3 13.82-9.76 13.82-23.19V469.6c0-19.67-12-42.52-26.71-51Z" style="isolation:isolate" opacity=".6" fill="url(#v)"/><path d="M1493.85 429c8.13 19.77 2.17 40.94-13.24 47.29s-34.53-4.54-42.66-24.3-2.18-41 13.23-47.29 34.56 4.52 42.67 24.3Z" fill="url(#w)"/><path d="M1361 669.09a23.91 23.91 0 1 1-23.91-23.91 23.91 23.91 0 0 1 23.91 23.91Z" fill="url(#x)"/><path d="M1442.87 418.29 1154.41 251.6l-.81 1.37 288.47 166.69c14.5 8.36 26.3 30.95 26.3 50.33V690.6h1.63V470c0-19.89-12.19-43-27.13-51.71Z" fill="url(#d)"/><path d="m1421.87 617.1-64.49 61.53c-7.93 4.52-19.91 5-26.73 1.09l-67.86-39.43c-.2.49-.41 1-.63 1.46l67.69 39.34a25.16 25.16 0 0 0 12.36 2.85 33 33 0 0 0 16-4l64.79-61.69Z" fill="url(#y)"/><path d="M1270.44 319.74c22.69 55.25-2 117.76-55.25 139.62s-114.79-5.17-137.48-60.42 2-117.76 55.25-139.65 114.76 5.2 137.48 60.45Z" fill="url(#z)"/><path d="M1165.08 259.6a23.91 23.91 0 1 1-23.91-23.91 23.92 23.92 0 0 1 23.91 23.91Z" fill="url(#A)"/></g><g class="cart"><path d="M1275 714.7a35.79 35.79 0 0 1-18 31l-5.74 3.28-109.86-63.44 1.47-.87a44.27 44.27 0 0 0 22.17-38.3v-.81c0-16.06-8.45-13-8.45 0v.81a35.82 35.82 0 0 1-17.91 31l-144.8 83.27a17.23 17.23 0 0 0 0 29.88l81.85 46.78a38.39 38.39 0 0 0 38 0l147.45-84.18a44.22 44.22 0 0 0 22.28-38.36c0-15.68-8.43-12.68-8.43 0Zm-83.55 22.59-11.22 6.52-35.23-20.39 11.22-6.52Zm-31.06-22.85 11.22-6.52 35.25 20.37-11.22 6.52Zm-77.07 45.23 11.23-6.52 35.26 20.39-11.24 6.52Zm31 22.85-11.27 6.48-35.25-20.37 11.22-6.52Zm-15.67-31.89 11.22-6.52 35.27 20.37-11.26 6.52Zm15.41-9 11.24-6.52 35.25 20.37-11.26 6.52Zm15.43-9 11.22-6.52 35.25 20.39-11.23 6.52Zm11.2-11.5-30.43-17.63 11.34-6.52 30.4 17.46Zm-4.18 2.48-11.23 6.52-30.52-17.67 11.32-6.52Zm-15.43 9-11.21 6.52-30.87-17.86 11.34-6.52Zm-15.32 9.06-11.22 6.52-31-17.91 11.32-6.52Zm-15.35 9-11.21 6.52-31.15-18 11.35-6.52Zm-15.41 9.05-11.21 6.52-31.37-18.09 11.33-6.52Zm-15.41 9-11.21 6.52-31.47-18.19 11.34-6.52Zm4.2 2.43 35.21 20.47-11.22 6.52-35.25-20.36Zm39.47 22.8 34.41 19.89-11.37 6.52-34.3-19.76Zm4.19-2.45 11.22-6.52 34.62 20-11.36 6.52Zm15.41-9.07 11.22-6.52 34.77 20.15-11.36 6.52Zm15.41-9 11.22-6.52 35.06 20.28-11.37 6.52Zm15.41-9 11.22-6.52 35.27 20.39-11.36 6.52Zm15.41-9 11.22-6.52 35.51 20.52-11.38 6.52Zm15.41-9.07 11.22-6.52 35.73 20.65-11.45 6.44Zm15.41-9 11.22-6.52 36 20.78-11.47 6.38Zm-32.42-31.82-11.24 6.52-30.32-17.51 11.32-6.53Zm-57.94 124.36a29.86 29.86 0 0 1-29.56 0l-81.87-46.75a8.7 8.7 0 0 1 0-15.22l14.47-8.34 109.41 63.2Z" style="isolation:isolate" fill="#a9a9a9" opacity=".2"/><g opacity=".2"><path d="M1143.87 835.09c0-3.86 3.57-3.89 1.39-5.19l-7.26-4a8.7 8.7 0 0 0-8.69.93 27.25 27.25 0 0 0-12.32 21.3c0 1.29 5 2.18 7.17 3.5Z" fill="url(#e)"/><path d="M1148.87 837.92c0-7.83-5.52-11-12.34-7a27.18 27.18 0 0 0-12.33 21.28Z" fill="url(#f)"/><path d="M1142.29 841.72c0-3.65-2.59-5.13-5.76-3.28a12.68 12.68 0 0 0-5.76 9.91Z" fill="url(#g)"/><path d="M1123.59 851.87a27.23 27.23 0 0 1 12.35-21.3 8.91 8.91 0 0 1 8.43-1A9.62 9.62 0 0 0 1137 831a27.22 27.22 0 0 0-12.34 21.28Z" fill="url(#B)"/></g><g opacity=".2"><path d="M1022.4 766.06c0-3.87 3.56-3.89 1.37-5.19l-7.29-4a8.83 8.83 0 0 0-8.69.95 27.22 27.22 0 0 0-12.34 21.28c0 1.31 5.06 2.18 7.19 3.5Z" fill="url(#C)"/><path d="M1027.35 768.89c0-7.8-5.52-10.87-12.34-7a27.2 27.2 0 0 0-12.35 21.28Z" fill="url(#D)"/><path d="M1020.83 772.69c0-3.63-2.59-5.1-5.76-3.28a12.73 12.73 0 0 0-5.76 9.93Z" fill="url(#E)"/><path d="M1002.12 782.93a27.19 27.19 0 0 1 12.34-21.28 8.93 8.93 0 0 1 8.44-1 9.82 9.82 0 0 0-7.37 1.45 27.22 27.22 0 0 0-12.35 21.28Z" fill="url(#i)"/></g><g opacity=".2"><path d="m1189.43 649.72-173.29 104.95a14.21 14.21 0 0 0-7.74 13.05 14.48 14.48 0 0 0 1.72 6.06 22.44 22.44 0 0 0 8.45 8.3l85.07 49.1a37.12 37.12 0 0 0 17.17 4.57 29.39 29.39 0 0 0 14.26-2.87c.39 0 11.52-6.52 11.8-6.74l162.54-98.37a14 14 0 0 0 7.67-13 16.21 16.21 0 0 0-1-4.35 21.75 21.75 0 0 0-9.36-10.11l-85.71-49.47a33 33 0 0 0-3.67-1.82 36.29 36.29 0 0 0-13.61-2.7 28.24 28.24 0 0 0-14.34 3.44Z" style="isolation:isolate" opacity=".091"/><path d="m1186.3 652.19-170 102.75a13 13 0 0 0-7.19 12.71 15 15 0 0 0 1.93 5.78 24.47 24.47 0 0 0 8.43 7.94l83.23 48a39.21 39.21 0 0 0 16.58 4.93 28.73 28.73 0 0 0 14-2.17c.78 0 11.22-6 11.76-6.28L1305.41 729a12.86 12.86 0 0 0 7-12.87 17.33 17.33 0 0 0-1.15-4.11 24.6 24.6 0 0 0-9.48-9.69l-84.48-48.78a34.68 34.68 0 0 0-3.61-1.8 35.53 35.53 0 0 0-13.37-2.76 27.4 27.4 0 0 0-14.06 3.19Z" style="isolation:isolate" opacity=".182"/><path d="m1183.15 654.69-166.67 100.59a12.13 12.13 0 0 0-6.65 12.48 16.27 16.27 0 0 0 2.18 5.48 27.66 27.66 0 0 0 8.39 7.58l81.39 47c3.63 2.18 11.48 5.15 16.09 5.15a29.24 29.24 0 0 0 13.84-1.63c1.16 0 10.87-5.39 11.72-5.84l158.08-95.42a11.78 11.78 0 0 0 6.52-12.69 19.45 19.45 0 0 0-1.39-3.92c-1.26-2.89-6.18-7.32-9.59-9.28l-83.22-48c-.87-.5-2.63-1.41-3.57-1.83a35.55 35.55 0 0 0-13.15-2.8 27.05 27.05 0 0 0-14 3.19Z" style="isolation:isolate" opacity=".273"/><path d="m1180 657.15-163.41 98.48a11.16 11.16 0 0 0-6.08 12.22 17.13 17.13 0 0 0 2.39 5.19 31.64 31.64 0 0 0 8.37 7.22l79.53 45.92c3.19 1.85 11.56 5.39 15.6 5.39a28.89 28.89 0 0 0 13.63-1c1.54 0 10.58-4.78 11.69-5.43l155.86-93.92a10.87 10.87 0 0 0 5.79-12.54 22.32 22.32 0 0 0-1.59-3.69c-1.17-2.48-6.72-7.15-9.69-8.87l-82-47.36c-.76-.44-2.67-1.44-3.5-1.81a35 35 0 0 0-12.91-2.86 26.42 26.42 0 0 0-13.67 3.06Z" style="isolation:isolate" opacity=".364"/><path d="M1176.89 659.63 1016.79 756c-5 2.87-6.8 7.37-5.54 11.95a18.54 18.54 0 0 0 2.6 4.94 38.57 38.57 0 0 0 8.33 6.84l77.7 44.86c2.72 1.57 11.65 5.61 15.11 5.61a28.77 28.77 0 0 0 13.43-.39c1.93 0 10.26-4.17 11.63-5l153.64-92.44c5.15-3 6.83-7.65 5.18-12.36a29.68 29.68 0 0 0-1.81-3.5c-1.09-2.18-7.24-7-9.8-8.46l-80.79-46.66c-.65-.37-2.74-1.48-3.43-1.78a34.2 34.2 0 0 0-12.7-2.94 26 26 0 0 0-13.45 3Z" style="isolation:isolate" opacity=".455"/><path d="m1173.76 662.11-156.82 94.22c-4.89 2.84-6.52 7.26-5 11.71a20 20 0 0 0 2.83 4.63 46.68 46.68 0 0 0 8.3 6.52L1099 823c2.17 1.32 11.71 5.87 14.6 5.87a29.22 29.22 0 0 0 13.22.21c2.32 0 10-3.58 11.6-4.54l151.43-91c5.11-3 6.52-7.61 4.54-12.19a13.42 13.42 0 0 0-2-3.31c-.61-1.87-7.76-6.82-9.89-8.06l-79.57-46c-.54-.33-2.78-1.52-3.37-1.8a33.72 33.72 0 0 0-12.45-3 24.93 24.93 0 0 0-13.26 2.85Z" style="isolation:isolate" opacity=".545"/><path d="m1170.61 664.58-153.5 92.09c-4.84 2.81-6.25 7.18-4.34 11.46a12.58 12.58 0 0 0 3 4.35c.59 1.21 6.83 5.3 8.26 6.12l74 42.74c1.82 1 11.82 6.08 14.13 6.08a28.77 28.77 0 0 0 13 .85c2.69.11 9.62-3 11.56-4.11L1286 734.68c5.08-2.94 6.3-7.59 3.91-12a14 14 0 0 0-2.17-3.11c-.5-1.48-8.31-6.67-10-7.65l-78.25-45.23c-.43-.24-2.82-1.57-3.3-1.78a33.69 33.69 0 0 0-12.24-3 24.71 24.71 0 0 0-13.32 2.74Z" style="isolation:isolate" opacity=".636"/><path d="m1167.48 667.06-150.21 90c-4.78 2.76-6 7.07-3.89 11.2a12.89 12.89 0 0 0 3.28 4.06 54.93 54.93 0 0 0 8.24 5.78l72.16 41.67c1.37.78 11.89 6.3 13.62 6.3a28.31 28.31 0 0 0 12.81 1.46 30.66 30.66 0 0 0 11.52-3.65l147-88c5-2.93 6-7.54 3.28-11.85a13.85 13.85 0 0 0-2.46-2.89c-.36-1.13-8.84-6.52-10.12-7.26l-77.12-44.51c-.33-.19-2.89-1.63-3.24-1.78a32.89 32.89 0 0 0-12-3.11 23.91 23.91 0 0 0-12.86 2.63Z" style="isolation:isolate" opacity=".727"/><path d="m1164.28 669.54-146.9 87.83c-4.74 2.74-5.76 7-3.35 10.87a13.63 13.63 0 0 0 3.5 3.76 79.38 79.38 0 0 0 8.19 5.41l70.34 40.6c.91.52 12 6.52 13 6.52a27.63 27.63 0 0 0 12.6 2.17 26.86 26.86 0 0 0 11.48-3.21L1277.93 737c5-2.91 5.81-7.52 2.68-11.67a14.38 14.38 0 0 0-2.7-2.7c-.24-.76-9.37-6.34-10.21-6.84l-75.9-43.82-3.17-1.78a32.67 32.67 0 0 0-11.78-3.15 23.4 23.4 0 0 0-12.57 2.54Z" style="isolation:isolate" opacity=".818"/><path d="m1161.2 672.08-143.61 85.64c-4.65 2.69-5.5 6.89-2.78 10.69a13.71 13.71 0 0 0 3.72 3.48c.13.3 7.8 4.85 8.17 5.06l68.49 39.54c.43.26 12 6.78 12.62 6.78a27.94 27.94 0 0 0 12.39 2.7 24 24 0 0 0 11.46-2.79l142.51-85c5-2.89 5.59-7.52 2-11.49a14.36 14.36 0 0 0-2.89-2.5c-.13-.39-9.91-6.2-10.33-6.52l-74.68-43.13-3.11-1.76a31.54 31.54 0 0 0-11.54-3.19 22.69 22.69 0 0 0-12.47 2.54Z" style="isolation:isolate" opacity=".909"/><path d="m1130 822.86 140.32-83.57c6-3.5 5.29-9.61-1.69-13.63l-86.94-50.19c-7-4-17.54-4.48-23.58-1l-140.32 83.58c-6 3.49-5.29 9.58 1.71 13.62l86.94 50.19c6.92 4.04 17.48 4.54 23.56 1Z"/></g><path d="m1192.87 444.83 2.09-3.66 116.84 66.88-2.1 3.66ZM988.55 587.36l-2.13-3.67 197.45-115.13 116.36 66.31-2.08 3.67-114.24-65.12-195.36 113.94Z" fill="#a9a9a9"/><path d="M985.56 557.47h4.23V635h-4.23Z" fill="url(#h)"/><path d="M1001.12 547.34h4.21v78.34h-4.21Z" fill="url(#F)"/><path d="M1016.66 537.22h4.24v79.11h-4.24Z" fill="url(#G)"/><path d="M1032.22 527.09h4.24V607h-4.24Z" fill="url(#H)"/><path d="M1047.76 517h4.24v80.68h-4.24Z" fill="url(#I)"/><path d="M1063.3 506.83h4.22v81.49h-4.22Z" fill="url(#J)"/><path d="M1078.86 496.7h4.22V579h-4.22Z" fill="url(#K)"/><path d="M1094.4 486.57h4.22v83.05h-4.22Z" fill="url(#L)"/><path d="M1110 476.45h4.21v83.83H1110Z" fill="url(#M)"/><path d="M1125.51 466.32h4.24v84.61h-4.24Z" fill="url(#N)"/><path d="M1141.07 456.19h4.24v85.39h-4.24Z" fill="url(#O)"/><path d="M1156.61 446.06h4.24v86.18h-4.24Z" fill="url(#P)"/><path d="M1124.29 677.56a8.68 8.68 0 0 0 3.46 7.85l6.84 4c2.18 1.24.81-1.59 4.18-3.54a27.17 27.17 0 0 0 12.34-21.28c0-3.87 3.59-3.89 1.39-5.2l-7.26-4a8.83 8.83 0 0 0-8.69 1 27.2 27.2 0 0 0-12.26 21.28Z" fill="url(#Q)"/><path d="M1131.44 681.62c0 7.83 5.52 11 12.32 7a27.2 27.2 0 0 0 12.35-21.3c0-7.81-5.52-10.87-12.35-7a27.2 27.2 0 0 0-12.32 21.3Z" fill="url(#R)"/><path d="M1138 677.82c0 3.65 2.59 5.11 5.76 3.28a12.58 12.58 0 0 0 5.76-9.93c0-3.63-2.56-5.11-5.76-3.28a12.73 12.73 0 0 0-5.76 9.93Z" fill="url(#S)"/><path d="M1143.18 660a8.89 8.89 0 0 1 8.45-1 9.7 9.7 0 0 0-7.39 1.43 27.25 27.25 0 0 0-12.34 21.28c0 4.09 1.5 6.89 3.91 8.09-3-.85-5-3.85-5-8.5a27.17 27.17 0 0 1 12.37-21.3Z" fill="url(#T)"/><path d="M1147.31 645.74v29.41l-3.26 2-26-14.33Z" fill="url(#j)"/><path d="M998.92 750.44a8.68 8.68 0 0 0 3.46 7.82s6.76 3.93 6.84 4c2.18 1.26.79-1.59 4.18-3.52a27.22 27.22 0 0 0 12.34-21.3c0-3.87 3.57-3.9 1.39-5.18l-7.25-4a8.7 8.7 0 0 0-8.7 1 27.2 27.2 0 0 0-12.26 21.28Z" fill="url(#U)"/><path d="M1006.07 754.48c0 7.82 5.52 10.87 12.33 7a27.15 27.15 0 0 0 12.34-21.28c0-7.82-5.52-11-12.34-7a27.24 27.24 0 0 0-12.33 21.28Z" fill="url(#V)"/><path d="M1012.64 750.68c0 3.65 2.58 5.12 5.76 3.28a12.68 12.68 0 0 0 5.76-9.91c0-3.66-2.59-5.13-5.76-3.29a12.68 12.68 0 0 0-5.76 9.92Z" fill="url(#W)"/><path d="M1017.81 732.94a8.86 8.86 0 0 1 8.43-1 9.58 9.58 0 0 0-7.36 1.45 27.22 27.22 0 0 0-12.35 21.28c0 4.07 1.5 6.87 3.91 8.06-3-.84-5-3.84-5-8.47a27.23 27.23 0 0 1 12.35-21.28Z" fill="url(#X)"/><path d="M1021.94 718.62V748l-3.26 2-25.95-14.3Z" fill="url(#Y)"/><path d="m1047.5 744.05 123.09-72.22 2.14 3.63-123.09 72.22Zm39.08 23.1 123.66-72.41 2.13 3.64-123.66 72.41Z" fill="#a9a9a9"/><path d="m1132 653.21 2.11-3.65L1252.45 718l-2.11 3.65Z" fill="url(#Z)"/><path d="m1116.61 662.28 2.1-3.65 118.4 68.37-2.11 3.65Z" fill="url(#aa)"/><path d="m1101.38 671.54 2.12-3.65 118.38 68.43-2.12 3.65Z" fill="url(#ab)"/><path d="m1086 680.48 2.1-3.65 118.4 68.41-2.11 3.65Z" fill="url(#ac)"/><path d="m1070.72 689.75 2.11-3.65 118.38 68.43-2.11 3.65Z" fill="url(#ad)"/><path d="m1055.32 698.67 2.11-3.65 118.4 68.41-2.11 3.65Z" fill="url(#ae)"/><path d="m1040 707.77 2.11-3.66 118.39 68.41-2.1 3.65Z" fill="url(#af)"/><path d="m1024.68 716.87 2.12-3.67 118.4 68.41-2.13 3.67Z" fill="url(#ag)"/><path d="m1009.33 726 2.11-3.65 118.4 68.41-2.11 3.65Z" fill="url(#ah)"/><g opacity=".2"><path d="M1268.61 760.09c0-3.87 3.56-3.92 1.39-5.2l-7.26-4a8.68 8.68 0 0 0-8.69 1 27.13 27.13 0 0 0-12.35 21.28c0 1.3 5 2.17 7.2 3.5Z" fill="url(#ai)"/><path d="M1273.52 762.91c0-7.82-5.52-11-12.34-7a27.23 27.23 0 0 0-12.33 21.3Z" fill="url(#aj)"/><path d="M1266.94 766.72c0-3.66-2.57-5.13-5.76-3.29a12.68 12.68 0 0 0-5.76 9.94Z" fill="url(#ak)"/><path d="M1248.24 776.87a27.16 27.16 0 0 1 12.35-21.28 8.86 8.86 0 0 1 8.43-1.05 9.71 9.71 0 0 0-7.37 1.46 27.22 27.22 0 0 0-12.34 21.28Z" fill="url(#v)"/></g><path d="M1242.53 746.37a8.71 8.71 0 0 0 3.45 7.83l6.85 3.95c2.17 1.26.8-1.56 4.17-3.52a27.19 27.19 0 0 0 12.35-21.3c0-3.85 3.59-3.89 1.39-5.17l-7.37-3.91a8.68 8.68 0 0 0-8.69 1 27.16 27.16 0 0 0-12.15 21.17Z" fill="url(#al)"/><path d="M1249.57 750.33c0 7.82 5.52 10.87 12.32 7a27.13 27.13 0 0 0 12.35-21.28c0-7.82-5.52-11-12.35-7a27.23 27.23 0 0 0-12.32 21.28Z" fill="url(#am)"/><path d="M1256.13 746.63c0 3.63 2.59 5.11 5.76 3.26a12.55 12.55 0 0 0 5.76-9.91c0-3.65-2.56-5.13-5.76-3.28a12.7 12.7 0 0 0-5.76 9.93Z" fill="url(#an)"/><path d="M1261.31 728.85a8.9 8.9 0 0 1 8.45-1 9.62 9.62 0 0 0-7.39 1.46 27.19 27.19 0 0 0-12.37 21.23c0 4.07 1.5 6.87 3.91 8.07-3-.83-5-3.83-5-8.48a27.23 27.23 0 0 1 12.4-21.28Z" fill="url(#ao)"/><path d="M1265.44 714.55v29.39l-3.26 2-26-14.32 29.21-17.09Z" fill="url(#ap)"/><path d="M1117.05 819.23a8.68 8.68 0 0 0 3.46 7.84l6.84 4c2.18 1.24.79-1.59 4.18-3.54a27.17 27.17 0 0 0 12.34-21.28c0-3.87 3.57-3.91 1.39-5.2l-7.26-4a8.86 8.86 0 0 0-8.69 1 27.2 27.2 0 0 0-12.26 21.28Z" fill="url(#aq)"/><path d="M1124.2 823.29c0 7.83 5.52 11 12.33 7a27.15 27.15 0 0 0 12.34-21.29c0-7.8-5.52-10.86-12.34-7a27.21 27.21 0 0 0-12.33 21.29Z" fill="url(#ar)"/><path d="M1130.77 819.49c0 3.65 2.58 5.11 5.76 3.28a12.71 12.71 0 0 0 5.76-9.93c0-3.65-2.59-5.11-5.76-3.28a12.7 12.7 0 0 0-5.76 9.93Z" fill="url(#as)"/><path d="M1136 801.71a8.91 8.91 0 0 1 8.43-1 9.79 9.79 0 0 0-7.37 1.45 27.21 27.21 0 0 0-12.34 21.28c0 4.07 1.5 6.87 3.91 8.09-3-.85-5-3.85-5-8.5a27.13 27.13 0 0 1 12.37-21.32Z" fill="url(#at)"/><path d="M1140.07 787.41v29.4l-3.26 2-26-14.33Z" fill="url(#au)"/><path d="M1094.73 810.56a38.26 38.26 0 0 1-19-5L994 758.8a17.22 17.22 0 0 1 0-29.88l144.79-83.27a35.8 35.8 0 0 0 17.91-31v-.8a35.7 35.7 0 0 0-18.45-31.26l-31.47-17.39 4.11-7.39 31.47 17.39a44.22 44.22 0 0 1 22.78 38.65v.8a44.32 44.32 0 0 1-22.17 38.3l-144.83 83.29a8.7 8.7 0 0 0 0 15.22l81.79 46.68a29.86 29.86 0 0 0 29.56 0L1257 714a35.7 35.7 0 0 0 .3-61.85l-32.47-19 4.35-7.3 32.49 19a44.19 44.19 0 0 1-.41 76.51l-147.45 84.18a38.19 38.19 0 0 1-19 5.07Z" fill="#a9a9a9"/><path d="m1110.88 558.76 30.67 17a43.27 43.27 0 0 1 22.32 37.86v.81a43.47 43.47 0 0 1-21.74 37.51l-144.75 83.17a9.66 9.66 0 0 0 0 16.78l81.81 46.75a30.73 30.73 0 0 0 16.61 4 30.42 30.42 0 0 0 13-3.56c.28-.13 2.87-1.59 3.13-1.74l144.43-82.44c.73-.42 2.17-1.28 2.82-1.74a36.59 36.59 0 0 0 16.19-28.69 35.83 35.83 0 0 0-.39-7.17 36.4 36.4 0 0 0-15.43-24.54c-.63-.65-8.39-5.35-9.19-5.83l-23.09-13.41 1.18-5.56.63-1.09 31.71 18.54a43.25 43.25 0 0 1 1.56 73.73c-.63.43-1.93 1.19-2.6 1.58L1113 804.51a37.28 37.28 0 0 1-17.54 4.87h-1.33a37.64 37.64 0 0 1-16.39-4c-.63-.29-1.78-.92-2.37-1.26l-81.27-46.36a16 16 0 0 1-8-11.67 15.19 15.19 0 0 1-.15-3.3 15.82 15.82 0 0 1 4.35-10.09 22.14 22.14 0 0 1 5.17-4.06l143.45-82.47a36.65 36.65 0 0 0 18.21-30.6v-.78c0-1.41 0-2.78-.13-4.17v-.81a36.28 36.28 0 0 0-16.63-26.81c-.58-.57-7.78-4.67-8.52-5.07l-22.6-12.52 1.06-5.54Z" fill="#bebebe"/><path d="m1111 559.71 29.88 16.56a42.36 42.36 0 0 1 21.87 37.13v.8a42.49 42.49 0 0 1-21.26 36.73L996.66 734.2a10.56 10.56 0 0 0 0 18.32l81.81 46.75a31.59 31.59 0 0 0 29.74.83c.54-.24 2.65-1.39 3.17-1.69l144.49-82.6c.48-.26 2.37-1.39 2.83-1.69a37.27 37.27 0 0 0 3.22-60.71 81.75 81.75 0 0 0-9-6.13l-23.11-13.52-1.32-4.93.65-1.09 30.97 18.26a42.32 42.32 0 0 1 .91 72.59c-.41.29-2.17 1.29-2.58 1.55l-146.17 83.44a36.47 36.47 0 0 1-17.39 4.76h-1.32a36.62 36.62 0 0 1-16.24-4.13c-.41-.2-1.91-1-2.33-1.28l-80.7-46.1a15.47 15.47 0 0 1-7.6-15 14.65 14.65 0 0 1 5-9.59 32 32 0 0 1 5.28-3.76l142-81.68a37.44 37.44 0 0 0 18.73-30.23v-5.72a37.18 37.18 0 0 0-15.21-27.45 82.68 82.68 0 0 0-8.31-5.28l-22.56-12.52-1.34-4.82Z" fill="#d4d4d4"/><path d="m1111.05 560.67 29.11 16.13a41.5 41.5 0 0 1 21.38 36.29v.81a41.52 41.52 0 0 1-20.8 36L996 733.11a11.45 11.45 0 0 0-4.26 15.63A11.31 11.31 0 0 0 996 753l81.81 46.75a32.48 32.48 0 0 0 29.77 1.24c.85-.37 2.44-1.22 3.24-1.67l144.54-82.59c.26-.16 2.63-1.53 2.85-1.68a38.32 38.32 0 0 0 18.19-27.58 40.45 40.45 0 0 0 .3-7.13 38.29 38.29 0 0 0-12.43-26.3 53.59 53.59 0 0 0-8.69-6.52L1232.42 634l-3.78-4.35.63-1.08 30.17 17.63a41.47 41.47 0 0 1 .28 71.44l-2.56 1.48-145.63 83.09a35.69 35.69 0 0 1-17.39 4.65h-1.3a35.3 35.3 0 0 1-16.06-4.35 14.68 14.68 0 0 1-2.28-1.26l-80.14-45.79a14.22 14.22 0 0 1-7.24-11.78 13.19 13.19 0 0 1 .2-3.26 14.08 14.08 0 0 1 5.73-9.09c.35-.43 4.92-3.19 5.42-3.48L1139.11 647a38.36 38.36 0 0 0 19-29.71v-.79a34.41 34.41 0 0 0 .11-4.06v-.81a38 38 0 0 0-13.8-28.05 55.06 55.06 0 0 0-8.09-5.53l-22.08-12.12-3.76-4.13Z" fill="#eaeaea"/><path d="M1093.67 805.93a34.9 34.9 0 0 1-17.22-4.57l-81.7-46.69a13.65 13.65 0 0 1 0-23.66l144.78-83.25a39.43 39.43 0 0 0 19.73-34.1v-.78a39.34 39.34 0 0 0-20.26-34.41l-28.25-15.69.63-1.11 28.25 15.69a40.57 40.57 0 0 1 20.93 35.52v.78a40.66 40.66 0 0 1-20.36 35.19l-144.95 83.22a12.35 12.35 0 0 0 0 21.45l81.83 46.8a33.5 33.5 0 0 0 33.15 0l147.51-84.23a39.32 39.32 0 0 0 .35-68.09l-29.45-17.21.65-1.09 29.39 17.17a40.58 40.58 0 0 1-.37 70.29l-147.45 84.18a34.91 34.91 0 0 1-17.19 4.59Z" fill="#fff"/><path d="m1106.58 565.09 4.21-7.33 118.2 68-4.22 7.33Zm53.12-32.79 2.11-3.65 118.39 68.41-2.1 3.65Zm-15.31 8.88 2.11-3.65 118.39 68.41-2.1 3.65Zm-15.31 8.88 2.12-3.67 118.39 68.41-2.12 3.67Zm-15.19 9 2.11-3.65 118.38 68.43-2.11 3.65Zm-15.42 8.73 2.11-3.65L1219 632.57l-2.11 3.65Zm103.11 77.34-118.37-68.4 2.09-3.67 118.39 68.42-2.11 3.65Zm-131.69-63.92 2.11-3.67 119 68.37-2.11 3.67Zm-15.31 8.88 2.11-3.67 119 68.37-2.11 3.67Zm-15.27 9 2.11-3.67 119 68.37-2.11 3.67Zm-17.42 13.08 2.11-3.65 118.39 68.41-2.11 3.65Zm-15.23 9 2.11-3.65 118.38 68.43-2.11 3.65Zm-15.38 8.74 2.1-3.65 118.39 68.41-2.1 3.65Z" fill="#a9a9a9"/><path d="M1077.82 698.86a4.22 4.22 0 0 1-2.17-.54l-81.81-46.76a17.22 17.22 0 0 1 0-29.88l163.47-94 48.51-139.95a40.41 40.41 0 0 1 17.06-21.21l14.32-8.69a4.24 4.24 0 0 1 5.16 6.73 4.12 4.12 0 0 1-.81.48l-14.32 8.7a32.08 32.08 0 0 0-13.5 16.8l-49.45 142.9-166.18 95.63a8.69 8.69 0 0 0 0 15.21l81.81 46.72a4.22 4.22 0 0 1-2.18 7.89Z" fill="#a9a9a9"/><path d="m1172.79 537.48 38.83-114.19 4 1.36-38.83 114.18Z" fill="url(#av)"/><path d="m1186 545.08 38.93-114.16 4 1.36L1190 546.44Z" fill="url(#aw)"/><path d="m1199.16 552.59 38.94-114.15 4 1.37L1203.15 554Z" fill="url(#ax)"/><path d="m1213.91 557.06 38.67-114.24 4 1.36-38.68 114.24Z" fill="url(#ay)"/><path d="m1225.59 567.74 38.89-114.17 4 1.36-38.9 114.17Z" fill="url(#az)"/><path d="m1238.87 575.36 38.83-114.19 4 1.36-38.83 114.19Z" fill="url(#aA)"/><path d="M1252.11 583 1291 468.78l4 1.36-38.9 114.18Z" fill="url(#aB)"/><path d="m1265.36 590.55 38.86-114.17 4 1.36-38.87 114.17Z" fill="url(#aC)"/><path d="m1261.44 483.64-3.35 9.52-21-12.09 3.32-9.38-22.18-12.69-21.87 61.81 65.12 37.56 21.87-62.29-21.91-12.48Z" fill="url(#aD)"/><path d="M1242 359.32a1.71 1.71 0 0 1 .28.91c.41 1.37-1.28 3.58-2.54 4.35l-9.85 6c-.37.21-4 2.5-4.35 2.78a32.78 32.78 0 0 0-12.25 15c-.22.5-.57 1.47-.76 2l-49.28 142.14L997.38 628a9.37 9.37 0 0 0-4.28 11 8.85 8.85 0 0 0 3.06 4.35 50.74 50.74 0 0 0 5.94 4l75.79 43.3c1.41.8 3.28 3.28 2.67 4.73a1.62 1.62 0 0 1 0 .44 2.25 2.25 0 0 1-.24.46 3.08 3.08 0 0 1-.52.5l-.26.15a5.07 5.07 0 0 1-2.52.35 5.34 5.34 0 0 1-2-.66l-80.9-46.14a16.33 16.33 0 0 1 0-28.25l163-93.66 1.78-3.2 46.95-135.88a53.31 53.31 0 0 1 2.89-6.78 39.68 39.68 0 0 1 13.32-14.94c.35-.28 4.11-2.63 4.5-2.87l9.74-6c1.26-.76 4-1.28 5-.29a1.34 1.34 0 0 1 .28.18 1.61 1.61 0 0 1 .42.53Z" fill="#bebebe"/><path d="M1241 359.51a1.16 1.16 0 0 1 .11.91c.28.92-2.4 3.35-3.24 3.85l-9.81 6c-.71.44-3.6 2.17-4.34 2.83a33.52 33.52 0 0 0-11.8 15.21c-.16.33-.61 1.61-.72 2l-49 141.27-165.62 95.23a10.19 10.19 0 0 0-4.92 10.87 9.65 9.65 0 0 0 2.46 4.73 24 24 0 0 0 5.63 4.35l76.07 43.47c.94.52 4 3.2 3.57 4.15a.66.66 0 0 1 0 .44 1.28 1.28 0 0 1-.18.47 1.38 1.38 0 0 1-.52.44h-.28c-.37.28-2-.2-2.44-.2a8.28 8.28 0 0 1-1.91-.76l-79.83-45.64a15.43 15.43 0 0 1 0-26.78L1156.59 529l2.3-2.78 46.93-135.35c.39-1.17 2.17-5.73 2.71-6.8a38.76 38.76 0 0 1 12.63-15.39c.68-.54 3.68-2.45 4.35-2.93l9.69-5.93c.85-.53 4.24-1.83 4.94-1.18a.66.66 0 0 1 .28 0 1.24 1.24 0 0 1 .59.87Z" fill="#d4d4d4"/><path d="M1240 359.73a.8.8 0 0 1 0 .89c.15.43-3.53 3.09-3.94 3.35l-9.8 6a42.84 42.84 0 0 0-4.2 2.89 34.43 34.43 0 0 0-11.34 15.47 19.53 19.53 0 0 1-.7 1.94l-48.74 140.53L996 625.87a11 11 0 0 0-5.37 7.22 12 12 0 0 0-.22 3.63 10.86 10.86 0 0 0 1.87 5.08 16 16 0 0 0 5.3 4.87l76.25 43.58c.48.26 4.65 3.11 4.46 3.59a.66.66 0 0 1 .15.41.85.85 0 0 1-.65.85.81.81 0 0 1-.31 0c-.19.15-2.17-.74-2.32-.74a15.32 15.32 0 0 1-1.83-.87l-78.83-45.06a14.54 14.54 0 0 1 0-25.21l161.81-93.05 2.83-2.34 46.75-134.76c.2-.59 2.17-6.33 2.57-6.85a37.61 37.61 0 0 1 11.93-15.82 46.61 46.61 0 0 1 4.35-3l9.65-5.93c.43-.26 4.47-2.35 4.82-2a.55.55 0 0 1 .31 0 .87.87 0 0 1 .5.28Z" fill="#eaeaea"/><path d="M1076.76 694.21a.81.81 0 0 1-.31 0l-81.7-46.82a13.66 13.66 0 0 1 0-23.67l164.62-94.65 49-141.28a37 37 0 0 1 15.56-19.35l14.32-8.8a.62.62 0 0 1 .33 0 .63.63 0 0 1 .54.31.6.6 0 0 1-.17.84h-.05l-14.32 8.81a35.63 35.63 0 0 0-15 18.67l-49.23 141.64-165 94.9a12.35 12.35 0 0 0 0 21.45l81.71 46.74a.77.77 0 0 1 .3.87.6.6 0 0 1-.6.31Z" fill="#fff"/><path d="M993.05 573.62a16.31 16.31 0 0 1-.69-27.78l104.33-67.37L1201 411.09l118 68.72a6.37 6.37 0 0 1 .26 10.87l-4.58-7.11a2.09 2.09 0 0 0 .06 3.55L1201.25 421l-102.15 65.94-102.16 65.95a7.82 7.82 0 0 0 .33 13.34Z" fill="#a9a9a9"/><path d="m1200.88 412 114.29 66.55a7.71 7.71 0 0 1 3.63 4.76c0 1.26.47 3-.35 3.87l-.2.17a9 9 0 0 1-1 .83l-5.15-6.35c-.46.28-1.13.57-1.13 1.09s-.11.8.35 1.06l-103.66-60.38-8.58-2.5-97.94 63.27-3.06 2L997 551.52a10.53 10.53 0 0 0-1.89 1.56 8.3 8.3 0 0 0-2.18 4.78 8.11 8.11 0 0 0 1.72 5.89 10.29 10.29 0 0 0 .85.9c0 .56-2.35 5.73-2 6.15l-.65 1.13a15 15 0 0 1-5.81-7.39 15.22 15.22 0 0 1-.8-6.52 14.39 14.39 0 0 1 2-6.11 20.66 20.66 0 0 1 6.52-6.89l99-63.95 4-2.58Z" fill="#bebebe"/><path d="m1200.93 412.74 110.59 64.42c1 .57 4 3 4.06 4.13s1.52 2.68 1 3.28a.86.86 0 0 0-.2.18l-1 .76-5.76-5.59c-.3.2-1.32 0-1.32.42s-.63.21-.31.39L1205.43 421H1197l-96.93 62.62-3 1.95-100.15 64.8a16.11 16.11 0 0 0-1.93 1.47 8.65 8.65 0 0 0-2.67 4.35 8.94 8.94 0 0 0 .6 6c.2.35.39.69.61 1 .15 1.13-1.13 5.28-.39 6.11l-.65 1.15a13.92 13.92 0 0 1-5-7.76 14.08 14.08 0 0 1 0-6.52 13.5 13.5 0 0 1 2.76-5.63c.63-1.5 5.63-5.35 7-6.28l97.81-63.19 4-2.43Z" fill="#d4d4d4"/><path d="m1201 413.44 106.89 62.27c.48.28 4.52 3 4.52 3.52s2.57 2.39 2.31 2.69l-.22.15a10.87 10.87 0 0 0-.91.74l-6.37-4.82c-.15 0-1.5-.46-1.48-.28s-1.15-.4-1-.29l-101.53-59.12-8.21 2.7-95.87 62-3 1.91-99.18 64c-.19.13-1.84 1.24-2 1.39a9.9 9.9 0 0 0-3.63 10.15 11.26 11.26 0 0 0 .34 1.17c.24 1.7 0 4.81 1.2 6l-.65 1.15a13.26 13.26 0 0 1-3.55-14.48 12.8 12.8 0 0 1 3.52-5.15 60.31 60.31 0 0 1 7.46-5.67l96.66-62.45 3.86-2.49Z" fill="#eaeaea"/><path d="M992 567.21a12.72 12.72 0 0 1 .48-18 12 12 0 0 1 1.82-1.44l103.35-66.75L1201 414.3l111.81 65.21-.22.13a4.53 4.53 0 0 0-.87.7L1201 415.87l-103 66.47-103 66.53a11.43 11.43 0 0 0-3.38 15.81 12.86 12.86 0 0 0 1 1.38Z" fill="#fff"/><path d="M1230.12 366.6a4.18 4.18 0 0 0 1.69 3.8l123.09 68.75c1.06.61.39-.76 2-1.72a13.23 13.23 0 0 0 6-10.32c0-1.87 1.74-1.89.67-2.52 0 0-123.26-68.77-123.3-68.77a4.32 4.32 0 0 0-4.17.45 13.23 13.23 0 0 0-6 10.33Z" fill="url(#aE)"/><path d="M1256.57 370.16c-1.8 3.13 19.26 18.78 47.06 34.95s51.92 26.71 53.66 23.54-19.24-18.78-47.06-34.95-51.84-26.67-53.66-23.54Z" style="isolation:isolate" opacity=".6" fill="url(#aF)"/><path d="m1111.44 398.09 13.15-3.85 2.55-6.91L1140 552.89l-29.6-25.28Z" fill="url(#k)"/><path d="m1234.36 612-102.81-54.92-4.55-169.75 100.65 58.1Z" fill="url(#aG)"/><path d="m1208.25 630.31-100.65-58.12 3.76-174.1L1212 456.21l-3.74 174.1Z" fill="url(#aH)"/><path d="m1207.71 584.19.54 46.12 28.11-18Z" fill="url(#aI)"/><path d="m1212 456.21 3.54-8 12.15-2.74 8.7 166.84-28.24-27.41Z" fill="url(#aJ)"/><path d="M1163.13 496.22a15.59 15.59 0 0 1-8.56-2.56 33.82 33.82 0 0 1-15.41-28.43v-28.67a1.78 1.78 0 1 1 3.56 0v28.67a30.25 30.25 0 0 0 13.78 25.43 12.12 12.12 0 0 0 18.8-10.19v-23.56a1.79 1.79 0 1 1 3.57 0v23.58a15.79 15.79 0 0 1-15.74 15.76Z" fill="#a9a9a9"/><path d="M1162.46 490.9a15.74 15.74 0 0 1-8.57-2.59 33.81 33.81 0 0 1-15.39-28.41v-28.66a1.79 1.79 0 0 1 3.55-.4 2.67 2.67 0 0 1 0 .4v28.66a30.21 30.21 0 0 0 13.8 25.43 12.16 12.16 0 0 0 18.8-10.19v-23.58a1.78 1.78 0 1 1 3.54-.39 1.27 1.27 0 0 1 0 .39v23.58A15.47 15.47 0 0 1 1170 489a15.85 15.85 0 0 1-7.52 1.94Z" fill="#a9a9a9"/><path d="m1067.56 467.25 16.78-5.8 6.28-7.67 8.15 126.73-32.23-21.51Z" fill="url(#l)"/><path d="m1193.06 635-94.37-54.49-8.18-126.73 94.4 54.49 8.15 126.73Z" fill="url(#aK)"/><path d="m1157.83 612.05.5 43.23L1193 635Z" fill="url(#aL)"/><path d="m1161.85 521.74 7.78-9.71 15.28-3.76 8.15 126.73-34.82-22.32Z" fill="url(#aM)"/><path d="M1158.33 655.28 1064 600.79l3.52-133.54 94.38 54.49Z" fill="url(#aN)"/><path d="M1102.47 508.29c0 2.17-1.55 3.06-3.44 1.95a7.5 7.5 0 0 1-3.41-5.89c0-2.17 1.52-3.06 3.41-2a7.53 7.53 0 0 1 3.44 5.94Zm34.23 19.45c0 2.17-1.52 3-3.41 2a7.6 7.6 0 0 1-3.44-5.92c0-2.17 1.55-3 3.44-1.95a7.55 7.55 0 0 1 3.41 5.87Z" fill="#a9a9a9"/><path d="M1100.6 508.9a7.51 7.51 0 0 1-3.41-5.92 3.68 3.68 0 0 1 .15-1c-1 0-1.72.93-1.72 2.39a7.55 7.55 0 0 0 3.41 5.91c1.55.89 2.83.46 3.26-.91a3 3 0 0 1-1.69-.43Zm34.23 19.45a7.59 7.59 0 0 1-3.41-5.91 3.7 3.7 0 0 1 .15-1.05c-1 0-1.72.94-1.72 2.39a7.6 7.6 0 0 0 3.44 5.92c1.54.89 2.82.45 3.26-.92a3.07 3.07 0 0 1-1.72-.43Z" fill="#a9a9a9"/><path d="M1120.46 567a14.6 14.6 0 0 1-8-2.41 31.66 31.66 0 0 1-14.46-26.66v-26.88a1.68 1.68 0 1 1 3.33-.38 2.41 2.41 0 0 1 0 .38v26.88a28.24 28.24 0 0 0 12.93 23.91 11.41 11.41 0 0 0 17.63-9.54v-22.19a1.67 1.67 0 0 1 3.34 0v22.12a14.81 14.81 0 0 1-14.77 14.77Z" fill="#a9a9a9"/><path d="M1119.86 562a14.67 14.67 0 0 1-8-2.41 31.66 31.66 0 0 1-14.43-26.6v-26.94a1.68 1.68 0 1 1 3.33-.38 2.41 2.41 0 0 1 0 .38V533a28.27 28.27 0 0 0 12.93 23.91 11.39 11.39 0 0 0 17.63-9.55v-22.25a1.67 1.67 0 1 1 3.34 0v22.13a14.78 14.78 0 0 1-14.8 14.76ZM1098 656.93l199.41-116.83 2.13 3.63-199.38 116.84Z" fill="#a9a9a9"/><path d="M1096.53 623.37h4.24v77.55h-4.24Z" fill="url(#aO)"/><path d="M1117.1 691.71h-4.22v-76.23l4.22-2.1v78.33Z" fill="url(#aP)"/><path d="M1129.2 603.36h4.24v79.11h-4.24Z" fill="url(#aQ)"/><path d="M1145.53 593.36h4.23v79.9h-4.23Z" fill="url(#aR)"/><path d="M1161.85 583.34h4.21V664h-4.21Z" fill="url(#aS)"/><path d="M1178.17 573.32h4.22v81.48h-4.22Z" fill="url(#aT)"/><path d="M1194.49 563.32h4.22v82.27h-4.22Z" fill="url(#aU)"/><path d="M1210.84 553.3h4.22v83.05h-4.22Z" fill="url(#aV)"/><path d="M1227.14 543.3h4.24v83.83h-4.24Z" fill="url(#aW)"/><path d="M1243.48 533.28h4.22v84.62h-4.22Z" fill="url(#aX)"/><path d="M1259.81 523.26h4.24v85.4h-4.24Z" fill="url(#aY)"/><path d="M1276.13 513.26h4.22v86.21h-4.22Z" fill="url(#aZ)"/><path d="M1292.5 500.31h4.21v60.25h-4.21Z" fill="url(#ba)"/><path d="M992.73 571.49H997v76.1h-4.24Z" fill="url(#bb)"/><path d="M1005.51 578.64h4.21v76.1h-4.21Z" fill="url(#bc)"/><path d="M1018.27 585.82h4.21v76.09h-4.21Z" fill="url(#bd)"/><path d="M1031 593h4.21v76.09H1031Z" fill="url(#be)"/><path d="M1043.81 600.14h4.19v76.09h-4.23Z" fill="url(#bf)"/><path d="M1056.56 607.31h4.22v76.1h-4.22Z" fill="url(#bg)"/><path d="M1069.32 614.48h4.22v76.1h-4.22Z" fill="url(#bh)"/><path d="M1082.1 621.66h4.22v76.09h-4.22Z" fill="url(#bi)"/><path d="M1096.27 627.44a36.43 36.43 0 0 1-18.27-4.94l-84.9-48.88a16.11 16.11 0 0 1-8.12-13.69c-.16-5.72 8.36-3 8.43-.22a7.76 7.76 0 0 0 3.91 6.52l84.9 48.88a28.25 28.25 0 0 0 29.38-.71l203-130.83c-.6.4 4.35-3.76 4.35-3.76a6.37 6.37 0 0 1 .26 10.87l-203 130.82a37 37 0 0 1-19.94 5.94Z" fill="#a9a9a9"/><path d="M1096.19 626.44a36 36 0 0 1-17.87-4.78l-84.87-48.91a15.21 15.21 0 0 1-7.7-12.93c-.13-5.09 6.52-2.93 6.65-.17a8.69 8.69 0 0 0 4.35 7.34l84.94 48.78a26.86 26.86 0 0 0 26.08.52c1.52 0 155.23-98.55 156.49-99.37l51-33.63a5.2 5.2 0 0 1 2.59 4.17 4.74 4.74 0 0 1-2.17 4.18l-200.07 129a35.83 35.83 0 0 1-19.42 5.8Z" fill="#bebebe"/><path d="M1096.12 625.24a34.94 34.94 0 0 1-17.39-4.67l-84.89-48.9a14.4 14.4 0 0 1-7.24-12.18c-.11-4.47 4.78-2.89 4.87-.13a9.46 9.46 0 0 0 4.8 8.09l84.88 48.9a26.17 26.17 0 0 0 22.64 1.76c3.07 0 107.53-66.29 110.09-67.94l97.66-63.47a4.37 4.37 0 0 1 2 3 3.23 3.23 0 0 1-1.35 2.83l-197.14 127.13a34.74 34.74 0 0 1-18.93 5.58Z" fill="#d4d4d4"/><path d="M1096.06 624.13a34.08 34.08 0 0 1-17-4.54l-84.87-48.9a13.54 13.54 0 0 1-6.81-11.43c0-3.83 3-2.83 3.07 0a10.42 10.42 0 0 0 5.26 8.84l84.91 48.9a26.84 26.84 0 0 0 19.26 3c4.59 0 59.79-34 63.66-36.51l144.32-93.33a4 4 0 0 1 1.46 1.85 1.56 1.56 0 0 1-.57 1.45l-194.28 125.31a33.76 33.76 0 0 1-18.41 5.36Z" fill="#eaeaea"/><path d="M1096 623.05a33.35 33.35 0 0 1-16.52-4.35l-84.88-48.9a12.58 12.58 0 0 1-6.37-10.74c0-3.22 1.19-2.8 1.26 0a11.3 11.3 0 0 0 5.72 9.58l84.79 48.91a31.64 31.64 0 0 0 33.13-.83l191-123.17a7.18 7.18 0 0 0 .91.65l.22.13-191.34 123.41a33 33 0 0 1-17.93 5.31Z" fill="#fff"/><path d="M1094.73 703.34a38.35 38.35 0 0 1-19-5L994 651.56a4.24 4.24 0 1 1 4.19-7.34L1080 691a29.86 29.86 0 0 0 29.56 0l166.21-95 48.12-138.63a40.51 40.51 0 0 1 18.08-21.73l15.35-8.83a4.23 4.23 0 1 1 4.21 7.33l-15.41 8.86a32.08 32.08 0 0 0-14.28 17.26L1307.25 531l-24.58 70.82-169 96.46a38.25 38.25 0 0 1-19 5Z" fill="#a9a9a9"/><path d="M1362.27 428.65a1.88 1.88 0 0 1 .24 1c.39 1.37-1.37 3.52-2.66 4.34l-10.85 6.24c-.35.22-3.94 2.31-4.35 2.57a32.77 32.77 0 0 0-13.24 15.87c-.15.39-.43 1.15-.56 1.54l-24.41 70.29-24.52 70.66-168.68 96.29a37.15 37.15 0 0 1-17.54 4.86h-1.33a37.22 37.22 0 0 1-16.37-4.15c-.6-.3-1.78-.93-2.36-1.28l-81.27-46.42a2.16 2.16 0 0 1-.68-.7 3.3 3.3 0 0 1-.41-3.93l.2-.2c.93-1.35 4.08-1 5.52-.2l80.42 46a31 31 0 0 0 30.47 0l165.66-94.57 1.83-3.29 24.56-70.72 22.1-63.68a54.41 54.41 0 0 1 2.92-6.85 39.4 39.4 0 0 1 14.25-15.48c.35-.28 4.18-2.52 4.57-2.73l10.69-6.16c1.29-.71 4-1.15 5-.13a.87.87 0 0 1 .23.16 2 2 0 0 1 .53.67Z" fill="#bebebe"/><path d="M1361.48 428.76a1 1 0 0 1 0 .91c.26.91-2.47 3.26-3.32 3.74l-10.87 6.24c-.72.41-3.56 2.17-4.19 2.61a33.31 33.31 0 0 0-12.78 16.08 11.2 11.2 0 0 1-.55 1.52l-24.21 69.75-24.47 70.49-168.41 96.13a36.32 36.32 0 0 1-17.38 4.77h-1.3a36.49 36.49 0 0 1-16.21-4.13c-.42-.2-1.94-1-2.33-1.26l-80.68-46.12a1.12 1.12 0 0 1-.54-.76 2.38 2.38 0 0 1 0-2.72l.24-.11c.6-.89 4.47.33 5.43.87l79.15 45.23a31.83 31.83 0 0 0 31.34 0l165.19-94.24 2.37-2.85 24.45-70.46 22-63.47a71.35 71.35 0 0 1 2.76-6.87 38.39 38.39 0 0 1 13.52-16c.69-.55 3.74-2.35 4.5-2.81l10.65-6.1c.87-.5 4.34-1.7 4.95-1a.66.66 0 0 1 .28 0 1.06 1.06 0 0 1 .37.54Z" fill="#d4d4d4"/><path d="M1360.7 428.93a.77.77 0 0 1 0 .89c.13.46-3.59 3-4 3.22l-10.87 6.19c-1.41.82-2.78 1.7-4.11 2.66a34.47 34.47 0 0 0-12.3 16.28c0 .13-.5 1.37-.54 1.5l-24 69.22-24.41 70.34-168.1 96a35.68 35.68 0 0 1-17.38 4.65h-1.33a35.55 35.55 0 0 1-16.06-4.35 15.09 15.09 0 0 1-2.18-1.26l-80.15-45.8a.77.77 0 0 1-.4-.8 1.62 1.62 0 0 1 .24-1.52.71.71 0 0 1 .29 0c.3-.46 4.89 1.67 5.36 1.95l77.84 44.47a32.55 32.55 0 0 0 32.25 0l164.56-93.91 2.91-2.42 24.37-70.2 21.95-63.25c.22-.58 2.17-6.37 2.58-6.89a37.55 37.55 0 0 1 12.78-16.49 44.61 44.61 0 0 1 4.34-2.87l10.61-6.11a19 19 0 0 1 5-1.78h.28a1 1 0 0 1 .52.28Z" fill="#eaeaea"/><path d="M1094.73 698.69a34.77 34.77 0 0 1-17.19-4.55l-81.81-46.75a.63.63 0 0 1-.25-.86.58.58 0 0 1 .54-.32.62.62 0 0 1 .33 0l81.82 46.79a33.45 33.45 0 0 0 33.12 0l167.36-95.64 24.3-69.77 24.34-70a36.84 36.84 0 0 1 16.46-19.87l15.34-8.82a.62.62 0 0 1 .33 0 .59.59 0 0 1 .54.33.62.62 0 0 1-.22.86l-15.34 8.83a35.48 35.48 0 0 0-15.89 19.17l-24.36 70.18-24.37 70.18-167.86 95.7a34.69 34.69 0 0 1-17.17 4.55Z" fill="#fff"/><path d="M1096.27 629.55a38.41 38.41 0 0 1-14.73-2.94 4.51 4.51 0 0 1-2.49-5.89 4.6 4.6 0 0 1 .31-.63l1.89-3.28a4.49 4.49 0 0 1 5.57-1.85 25.73 25.73 0 0 0 20.36-.56 4.47 4.47 0 0 1 5.57 1.74l2 3.06a4.51 4.51 0 0 1-1.35 6.22 5.7 5.7 0 0 1-.54.3 38.36 38.36 0 0 1-16.57 3.83Z" fill="url(#bj)"/><path d="M1112.77 623.55a38.49 38.49 0 0 1-31.23.78 4.48 4.48 0 0 1-2.68-3.09 4.53 4.53 0 0 0 2.68 5.37 38.45 38.45 0 0 0 31.23-.78 4.52 4.52 0 0 0 2.46-5.22 4.66 4.66 0 0 1-2.46 2.94Z" fill="#d4363a"/><path d="M994.12 571.8a3.72 3.72 0 0 1-5.06 1.42 3.48 3.48 0 0 1-.7-.51 18.41 18.41 0 0 1-.65-25.71 3.69 3.69 0 0 1 5.22-.08 3.45 3.45 0 0 1 .56.69l3 4.62a3.9 3.9 0 0 1-.11 4.24 5.5 5.5 0 0 0-.89 3.2 5.77 5.77 0 0 0 1 3.13 3.91 3.91 0 0 1 .35 4.24Z" fill="url(#bk)"/><path d="M989.77 570.77a18.44 18.44 0 0 1-2.77-22.88 18.39 18.39 0 0 0 1.41 24.82 3.72 3.72 0 0 0 5.25-.21 3.79 3.79 0 0 0 .51-.7l.52-.94a3.64 3.64 0 0 1-4.92-.09Z" fill="#d4363a"/><path d="M1353.38 435.39c0 3.8 2.69 5.32 6 3.41a13 13 0 0 0 6-10.32c0-3.79-2.67-5.33-6-3.42a13.23 13.23 0 0 0-6 10.33Z" fill="url(#bl)"/><path d="M1359.07 424.91a4.36 4.36 0 0 1 4.09-.5 4.61 4.61 0 0 0-3.57.72 13 13 0 0 0-6 10.32 4 4 0 0 0 1.89 3.92 3.82 3.82 0 0 1-2.41-4.11 13.25 13.25 0 0 1 6-10.35Z" fill="url(#bm)"/><path d="M1344 443.54a4.22 4.22 0 0 1-2.17-7.89l15.34-8.83a4.23 4.23 0 0 1 4.22 7.33L1346 443a4.1 4.1 0 0 1-2 .54ZM1143.92 433.63c0 2.32-1.63 3.24-3.65 2.17a8.06 8.06 0 0 1-3.66-6.3c0-2.31 1.63-3.24 3.66-2.18a8.08 8.08 0 0 1 3.65 6.31Zm36.51 20.73c0 2.33-1.63 3.26-3.65 2.18a8 8 0 0 1-3.65-6.31c0-2.3 1.63-3.24 3.65-2.17a8 8 0 0 1 3.65 6.3Z" fill="#a9a9a9"/><path d="M1141.94 434.26a8 8 0 0 1-3.65-6.28 3.18 3.18 0 0 1 .17-1.11c-1.11 0-1.85 1-1.85 2.54a8 8 0 0 0 3.66 6.3c1.65 1 3 .48 3.47-1a3.09 3.09 0 0 1-1.8-.45Zm36.51 20.74a8.08 8.08 0 0 1-3.65-6.3 3.49 3.49 0 0 1 .18-1.11c-1.11 0-1.85 1-1.85 2.55a8 8 0 0 0 3.65 6.3c1.65 1 3 .5 3.48-1a3 3 0 0 1-1.81-.44Z" fill="#a9a9a9"/></g></svg>