<svg xmlns="http://www.w3.org/2000/svg" viewBox="0 0 1920 1080" xml:space="preserve" preserveAspectRatio="xMaxYMid meet"><linearGradient id="a" gradientUnits="userSpaceOnUse" x1="1765.869" y1="275.696" x2="1683.926" y2="184.689" gradientTransform="matrix(1 0 0 -1 0 1077.89)"><stop offset="0" stop-color="#2b2b2b"/><stop offset="1" stop-color="#fff" stop-opacity="0"/></linearGradient><path class="shadow shadow-1" d="M1750.8 800.7 1639.6 859l60.2 34.8 111.2-58.3-60.2-34.8z" fill="url(#a)"/><linearGradient id="b" gradientUnits="userSpaceOnUse" x1="1539.369" y1="460.025" x2="1415.716" y2="597.356" gradientTransform="translate(0 236)"><stop offset="0" stop-color="#2b2b2b"/><stop offset="1" stop-color="#fff" stop-opacity="0"/></linearGradient><path class="shadow shadow-2" d="M1538.6 678.7 1427.4 737l60.2 34.7 111.2-58.3-60.2-34.7z" fill="url(#b)"/><linearGradient id="c" gradientUnits="userSpaceOnUse" x1="1451.081" y1="408.662" x2="1327.438" y2="545.982" gradientTransform="translate(0 236)"><stop offset="0" stop-color="#2b2b2b"/><stop offset="1" stop-color="#fff" stop-opacity="0"/></linearGradient><path class="shadow shadow-3" d="m1450.3 627.3-111.2 58.3 60.2 34.7 111.2-58.2-60.2-34.8z" fill="url(#c)"/><linearGradient id="d" gradientUnits="userSpaceOnUse" x1="1313.231" y1="329.312" x2="1189.577" y2="466.643" gradientTransform="translate(0 236)"><stop offset="0" stop-color="#2b2b2b"/><stop offset="1" stop-color="#fff" stop-opacity="0"/></linearGradient><path class="shadow shadow-4" d="m1312.4 548-111.1 58.3 60.2 34.7 111.1-58.3-60.2-34.7z" fill="url(#d)"/><linearGradient id="e" gradientUnits="userSpaceOnUse" x1="1608.736" y1="829.7" x2="1977.605" y2="-454.679" gradientTransform="translate(0 236)"><stop offset="0" stop-color="#1d1d1d"/><stop offset="1" stop-color="#fff"/></linearGradient><path class="arrow arrow-1" d="M1750.9 270.3v530.1l60.5 34.9v-530l43.1 24.9-73.4-151.8-73.3 67.1 43.1 24.8z" fill="url(#e)"/><linearGradient id="f" gradientUnits="userSpaceOnUse" x1="1418.759" y1="674.644" x2="1737.305" y2="-434.511" gradientTransform="translate(0 236)"><stop offset="0" stop-color="#1d1d1d"/><stop offset="1" stop-color="#fff"/></linearGradient><path class="arrow arrow-2" d="M1538.7 236.7v441.6l60.6 35V271.7l43.1 24.9-73.4-151.8-73.4 67 43.1 24.9z" fill="url(#f)"/><linearGradient id="g" gradientUnits="userSpaceOnUse" x1="1217.303" y1="507.138" x2="1479.734" y2="-406.631" gradientTransform="translate(0 236)"><stop offset="0" stop-color="#1d1d1d"/><stop offset="1" stop-color="#fff"/></linearGradient><path class="arrow arrow-3" d="M1312.5 204.6v343l60.6 35v-343l43.1 24.9-73.4-151.8-73.4 67.1 43.1 24.8z" fill="url(#g)"/><path class="dashes" fill="#8e8e8e" d="M1130.4 719.8c-.5 0-.9-.2-1.2-.7-.4-.6-.2-1.5.5-1.8l4.6-2.7c.6-.4 1.5-.2 1.8.5.4.6.2 1.5-.5 1.8l-4.6 2.7c-.1.1-.4.2-.6.2zm11.4-6.9c-.5 0-.9-.2-1.2-.7-.4-.6-.2-1.5.5-1.8l4.6-2.7c.6-.4 1.5-.2 1.8.5.4.6.2 1.5-.5 1.8l-4.6 2.7c-.1.2-.3.2-.6.2zm11.5-6.8c-.5 0-.9-.2-1.2-.7-.4-.6-.2-1.5.5-1.8l4.6-2.7c.6-.4 1.5-.2 1.8.5.4.6.2 1.5-.5 1.8l-4.6 2.7c-.1.2-.4.2-.6.2zm11.5-6.8c-.5 0-.9-.2-1.2-.7-.4-.6-.2-1.5.5-1.8l4.6-2.7c.6-.4 1.5-.2 1.8.5.4.6.2 1.5-.5 1.8l-4.6 2.7c-.2.2-.4.2-.6.2zm11.4-6.8c-.5 0-.9-.2-1.2-.7-.4-.6-.2-1.5.5-1.8l4.6-2.7c.6-.4 1.5-.2 1.8.5s.2 1.5-.5 1.8l-4.6 2.7c-.1.1-.3.2-.6.2zm11.5-6.8c-.5 0-.9-.2-1.2-.7-.4-.6-.2-1.5.5-1.8l4.6-2.7c.6-.4 1.5-.2 1.8.5.4.6.2 1.5-.5 1.8l-4.6 2.7c-.1.1-.4.2-.6.2zm11.4-6.8c-.5 0-.9-.2-1.2-.7-.4-.6-.2-1.5.5-1.8l4.6-2.7c.6-.4 1.5-.2 1.8.5.4.6.2 1.5-.5 1.8l-4.6 2.7c-.1.1-.3.2-.6.2zm11.5-6.8c-.5 0-.9-.2-1.2-.7-.4-.6-.2-1.5.5-1.8l4.6-2.7c.6-.4 1.5-.2 1.8.5.4.6.2 1.5-.5 1.8l-4.6 2.7c-.1.1-.4.2-.6.2zm11.5-6.8c-.5 0-.9-.2-1.2-.7-.4-.6-.2-1.5.5-1.8l4.6-2.7c.6-.4 1.5-.2 1.8.5.4.6.2 1.5-.5 1.8l-4.6 2.7c-.2.1-.4.2-.6.2zm11.4-6.9c-.5 0-.9-.2-1.2-.7-.4-.6-.2-1.5.5-1.8l4.6-2.7c.6-.4 1.5-.2 1.8.5.4.6.2 1.5-.5 1.8l-4.6 2.7c-.1.2-.4.2-.6.2zm11.5-6.8c-.5 0-.9-.2-1.2-.7-.4-.6-.2-1.5.5-1.8l4.6-2.7c.6-.4 1.5-.2 1.8.5.4.6.2 1.5-.5 1.8l-4.6 2.7c-.2.2-.4.2-.6.2zm-41.1 112.9c-.5 0-.9-.2-1.2-.7-.4-.6-.2-1.5.5-1.8l4.6-2.7c.6-.4 1.5-.2 1.8.5.4.6.2 1.5-.5 1.8l-4.6 2.7c-.1.1-.4.2-.6.2zm11.5-6.9c-.5 0-.9-.2-1.2-.7-.4-.6-.2-1.5.5-1.8l4.6-2.7c.6-.4 1.5-.2 1.8.5.4.6.2 1.5-.5 1.8l-4.6 2.7c-.2.2-.4.2-.6.2zm11.4-6.8c-.5 0-.9-.2-1.2-.7-.4-.6-.2-1.5.5-1.8l4.6-2.7c.6-.4 1.5-.2 1.8.5.4.6.2 1.5-.5 1.8l-4.6 2.7c-.1.2-.3.2-.6.2zm11.5-6.8c-.5 0-.9-.2-1.2-.7-.4-.6-.2-1.5.5-1.8l4.6-2.7c.6-.4 1.5-.2 1.8.5.4.6.2 1.5-.5 1.8l-4.6 2.7c-.1.2-.4.2-.6.2zm11.4-6.8c-.5 0-.9-.2-1.2-.7-.4-.6-.2-1.5.5-1.8l4.6-2.7c.6-.4 1.5-.2 1.8.5.4.6.2 1.5-.5 1.8l-4.6 2.7c-.1.1-.3.2-.6.2zm11.5-6.8c-.5 0-.9-.2-1.2-.7-.4-.6-.2-1.5.5-1.8l4.6-2.7c.6-.4 1.5-.2 1.8.5.4.6.2 1.5-.5 1.8l-4.6 2.7c-.1.1-.4.2-.6.2zm11.5-6.8c-.5 0-.9-.2-1.2-.7-.4-.6-.2-1.5.5-1.8l4.6-2.7c.6-.4 1.5-.2 1.8.5.4.6.2 1.5-.5 1.8l-4.6 2.7c-.2.1-.4.2-.6.2zm11.4-6.8c-.5 0-.9-.2-1.2-.7-.4-.6-.2-1.5.5-1.8l4.6-2.7c.6-.4 1.5-.2 1.8.5.4.6.2 1.5-.5 1.8l-4.6 2.7c-.1.1-.3.2-.6.2zm11.5-6.9c-.5 0-.9-.2-1.2-.7-.4-.6-.2-1.5.5-1.8l4.6-2.7c.6-.4 1.5-.2 1.8.5.4.6.2 1.5-.5 1.8l-4.6 2.7c-.1.2-.4.2-.6.2zm11.4-6.8c-.5 0-.9-.2-1.2-.7-.4-.6-.2-1.5.5-1.8l4.6-2.7c.6-.4 1.5-.2 1.8.5.4.6.2 1.5-.5 1.8l-4.6 2.7c-.1.2-.3.2-.6.2zm11.5-6.8c-.5 0-.9-.2-1.2-.7-.4-.6-.2-1.5.5-1.8l4.6-2.7c.6-.4 1.5-.2 1.8.5.4.6.2 1.5-.5 1.8l-4.6 2.7c-.1.2-.4.2-.6.2zm-52.3 104.3c-.5 0-.9-.2-1.2-.7-.4-.6-.2-1.5.5-1.8l4.6-2.7c.6-.4 1.5-.2 1.8.5.4.6.2 1.5-.5 1.8l-4.6 2.7c-.1.2-.3.2-.6.2zm11.5-6.8c-.5 0-.9-.2-1.2-.7-.4-.6-.2-1.5.5-1.8l4.6-2.7c.6-.4 1.5-.2 1.8.5.4.6.2 1.5-.5 1.8l-4.6 2.7c-.1.2-.4.2-.6.2zm11.4-6.8c-.5 0-.9-.2-1.2-.7-.4-.6-.2-1.5.5-1.8l4.6-2.7c.6-.4 1.5-.2 1.8.5.4.6.2 1.5-.5 1.8l-4.6 2.7c-.1.2-.3.2-.6.2zm11.5-6.8c-.5 0-.9-.2-1.2-.7-.4-.6-.2-1.5.5-1.8l4.6-2.7c.6-.4 1.5-.2 1.8.5.4.6.2 1.5-.5 1.8l-4.6 2.7c-.1.1-.4.2-.6.2zm11.5-6.8c-.5 0-.9-.2-1.2-.7-.4-.6-.2-1.5.5-1.8l4.6-2.7c.6-.4 1.5-.2 1.8.5.4.6.2 1.5-.5 1.8l-4.6 2.7c-.2.1-.4.2-.6.2zm11.4-6.8c-.5 0-.9-.2-1.2-.7-.4-.6-.2-1.5.5-1.8l4.6-2.7c.6-.4 1.5-.2 1.8.5.4.6.2 1.5-.5 1.8l-4.6 2.7c-.1.1-.3.2-.6.2zm11.5-6.8c-.5 0-.9-.2-1.2-.7-.4-.6-.2-1.5.5-1.8l4.6-2.7c.6-.4 1.5-.2 1.8.5.4.6.2 1.5-.5 1.8l-4.6 2.7c-.2.1-.4.2-.6.2zm11.4-6.9c-.5 0-.9-.2-1.2-.7-.4-.6-.2-1.5.5-1.8l4.6-2.7c.6-.4 1.5-.2 1.8.5.4.6.2 1.5-.5 1.8l-4.6 2.7c-.1.2-.3.2-.6.2zm11.5-6.8c-.5 0-.9-.2-1.2-.7-.4-.6-.2-1.5.5-1.8l4.6-2.7c.6-.4 1.5-.2 1.8.5.4.6.2 1.5-.5 1.8l-4.6 2.7c-.1.2-.4.2-.6.2zm11.5-6.8c-.5 0-.9-.2-1.2-.7-.4-.6-.2-1.5.5-1.8l4.6-2.7c.6-.4 1.5-.2 1.8.5.4.6.2 1.5-.5 1.8l-4.6 2.7c-.2.2-.4.2-.6.2zm11.4-6.8c-.5 0-.9-.2-1.2-.7-.4-.6-.2-1.5.5-1.8l4.6-2.7c.6-.4 1.5-.2 1.8.5.4.6.2 1.5-.5 1.8l-4.6 2.7c-.1.1-.4.2-.6.2zm-85.4 82.8c-.5 0-.9-.2-1.2-.7-.4-.6-.2-1.5.5-1.8l4.6-2.7c.6-.4 1.5-.2 1.8.5s.2 1.5-.5 1.8l-4.6 2.7c-.2.1-.4.2-.6.2zm11.4-6.8c-.5 0-.9-.2-1.2-.7-.4-.6-.2-1.5.5-1.8l4.6-2.7c.6-.4 1.5-.2 1.8.5.4.6.2 1.5-.5 1.8l-4.6 2.7c-.1.1-.3.2-.6.2zm11.5-6.8c-.5 0-.9-.2-1.2-.7-.4-.6-.2-1.5.5-1.8l4.6-2.7c.6-.4 1.5-.2 1.8.5s.2 1.5-.5 1.8l-4.6 2.7c-.1.1-.4.2-.6.2zm11.4-6.8c-.5 0-.9-.2-1.2-.7-.4-.6-.2-1.5.5-1.8l4.6-2.7c.6-.4 1.5-.2 1.8.5.4.6.2 1.5-.5 1.8l-4.6 2.7c-.1.1-.3.2-.6.2zm11.5-6.9c-.5 0-.9-.2-1.2-.7-.4-.6-.2-1.5.5-1.8l4.6-2.7c.6-.4 1.5-.2 1.8.5.4.6.2 1.5-.5 1.8l-4.6 2.7c-.1.2-.4.2-.6.2zm11.5-6.8c-.5 0-.9-.2-1.2-.7-.4-.6-.2-1.5.5-1.8l4.6-2.7c.6-.4 1.5-.2 1.8.5.4.6.2 1.5-.5 1.8l-4.6 2.7c-.2.2-.4.2-.6.2zm11.4-6.8c-.5 0-.9-.2-1.2-.7-.4-.6-.2-1.5.5-1.8l4.6-2.7c.6-.4 1.5-.2 1.8.5.4.6.2 1.5-.5 1.8l-4.6 2.7c-.1.2-.3.2-.6.2zm11.5-6.8c-.5 0-.9-.2-1.2-.7-.4-.6-.2-1.5.5-1.8l4.6-2.7c.6-.4 1.5-.2 1.8.5.4.6.2 1.5-.5 1.8l-4.6 2.7c-.1.1-.4.2-.6.2zm11.4-6.8c-.5 0-.9-.2-1.2-.7-.4-.6-.2-1.5.5-1.8l4.6-2.7c.6-.4 1.5-.2 1.8.5.4.6.2 1.5-.5 1.8l-4.6 2.7c-.1.1-.3.2-.6.2zm11.5-6.8c-.5 0-.9-.2-1.2-.7-.4-.6-.2-1.5.5-1.8l4.6-2.7c.6-.4 1.5-.2 1.8.5.4.6.2 1.5-.5 1.8l-4.6 2.7c-.1.1-.4.2-.6.2zm11.5-6.8c-.5 0-.9-.2-1.2-.7-.4-.6-.2-1.5.5-1.8l4.6-2.7c.6-.4 1.5-.2 1.8.5.4.6.2 1.5-.5 1.8l-4.6 2.7c-.2.1-.4.2-.6.2zm-1.1 141.5c-.5 0-.9-.2-1.2-.7-.4-.6-.2-1.5.5-1.8l1.4-.9c.6-.4 1.5-.2 1.8.5.4.6.2 1.5-.5 1.8l-1.4.9c-.1.2-.3.2-.6.2zm8.3-4.9c-.5 0-.9-.2-1.2-.7-.4-.6-.2-1.5.5-1.8l4.6-2.7c.6-.4 1.5-.2 1.8.5.4.6.2 1.5-.5 1.8l-4.6 2.7c-.1.1-.4.2-.6.2zm11.4-6.9c-.5 0-.9-.2-1.2-.7-.4-.6-.2-1.5.5-1.8l4.6-2.7c.6-.4 1.5-.2 1.8.5.4.6.2 1.5-.5 1.8l-4.6 2.7c-.1.1-.3.2-.6.2zm11.5-6.9c-.5 0-.9-.2-1.2-.7-.4-.6-.2-1.5.5-1.8l4.6-2.7c.6-.4 1.5-.2 1.8.5.4.6.2 1.5-.5 1.8l-4.6 2.7c-.2.2-.4.2-.6.2zm11.4-6.8c-.5 0-.9-.2-1.2-.7-.4-.6-.2-1.5.5-1.8l4.6-2.7c.6-.4 1.5-.2 1.8.5.4.6.2 1.5-.5 1.8l-4.6 2.7c-.1.1-.4.2-.6.2zm11.4-6.9c-.5 0-.9-.2-1.2-.7-.4-.6-.2-1.5.5-1.8l4.6-2.7c.6-.4 1.5-.2 1.8.5s.2 1.5-.5 1.8l-4.6 2.7c-.1.1-.4.2-.6.2zm11.4-6.9c-.5 0-.9-.2-1.2-.7-.4-.6-.2-1.5.5-1.8l4.6-2.7c.6-.4 1.5-.2 1.8.5.4.6.2 1.5-.5 1.8l-4.6 2.7c-.1.2-.3.2-.6.2zm11.5-6.8c-.5 0-.9-.2-1.2-.7-.4-.6-.2-1.5.5-1.8l4.6-2.7c.6-.4 1.5-.2 1.8.5.4.6.2 1.5-.5 1.8l-4.6 2.7c-.2.1-.4.2-.6.2zm11.4-6.9c-.5 0-.9-.2-1.2-.7-.4-.6-.2-1.5.5-1.8l4.6-2.7c.6-.4 1.5-.2 1.8.5.4.6.2 1.5-.5 1.8l-4.6 2.7c-.1.1-.4.2-.6.2zm11.4-6.9c-.5 0-.9-.2-1.2-.7-.4-.6-.2-1.5.5-1.8l4.6-2.7c.6-.4 1.5-.2 1.8.5.4.6.2 1.5-.5 1.8l-4.6 2.7c-.1.2-.3.2-.6.2zm11.4-6.8c-.5 0-.9-.2-1.2-.7-.4-.6-.2-1.5.5-1.8l4.6-2.7c.6-.4 1.5-.2 1.8.5.4.6.2 1.5-.5 1.8l-4.6 2.7c-.1.1-.3.2-.6.2zm11.5-6.9c-.5 0-.9-.2-1.2-.7-.4-.6-.2-1.5.5-1.8l4.6-2.7c.6-.4 1.5-.2 1.8.5.4.6.2 1.5-.5 1.8l-4.6 2.7c-.2.2-.4.2-.6.2zm11.4-6.8c-.5 0-.9-.2-1.2-.7-.4-.6-.2-1.5.5-1.8l4.6-2.7c.6-.4 1.5-.2 1.8.5.4.6.2 1.5-.5 1.8l-4.6 2.7c-.1.1-.4.2-.6.2zm11.4-6.9c-.5 0-.9-.2-1.2-.7-.4-.6-.2-1.5.5-1.8l4.6-2.7c.6-.4 1.5-.2 1.8.5.4.6.2 1.5-.5 1.8l-4.6 2.7c-.1.1-.3.2-.6.2zm11.5-6.9c-.5 0-.9-.2-1.2-.7-.4-.6-.2-1.5.5-1.8l4.6-2.7c.6-.4 1.5-.2 1.8.5.4.6.2 1.5-.5 1.8l-4.6 2.7c-.2.2-.4.2-.6.2zm11.4-6.8c-.5 0-.9-.2-1.2-.7-.4-.6-.2-1.5.5-1.8l4.6-2.7c.6-.4 1.5-.2 1.8.5.4.6.2 1.5-.5 1.8l-4.6 2.7c-.1.1-.4.2-.6.2zm11.4-6.9c-.5 0-.9-.2-1.2-.7-.4-.6-.2-1.5.5-1.8l4.6-2.7c.6-.4 1.5-.2 1.8.5.4.6.2 1.5-.5 1.8l-4.6 2.7c-.1.1-.4.2-.6.2zm11.4-6.9c-.5 0-.9-.2-1.2-.7-.4-.6-.2-1.5.5-1.8l4.6-2.7c.6-.4 1.5-.2 1.8.5.4.6.2 1.5-.5 1.8l-4.6 2.7c-.1.2-.3.2-.6.2zm11.5-6.8c-.5 0-.9-.2-1.2-.7-.4-.6-.2-1.5.5-1.8l4.6-2.7c.6-.4 1.5-.2 1.8.5.4.6.2 1.5-.5 1.8l-4.6 2.7c-.2.1-.4.2-.6.2zm11.4-6.9c-.5 0-.9-.2-1.2-.7-.4-.6-.2-1.5.5-1.8l4.6-2.7c.6-.4 1.5-.2 1.8.5.4.6.2 1.5-.5 1.8l-4.6 2.7c-.1.1-.4.2-.6.2zm11.4-6.9c-.5 0-.9-.2-1.2-.7-.4-.6-.2-1.5.5-1.8l4.6-2.7c.6-.4 1.5-.2 1.8.5.4.6.2 1.5-.5 1.8l-4.6 2.7c-.1.2-.3.2-.6.2zm-276.6 98.2c-.5 0-.9-.2-1.2-.7-.4-.6-.2-1.5.5-1.8l4.6-2.7c.6-.4 1.5-.2 1.8.5.4.6.2 1.5-.5 1.8l-4.6 2.7c-.1.1-.4.2-.6.2zm11.4-6.8c-.5 0-.9-.2-1.2-.7-.4-.6-.2-1.5.5-1.8l4.6-2.7c.6-.4 1.5-.2 1.8.5.4.6.2 1.5-.5 1.8l-4.6 2.7c-.1.1-.3.2-.6.2zm11.5-6.8c-.5 0-.9-.2-1.2-.7-.4-.6-.2-1.5.5-1.8l4.6-2.7c.6-.4 1.5-.2 1.8.5.4.6.2 1.5-.5 1.8l-4.6 2.7c-.1.1-.4.2-.6.2zm11.5-6.9c-.5 0-.9-.2-1.2-.7-.4-.6-.2-1.5.5-1.8l4.6-2.7c.6-.4 1.5-.2 1.8.5.4.6.2 1.5-.5 1.8l-4.6 2.7c-.2.2-.4.2-.6.2zm11.4-6.8c-.5 0-.9-.2-1.2-.7-.4-.6-.2-1.5.5-1.8l4.6-2.7c.6-.4 1.5-.2 1.8.5.4.6.2 1.5-.5 1.8l-4.6 2.7c-.1.2-.3.2-.6.2zm11.5-6.8c-.5 0-.9-.2-1.2-.7-.4-.6-.2-1.5.5-1.8l4.6-2.7c.6-.4 1.5-.2 1.8.5.4.6.2 1.5-.5 1.8l-4.6 2.7c-.1.2-.4.2-.6.2zm11.4-6.8c-.5 0-.9-.2-1.2-.7-.4-.6-.2-1.5.5-1.8l4.6-2.7c.6-.4 1.5-.2 1.8.5.4.6.2 1.5-.5 1.8l-4.6 2.7c-.1.1-.3.2-.6.2zm11.5-6.8c-.5 0-.9-.2-1.2-.7-.4-.6-.2-1.5.5-1.8l4.6-2.7c.6-.4 1.5-.2 1.8.5.4.6.2 1.5-.5 1.8l-4.6 2.7c-.1.1-.4.2-.6.2zm11.5-6.8c-.5 0-.9-.2-1.2-.7-.4-.6-.2-1.5.5-1.8l4.6-2.7c.6-.4 1.5-.2 1.8.5.4.6.2 1.5-.5 1.8l-4.6 2.7c-.2.1-.4.2-.6.2zm11.4-6.8c-.5 0-.9-.2-1.2-.7-.4-.6-.2-1.5.5-1.8l4.6-2.7c.6-.4 1.5-.2 1.8.5.4.6.2 1.5-.5 1.8l-4.6 2.7c-.1.1-.4.2-.6.2zm11.5-6.9c-.5 0-.9-.2-1.2-.7-.4-.6-.2-1.5.5-1.8l4.6-2.7c.6-.4 1.5-.2 1.8.5.4.6.2 1.5-.5 1.8l-4.6 2.7c-.2.2-.4.2-.6.2zm-33.8 119.4c-.5 0-.9-.2-1.2-.7-.4-.6-.2-1.5.5-1.8l1.4-.9c.6-.4 1.5-.2 1.8.5.4.6.2 1.5-.5 1.8l-1.4.9c-.1.1-.3.2-.6.2zm8.3-5c-.5 0-.9-.2-1.2-.7-.4-.6-.2-1.5.5-1.8l4.6-2.7c.6-.4 1.5-.2 1.8.5.4.6.2 1.5-.5 1.8l-4.6 2.7c-.1.2-.3.2-.6.2zm11.4-6.8c-.5 0-.9-.2-1.2-.7-.4-.6-.2-1.5.5-1.8l4.6-2.7c.6-.4 1.5-.2 1.8.5s.2 1.5-.5 1.8l-4.6 2.7c-.1.1-.3.2-.6.2zm11.5-6.9c-.5 0-.9-.2-1.2-.7-.4-.6-.2-1.5.5-1.8l4.6-2.7c.6-.4 1.5-.2 1.8.5.4.6.2 1.5-.5 1.8l-4.6 2.7c-.2.1-.4.2-.6.2zm11.4-6.9c-.5 0-.9-.2-1.2-.7-.4-.6-.2-1.5.5-1.8l4.6-2.7c.6-.4 1.5-.2 1.8.5.4.6.2 1.5-.5 1.8l-4.6 2.7c-.1.2-.4.2-.6.2zm11.4-6.8c-.5 0-.9-.2-1.2-.7-.4-.6-.2-1.5.5-1.8l4.6-2.7c.6-.4 1.5-.2 1.8.5.4.6.2 1.5-.5 1.8l-4.6 2.7c-.1.1-.3.2-.6.2zm11.5-6.9c-.5 0-.9-.2-1.2-.7-.4-.6-.2-1.5.5-1.8l4.6-2.7c.6-.4 1.5-.2 1.8.5.4.6.2 1.5-.5 1.8l-4.6 2.7c-.2.1-.4.2-.6.2zm11.4-6.9c-.5 0-.9-.2-1.2-.7-.4-.6-.2-1.5.5-1.8l4.6-2.7c.6-.4 1.5-.2 1.8.5.4.6.2 1.5-.5 1.8l-4.6 2.7c-.1.2-.4.2-.6.2zm11.4-6.8c-.5 0-.9-.2-1.2-.7-.4-.6-.2-1.5.5-1.8l4.6-2.7c.6-.4 1.5-.2 1.8.5.4.6.2 1.5-.5 1.8l-4.6 2.7c-.1.1-.4.2-.6.2zm11.4-6.9c-.5 0-.9-.2-1.2-.7-.4-.6-.2-1.5.5-1.8l4.6-2.7c.6-.4 1.5-.2 1.8.5.4.6.2 1.5-.5 1.8l-4.6 2.7c-.1.1-.3.2-.6.2zm11.5-6.9c-.5 0-.9-.2-1.2-.7-.4-.6-.2-1.5.5-1.8l4.6-2.7c.6-.4 1.5-.2 1.8.5.4.6.2 1.5-.5 1.8l-4.6 2.7c-.2.2-.4.2-.6.2zm11.4-6.8c-.5 0-.9-.2-1.2-.7-.4-.6-.2-1.5.5-1.8l4.6-2.7c.6-.4 1.5-.2 1.8.5.4.6.2 1.5-.5 1.8l-4.6 2.7c-.1.1-.4.2-.6.2zm11.4-6.9c-.5 0-.9-.2-1.2-.7-.4-.6-.2-1.5.5-1.8l4.6-2.7c.6-.4 1.5-.2 1.8.5.4.6.2 1.5-.5 1.8l-4.6 2.7c-.1.2-.3.2-.6.2zm11.4-6.9c-.5 0-.9-.2-1.2-.7-.4-.6-.2-1.5.5-1.8l4.6-2.7c.6-.4 1.5-.2 1.8.5.4.6.2 1.5-.5 1.8l-4.6 2.7c-.1.2-.3.2-.6.2zm11.5-6.8c-.5 0-.9-.2-1.2-.7-.4-.6-.2-1.5.5-1.8l4.6-2.7c.6-.4 1.5-.2 1.8.5.4.6.2 1.5-.5 1.8l-4.6 2.7c-.2.1-.4.2-.6.2zm11.4-6.9c-.5 0-.9-.2-1.2-.7-.4-.6-.2-1.5.5-1.8l4.6-2.7c.6-.4 1.5-.2 1.8.5.4.6.2 1.5-.5 1.8l-4.6 2.7c-.1.2-.4.2-.6.2zm11.4-6.8c-.5 0-.9-.2-1.2-.7-.4-.6-.2-1.5.5-1.8l4.6-2.7c.6-.4 1.5-.2 1.8.5.4.6.2 1.5-.5 1.8l-4.6 2.7c-.1.1-.3.2-.6.2zm11.5-6.9c-.5 0-.9-.2-1.2-.7-.4-.6-.2-1.5.5-1.8l4.6-2.7c.6-.4 1.5-.2 1.8.5.4.6.2 1.5-.5 1.8l-4.6 2.7c-.2.1-.4.2-.6.2zm11.4-6.9c-.5 0-.9-.2-1.2-.7-.4-.6-.2-1.5.5-1.8l4.6-2.7c.6-.4 1.5-.2 1.8.5.4.6.2 1.5-.5 1.8l-4.6 2.7c-.1.2-.4.2-.6.2zm11.4-6.8c-.5 0-.9-.2-1.2-.7-.4-.6-.2-1.5.5-1.8l4.6-2.7c.6-.4 1.5-.2 1.8.5.4.6.2 1.5-.5 1.8l-4.6 2.7c-.1.1-.4.2-.6.2zm11.4-6.9c-.5 0-.9-.2-1.2-.7-.4-.6-.2-1.5.5-1.8l4.6-2.7c.6-.4 1.5-.2 1.8.5.4.6.2 1.5-.5 1.8l-4.6 2.7c-.1.1-.3.2-.6.2zm-156.5 170.9c-.5 0-.9-.2-1.2-.7-.4-.6-.2-1.5.5-1.8l4.6-2.7c.6-.4 1.5-.2 1.8.5.4.6.2 1.5-.5 1.8l-4.6 2.7c-.1.1-.3.2-.6.2zm11.5-6.8c-.5 0-.9-.2-1.2-.7-.4-.6-.2-1.5.5-1.8l4.6-2.7c.6-.4 1.5-.2 1.8.5s.2 1.5-.5 1.8l-4.6 2.7c-.1.1-.4.2-.6.2zm11.4-6.8c-.5 0-.9-.2-1.2-.7-.4-.6-.2-1.5.5-1.8l4.6-2.7c.6-.4 1.5-.2 1.8.5s.2 1.5-.5 1.8l-4.6 2.7c-.1.1-.3.2-.6.2zm11.5-6.9c-.5 0-.9-.2-1.2-.7-.4-.6-.2-1.5.5-1.8l4.6-2.7c.6-.4 1.5-.2 1.8.5s.2 1.5-.5 1.8l-4.6 2.7c-.1.2-.4.2-.6.2zm11.5-6.8c-.5 0-.9-.2-1.2-.7-.4-.6-.2-1.5.5-1.8l4.6-2.7c.6-.4 1.5-.2 1.8.5.4.6.2 1.5-.5 1.8l-4.6 2.7c-.2.2-.4.2-.6.2zm11.4-6.8c-.5 0-.9-.2-1.2-.7-.4-.6-.2-1.5.5-1.8l4.6-2.7c.6-.4 1.5-.2 1.8.5.4.6.2 1.5-.5 1.8l-4.6 2.7c-.1.2-.3.2-.6.2zm11.5-6.8c-.5 0-.9-.2-1.2-.7-.4-.6-.2-1.5.5-1.8l4.6-2.7c.6-.4 1.5-.2 1.8.5.4.6.2 1.5-.5 1.8l-4.6 2.7c-.2.1-.4.2-.6.2zm11.4-6.8c-.5 0-.9-.2-1.2-.7-.4-.6-.2-1.5.5-1.8l4.6-2.7c.6-.4 1.5-.2 1.8.5.4.6.2 1.5-.5 1.8l-4.6 2.7c-.1.1-.3.2-.6.2zm11.5-6.8c-.5 0-.9-.2-1.2-.7-.4-.6-.2-1.5.5-1.8l4.6-2.7c.6-.4 1.5-.2 1.8.5.4.6.2 1.5-.5 1.8l-4.6 2.7c-.1.1-.4.2-.6.2zm11.4-6.8c-.5 0-.9-.2-1.2-.7-.4-.6-.2-1.5.5-1.8l4.6-2.7c.6-.4 1.5-.2 1.8.5.4.6.2 1.5-.5 1.8l-4.6 2.7c-.1.1-.3.2-.6.2zm11.5-6.9c-.5 0-.9-.2-1.2-.7-.4-.6-.2-1.5.5-1.8l4.6-2.7c.6-.4 1.5-.2 1.8.5.4.6.2 1.5-.5 1.8l-4.6 2.7c-.1.2-.4.2-.6.2zm-55.4 103c-.5 0-.9-.2-1.2-.7-.4-.6-.2-1.5.5-1.8l4.6-2.7c.6-.4 1.5-.2 1.8.5.4.6.2 1.5-.5 1.8l-4.6 2.7c-.1.2-.4.2-.6.2zm11.5-6.8c-.5 0-.9-.2-1.2-.7-.4-.6-.2-1.5.5-1.8l4.6-2.7c.6-.4 1.5-.2 1.8.5.4.6.2 1.5-.5 1.8l-4.6 2.7c-.2.1-.4.2-.6.2zm11.4-6.8c-.5 0-.9-.2-1.2-.7-.4-.6-.2-1.5.5-1.8l4.6-2.7c.6-.4 1.5-.2 1.8.5.4.6.2 1.5-.5 1.8l-4.6 2.7c-.1.1-.3.2-.6.2zm11.5-6.8c-.5 0-.9-.2-1.2-.7-.4-.6-.2-1.5.5-1.8l4.6-2.7c.6-.4 1.5-.2 1.8.5.4.6.2 1.5-.5 1.8l-4.6 2.7c-.1.1-.4.2-.6.2zm11.4-6.8c-.5 0-.9-.2-1.2-.7-.4-.6-.2-1.5.5-1.8l4.6-2.7c.6-.4 1.5-.2 1.8.5s.2 1.5-.5 1.8l-4.6 2.7c-.1.1-.3.2-.6.2zm11.5-6.8c-.5 0-.9-.2-1.2-.7-.4-.6-.2-1.5.5-1.8l4.6-2.7c.6-.4 1.5-.2 1.8.5s.2 1.5-.5 1.8l-4.6 2.7c-.1.1-.4.2-.6.2zm11.5-6.9c-.5 0-.9-.2-1.2-.7-.4-.6-.2-1.5.5-1.8l4.6-2.7c.6-.4 1.5-.2 1.8.5.4.6.2 1.5-.5 1.8l-4.6 2.7c-.2.2-.4.2-.6.2zm11.4-6.8c-.5 0-.9-.2-1.2-.7-.4-.6-.2-1.5.5-1.8l4.6-2.7c.6-.4 1.5-.2 1.8.5s.2 1.5-.5 1.8l-4.6 2.7c-.1.2-.4.2-.6.2zm11.5-6.8c-.5 0-.9-.2-1.2-.7-.4-.6-.2-1.5.5-1.8l4.6-2.7c.6-.4 1.5-.2 1.8.5.4.6.2 1.5-.5 1.8l-4.6 2.7c-.2.1-.4.2-.6.2zm11.4-6.8c-.5 0-.9-.2-1.2-.7-.4-.6-.2-1.5.5-1.8l4.6-2.7c.6-.4 1.5-.2 1.8.5s.2 1.5-.5 1.8l-4.6 2.7c-.1.1-.3.2-.6.2zm11.5-6.8c-.5 0-.9-.2-1.2-.7-.4-.6-.2-1.5.5-1.8l4.6-2.7c.6-.4 1.5-.2 1.8.5.4.6.2 1.5-.5 1.8l-4.6 2.7c-.1.1-.4.2-.6.2z"/><path class="lines" fill="#8e8e8e" d="M1000.4 333.4c-.3 0-.7-.2-.9-.5-.3-.5-.1-1.1.4-1.4l174.7-101.7c.5-.3 1.1-.1 1.4.4s.1 1.1-.4 1.4l-174.7 101.7c-.2 0-.4.1-.5.1zm.5 61.8 174.7-101.7c.5-.3.6-.9.4-1.4-.3-.5-.9-.6-1.4-.4L999.8 393.4c-.5.3-.6.9-.4 1.4.2.3.5.5.9.5.2 0 .4 0 .6-.1zm0 61.3 174.7-101.7c.5-.3.6-.9.4-1.4-.3-.5-.9-.6-1.4-.4L999.8 454.7c-.5.3-.6.9-.4 1.4.2.3.5.5.9.5.2 0 .4 0 .6-.1zm0 62 174.7-101.7c.5-.3.6-.9.4-1.4-.3-.5-.9-.6-1.4-.4L999.8 516.7c-.5.3-.6.9-.4 1.4.2.3.5.5.9.5.2 0 .4 0 .6-.1zm0 60.9 174.7-101.7c.5-.3.6-.9.4-1.4-.3-.5-.9-.6-1.4-.4L999.8 577.7c-.5.3-.6.9-.4 1.4.2.3.5.5.9.5.2 0 .4-.1.6-.2zm0 62 174.7-101.7c.5-.3.6-.9.4-1.4-.3-.5-.9-.6-1.4-.4L999.8 639.6c-.5.3-.6.9-.4 1.4.2.3.5.5.9.5.2 0 .4 0 .6-.1z"/><g class="letter letter-4"><linearGradient id="h" gradientUnits="userSpaceOnUse" x1="1197.168" y1="-35.539" x2="1294.674" y2="-88.641" gradientTransform="translate(0 236)"><stop offset="0" stop-color="#fff"/><stop offset=".01" stop-color="#fffdfd"/><stop offset=".502" stop-color="#e79194"/><stop offset=".842" stop-color="#d84e51"/><stop offset="1" stop-color="#d33338"/></linearGradient><path d="m1215.5 195.7-23 12.5-9.4-5.3 23.1-12.5 9.3 5.3z" fill="url(#h)"/><linearGradient id="i" gradientUnits="userSpaceOnUse" x1="1393.697" y1="213.721" x2="1137.507" y2="143.532" gradientTransform="translate(0 236)"><stop offset="0" stop-color="#fff"/><stop offset=".01" stop-color="#fffdfd"/><stop offset=".502" stop-color="#e79194"/><stop offset=".842" stop-color="#d84e51"/><stop offset="1" stop-color="#d33338"/></linearGradient><path d="M1192.5 208.2v391.6l23-12.5V195.7l-23 12.5z" fill="url(#i)"/><linearGradient id="j" gradientUnits="userSpaceOnUse" x1="1208.696" y1="167.023" x2="1106.376" y2="158.831" gradientTransform="translate(0 236)"><stop offset="0" stop-color="#fff"/><stop offset=".01" stop-color="#fffdfd"/><stop offset=".502" stop-color="#e79194"/><stop offset=".842" stop-color="#d84e51"/><stop offset="1" stop-color="#d33338"/></linearGradient><path d="m1192.5 599.8-9.4-5.3V202.9l9.4 5.3v391.6z" fill="url(#j)"/></g><g class="chart"><g class="pipe pipe-6" opacity=".9"><linearGradient id="k" gradientUnits="userSpaceOnUse" x1="1215.443" y1="187.793" x2="1451.84" y2="169.665" gradientTransform="translate(0 236)"><stop offset=".035" stop-color="#1d1d1d"/><stop offset=".238" stop-color="#2c2c2c"/><stop offset=".629" stop-color="#555"/><stop offset="1" stop-color="gray"/></linearGradient><path d="m1242.3 600.8-23.9 13.8V244.5l23.9-13.8v370.1z" fill="url(#k)"/><linearGradient id="l" gradientUnits="userSpaceOnUse" x1="1122.778" y1="172.632" x2="1283.584" y2="199.572" gradientTransform="translate(0 236)"><stop offset=".035" stop-color="#1d1d1d"/><stop offset=".238" stop-color="#2c2c2c"/><stop offset=".629" stop-color="#555"/><stop offset="1" stop-color="gray"/></linearGradient><path d="m1218.4 614.6-23.9-13.8V230.7l23.9 13.8v370.1z" fill="url(#l)"/><linearGradient id="m" gradientUnits="userSpaceOnUse" x1="1231.585" y1="-28.138" x2="1211.615" y2="6.452" gradientTransform="translate(0 236)"><stop offset=".035" stop-color="#1d1d1d"/><stop offset=".238" stop-color="#2c2c2c"/><stop offset=".629" stop-color="#555"/><stop offset="1" stop-color="gray"/></linearGradient><path d="m1218.4 216.9 23.9 13.8-23.9 13.8-23.9-13.8 23.9-13.8z" fill="url(#m)"/></g><g class="pipe pipe-5" opacity=".9"><radialGradient id="n" cx="1157.881" cy="160.395" r="113.213" gradientTransform="translate(0 236)" gradientUnits="userSpaceOnUse"><stop offset="0"/><stop offset="1" stop-opacity="0"/></radialGradient><path d="m1153.9 317.6 23.8 12.9 24-12.9-23.2 14.4-.7 306-1.1-306.2-22.8-14.2z" fill="url(#n)"/><linearGradient id="o" gradientUnits="userSpaceOnUse" x1="1176.202" y1="242.839" x2="1390.997" y2="226.367" gradientTransform="translate(0 236)"><stop offset="0" stop-color="#cc151a"/><stop offset="1" stop-color="#d7484c"/></linearGradient><path d="m1201.7 624.1-23.9 13.9V331.5l23.9-13.9v306.5z" fill="url(#o)"/><linearGradient id="p" gradientUnits="userSpaceOnUse" x1="1092.28" y1="229.474" x2="1233.675" y2="253.163" gradientTransform="translate(0 236)"><stop offset="0" stop-color="#cc151a"/><stop offset="1" stop-color="#d7484c"/></linearGradient><path d="m1177.8 638-23.9-13.9V317.6l23.9 13.9V638z" fill="url(#p)"/><linearGradient id="q" gradientUnits="userSpaceOnUse" x1="1190.982" y1="58.819" x2="1171.011" y2="93.409" gradientTransform="translate(0 236)"><stop offset="0" stop-color="#cc151a"/><stop offset="1" stop-color="#d7484c"/></linearGradient><path d="m1177.8 303.8 23.9 13.9-23.9 13.8-23.9-13.9 23.9-13.8z" fill="url(#q)"/></g><g class="pipe pipe-4" opacity=".9"><radialGradient id="r" cx="1118.179" cy="231.05" r="91.851" gradientTransform="translate(0 236)" gradientUnits="userSpaceOnUse"><stop offset="0"/><stop offset="1" stop-opacity="0"/></radialGradient><path d="m1114.2 403.7 23.8 12.8 24-12.8-23.2 14.3-.7 243.3-1.1-243.4-22.8-14.2z" fill="url(#r)"/><linearGradient id="s" gradientUnits="userSpaceOnUse" x1="1137.841" y1="297.436" x2="1331.34" y2="282.597" gradientTransform="translate(0 236)"><stop offset="0" stop-color="#cc151a"/><stop offset="1" stop-color="#d7484c"/></linearGradient><path d="m1162 647.5-23.9 13.8V417.5l23.9-13.8v243.8z" fill="url(#s)"/><linearGradient id="t" gradientUnits="userSpaceOnUse" x1="1062.54" y1="285.842" x2="1184.797" y2="306.325" gradientTransform="translate(0 236)"><stop offset="0" stop-color="#cc151a"/><stop offset="1" stop-color="#d7484c"/></linearGradient><path d="m1138.1 661.3-23.9-13.8V403.7l23.9 13.8v243.8z" fill="url(#t)"/><linearGradient id="u" gradientUnits="userSpaceOnUse" x1="1151.276" y1="144.879" x2="1131.305" y2="179.469" gradientTransform="translate(0 236)"><stop offset="0" stop-color="#cc151a"/><stop offset="1" stop-color="#d7484c"/></linearGradient><path d="m1138.1 389.9 23.9 13.8-23.9 13.8-23.9-13.8 23.9-13.8z" fill="url(#u)"/></g><g class="pipe pipe-3" opacity=".9"><radialGradient id="v" cx="1079.183" cy="302.021" r="70.575" gradientTransform="translate(0 236)" gradientUnits="userSpaceOnUse"><stop offset="0"/><stop offset="1" stop-opacity="0"/></radialGradient><path d="M1075.2 490.2 1099 503l24-12.8-23.2 14.3-.7 180.2-1.1-180.3-22.8-14.2z" fill="url(#v)"/><linearGradient id="w" gradientUnits="userSpaceOnUse" x1="1100.203" y1="352.282" x2="1272.224" y2="339.09" gradientTransform="translate(0 236)"><stop offset="0" stop-color="#cc151a"/><stop offset="1" stop-color="#d7484c"/></linearGradient><path d="m1123 670.8-23.9 13.9V504l23.9-13.8v180.6z" fill="url(#w)"/><linearGradient id="x" gradientUnits="userSpaceOnUse" x1="1033.578" y1="342.474" x2="1136.535" y2="359.724" gradientTransform="translate(0 236)"><stop offset="0" stop-color="#cc151a"/><stop offset="1" stop-color="#d7484c"/></linearGradient><path d="m1099.1 684.7-23.9-13.9V490.2l23.9 13.8v180.7z" fill="url(#x)"/><linearGradient id="y" gradientUnits="userSpaceOnUse" x1="1112.272" y1="231.385" x2="1092.302" y2="265.975" gradientTransform="translate(0 236)"><stop offset="0" stop-color="#cc151a"/><stop offset="1" stop-color="#d7484c"/></linearGradient><path d="m1099.1 476.4 23.9 13.8-23.9 13.8-23.9-13.8 23.9-13.8z" fill="url(#y)"/></g><g class="pipe pipe-2" opacity=".9"><radialGradient id="z" cx="1040.634" cy="373.6" r="49.658" gradientTransform="translate(0 236)" gradientUnits="userSpaceOnUse"><stop offset="0"/><stop offset="1" stop-opacity="0"/></radialGradient><path d="m1036.6 577.5 23.8 12.8 24.1-12.8-23.2 14.4-.7 116.1-1.2-116.3-22.8-14.2z" fill="url(#z)"/><linearGradient id="A" gradientUnits="userSpaceOnUse" x1="1073.679" y1="318.673" x2="1053.709" y2="353.263" gradientTransform="translate(0 236)"><stop offset="0" stop-color="#cc151a"/><stop offset="1" stop-color="#d7484c"/></linearGradient><path d="m1060.5 563.7 23.9 13.8-23.9 13.8-23.9-13.8 23.9-13.8z" fill="url(#A)"/><linearGradient id="B" gradientUnits="userSpaceOnUse" x1="1063.025" y1="407.476" x2="1213.296" y2="395.952" gradientTransform="translate(0 236)"><stop offset="0" stop-color="#cc151a"/><stop offset="1" stop-color="#d7484c"/></linearGradient><path d="m1084.5 694.2-24 13.8V591.3l24-13.8v116.7z" fill="url(#B)"/><linearGradient id="C" gradientUnits="userSpaceOnUse" x1="1005.201" y1="399.478" x2="1088.612" y2="413.454" gradientTransform="translate(0 236)"><stop offset="0" stop-color="#cc151a"/><stop offset="1" stop-color="#d7484c"/></linearGradient><path d="m1060.6 708-24-13.8V577.5l24 13.8V708z" fill="url(#C)"/></g><g class="pipe pipe-1" opacity=".9"><radialGradient id="D" cx="1002.055" cy="443.51" r="31.108" gradientTransform="translate(0 236)" gradientUnits="userSpaceOnUse"><stop offset="0"/><stop offset="1" stop-opacity="0"/></radialGradient><path d="m998.1 662.8 23.8 12.8 24-12.8-23.2 14.3-.7 53.7-1.2-53.8-22.7-14.2z" fill="url(#D)"/><linearGradient id="E" gradientUnits="userSpaceOnUse" x1="1025.785" y1="461.426" x2="1154.841" y2="451.529" gradientTransform="translate(0 236)"><stop offset="0" stop-color="#cc151a"/><stop offset="1" stop-color="#d7484c"/></linearGradient><path d="m1045.9 717-23.9 13.8v-54.2l23.9-13.8V717z" fill="url(#E)"/><linearGradient id="F" gradientUnits="userSpaceOnUse" x1="976.541" y1="455.185" x2="1040.888" y2="465.966" gradientTransform="translate(0 236)"><stop offset="0" stop-color="#cc151a"/><stop offset="1" stop-color="#d7484c"/></linearGradient><path d="M1022 730.8 998.1 717v-54.2l23.9 13.8v54.2z" fill="url(#F)"/><linearGradient id="G" gradientUnits="userSpaceOnUse" x1="1035.178" y1="403.976" x2="1015.207" y2="438.565" gradientTransform="translate(0 236)"><stop offset="0" stop-color="#cc151a"/><stop offset="1" stop-color="#d7484c"/></linearGradient><path d="m1022 649 23.9 13.8-23.9 13.8-23.9-13.8L1022 649z" fill="url(#G)"/></g></g><g class="letter letter-1"><linearGradient id="H" gradientUnits="userSpaceOnUse" x1="1387.84" y1="239.871" x2="1224.681" y2="375.239" gradientTransform="translate(0 236)"><stop offset="0" stop-color="#fff"/><stop offset=".01" stop-color="#fffdfd"/><stop offset=".502" stop-color="#e79194"/><stop offset=".842" stop-color="#d84e51"/><stop offset="1" stop-color="#d33338"/></linearGradient><path d="m1261.5 639.7 23-12.4V502.5l-23 12.5v124.7z" fill="url(#H)"/><linearGradient id="I" gradientUnits="userSpaceOnUse" x1="1479.031" y1="283.009" x2="1311.39" y2="361.899" gradientTransform="translate(0 236)"><stop offset="0" stop-color="#fff"/><stop offset=".01" stop-color="#fffdfd"/><stop offset=".502" stop-color="#e79194"/><stop offset=".842" stop-color="#d84e51"/><stop offset="1" stop-color="#d33338"/></linearGradient><path d="m1399.4 719.4 23-12.5-72.8-289.9-23 12.5 72.8 289.9z" fill="url(#I)"/><linearGradient id="J" gradientUnits="userSpaceOnUse" x1="1441.645" y1="208.19" x2="1372.616" y2="134.679" gradientTransform="translate(0 236)"><stop offset="0" stop-color="#fff"/><stop offset=".01" stop-color="#fffdfd"/><stop offset=".502" stop-color="#e79194"/><stop offset=".842" stop-color="#d84e51"/><stop offset="1" stop-color="#d33338"/></linearGradient><path d="m1421.3 314.7-23 12.4-71.7 102.4 23-12.5 71.7-102.3z" fill="url(#J)"/><linearGradient id="K" gradientUnits="userSpaceOnUse" x1="1376.385" y1="69.765" x2="1562.852" y2="-54.846" gradientTransform="translate(0 236)"><stop offset="0" stop-color="#fff"/><stop offset=".01" stop-color="#fffdfd"/><stop offset=".502" stop-color="#e79194"/><stop offset=".842" stop-color="#d84e51"/><stop offset="1" stop-color="#d33338"/></linearGradient><path d="m1361.1 279.9-23 12.5 60.2 34.7 23-12.4-60.2-34.8z" fill="url(#K)"/><linearGradient id="L" gradientUnits="userSpaceOnUse" x1="1248.991" y1="-4.094" x2="1404.943" y2="-89.026" gradientTransform="translate(0 236)"><stop offset="0" stop-color="#fff"/><stop offset=".01" stop-color="#fffdfd"/><stop offset=".502" stop-color="#e79194"/><stop offset=".842" stop-color="#d84e51"/><stop offset="1" stop-color="#d33338"/></linearGradient><path d="m1284.5 235.7-23 12.5-41.2-23.8 23-12.5 41.2 23.8z" fill="url(#L)"/><linearGradient id="M" gradientUnits="userSpaceOnUse" x1="1369.896" y1="114.996" x2="1239.01" y2="79.138" gradientTransform="translate(0 236)"><stop offset="0" stop-color="#fff"/><stop offset=".01" stop-color="#fffdfd"/><stop offset=".502" stop-color="#e79194"/><stop offset=".842" stop-color="#d84e51"/><stop offset="1" stop-color="#d33338"/></linearGradient><path d="m1261.5 413.2 23-12.5v-165l-23 12.5v165z" fill="url(#M)"/><linearGradient id="N" gradientUnits="userSpaceOnUse" x1="1319.134" y1="291.784" x2="1276.999" y2="246.064" gradientTransform="translate(0 236)"><stop offset="0" stop-color="#fff"/><stop offset=".01" stop-color="#fffdfd"/><stop offset=".502" stop-color="#e79194"/><stop offset=".842" stop-color="#d84e51"/><stop offset="1" stop-color="#d33338"/></linearGradient><path d="m1261.5 515 23-12.5 24.1-35.9-23.1 12.5-24 35.9z" fill="url(#N)"/><linearGradient id="O" gradientUnits="userSpaceOnUse" x1="1420.928" y1="244.793" x2="876.9" y2="201.238" gradientTransform="translate(0 236)"><stop offset="0" stop-color="#fff"/><stop offset=".01" stop-color="#fffdfd"/><stop offset=".502" stop-color="#e79194"/><stop offset=".842" stop-color="#d84e51"/><stop offset="1" stop-color="#d33338"/></linearGradient><path d="m1220.3 224.4 41.2 23.8v165l76.6-120.8 60.2 34.8-71.7 102.4 72.8 289.8-62.9-36.3-50.9-203.9-24.1 35.9v124.7l-41.2-23.8V224.4z" fill="url(#O)"/></g><g class="letter letter-2"><linearGradient id="P" gradientUnits="userSpaceOnUse" x1="1595.745" y1="516.732" x2="1473.377" y2="429.998" gradientTransform="translate(0 236)"><stop offset="0" stop-color="#fff"/><stop offset=".01" stop-color="#fffdfd"/><stop offset=".502" stop-color="#e79194"/><stop offset=".842" stop-color="#d84e51"/><stop offset="1" stop-color="#d33338"/></linearGradient><path d="m1488 770.5 23.1-12.4V598.6l-23.1 12.5v159.4z" fill="url(#P)"/><linearGradient id="Q" gradientUnits="userSpaceOnUse" x1="1487.453" y1="87.077" x2="1649.492" y2="414.516" gradientTransform="translate(0 236)"><stop offset="0" stop-color="#fff"/><stop offset=".01" stop-color="#fffdfd"/><stop offset=".502" stop-color="#e79194"/><stop offset=".842" stop-color="#d84e51"/><stop offset="1" stop-color="#d33338"/></linearGradient><path d="M1606.8 446.4c-15-25-37.4-46.2-67.3-63.5l-88.7-51.2v25.8l65.6 37.9c29.9 17.3 52.3 38.4 67.3 63.5 3.6 6 6.8 12.3 9.5 18.7l-7.3 4V641l23-12.5v-.5c13.5-8.5 20.3-27.8 20.3-57.9v-38.6c.1-31.7-7.4-60.1-22.4-85.1z" fill="url(#Q)"/><linearGradient id="R" gradientUnits="userSpaceOnUse" x1="1478.342" y1="127.908" x2="1680.049" y2="-27.406" gradientTransform="translate(0 236)"><stop offset="0" stop-color="#fff"/><stop offset=".01" stop-color="#fffdfd"/><stop offset=".502" stop-color="#e79194"/><stop offset=".842" stop-color="#d84e51"/><stop offset="1" stop-color="#d33338"/></linearGradient><path d="m1427.8 344.2 23.1-12.5 83.2 47.9-22.5 13.5-83.8-48.9z" fill="url(#R)"/><linearGradient id="S" gradientUnits="userSpaceOnUse" x1="1509.102" y1="293.3" x2="1558.102" y2="293.3" gradientTransform="translate(0 236)"><stop offset="0" stop-color="#cc151a"/><stop offset="1" stop-color="#d7484c"/></linearGradient><path d="m1551 515.6-23.1 12.5 25.9 14.9 23.1-12.5-25.9-14.9z" fill="url(#S)"/><linearGradient id="T" gradientUnits="userSpaceOnUse" x1="1560.356" y1="300.867" x2="1449.417" y2="252.458" gradientTransform="translate(0 236)"><stop offset="0" stop-color="#cc151a"/><stop offset="1" stop-color="#d7484c"/></linearGradient><path d="M1484.5 471.4c0 14 7.2 30.1 17.5 41.7v57.7l25.9 15V560l-2.9-1.7v-57.7c-10.3-11.6-17.5-27.7-17.5-41.7 0-2.9.3-5.5.9-7.8-13.6-4.4-23.9 3.6-23.9 20.3z" fill="url(#T)"/><linearGradient id="U" gradientUnits="userSpaceOnUse" x1="1512.942" y1="340.738" x2="1641.395" y2="295.678" gradientTransform="translate(0 236)"><stop offset="0" stop-color="#cc151a"/><stop offset="1" stop-color="#d7484c"/></linearGradient><path d="m1525 558.3-23 12.5 25.9 14.9 23.1-12.4-26-15z" fill="url(#U)"/><linearGradient id="V" gradientUnits="userSpaceOnUse" x1="1581.004" y1="357.434" x2="1478.805" y2="270.027" gradientTransform="translate(0 236)"><stop offset="0" stop-color="#cc151a"/><stop offset="1" stop-color="#d7484c"/></linearGradient><path d="m1525 500.6-23 12.5v57.7l23-12.5v-57.7z" fill="url(#V)"/><linearGradient id="W" gradientUnits="userSpaceOnUse" x1="1566.318" y1="299.327" x2="1454.531" y2="250.547" gradientTransform="translate(0 236)"><stop offset=".035" stop-color="#1d1d1d"/><stop offset=".238" stop-color="#2c2c2c"/><stop offset=".629" stop-color="#555"/><stop offset="1" stop-color="gray"/></linearGradient><path d="M1518.9 561.6v-57.7c-10.3-11.6-17.5-27.7-17.5-41.7 0-5.9 1.3-10.7 3.6-14.3-9.9 0-13.7 6.3-13.7 19.9 0 14 7.2 30.1 17.5 41.7v57.7l25.9 15-3.1-13.2-12.7-7.4z" fill="url(#W)"/><linearGradient id="X" gradientUnits="userSpaceOnUse" x1="1517.607" y1="339.092" x2="1605.028" y2="308.426" gradientTransform="translate(0 236)"><stop offset=".035" stop-color="#1d1d1d"/><stop offset=".238" stop-color="#2c2c2c"/><stop offset=".629" stop-color="#555"/><stop offset="1" stop-color="gray"/></linearGradient><path d="m1544.8 576.5-25.8-14.9-10.2 5.5 25.9 15 10.1-5.6z" fill="url(#X)"/><linearGradient id="Y" gradientUnits="userSpaceOnUse" x1="1543.373" y1="296.486" x2="1630.794" y2="265.82" gradientTransform="translate(0 236)"><stop offset=".035" stop-color="#1d1d1d"/><stop offset=".238" stop-color="#2c2c2c"/><stop offset=".629" stop-color="#555"/><stop offset="1" stop-color="gray"/></linearGradient><path d="m1570.6 533.9-25.9-14.9-10.1 5.6 25.9 14.9 10.1-5.6z" fill="url(#Y)"/><linearGradient id="Z" gradientUnits="userSpaceOnUse" x1="1573.592" y1="350.645" x2="1483.086" y2="273.239" gradientTransform="translate(0 236)"><stop offset=".035" stop-color="#1d1d1d"/><stop offset=".238" stop-color="#2c2c2c"/><stop offset=".629" stop-color="#555"/><stop offset="1" stop-color="gray"/></linearGradient><path d="M1518.9 561.6V504l-10.1 5.5v57.6l10.1-5.5z" fill="url(#Z)"/><radialGradient id="aa" cx="1522.569" cy="272.7" r="50.525" gradientTransform="translate(0 236)" gradientUnits="userSpaceOnUse"><stop offset="0" stop-color="#fff"/><stop offset="1"/></radialGradient><path d="M1514.8 440.6c-8.9 1-14 9-14 21.8 0 14 7.2 30.1 17.5 41.7v57.7l25.9 15-.9-1.9-23.9-13.8v-57.7c-10.3-11.6-17.5-27.7-17.5-41.7.1-11.8 5.2-19.2 12.9-21.1z" fill="url(#aa)"/><linearGradient id="ab" gradientUnits="userSpaceOnUse" x1="1676.815" y1="304.798" x2="1011.854" y2="355.225" gradientTransform="translate(0 236)"><stop offset="0" stop-color="#fff"/><stop offset=".01" stop-color="#fffdfd"/><stop offset=".502" stop-color="#e79194"/><stop offset=".842" stop-color="#d84e51"/><stop offset="1" stop-color="#d33338"/></linearGradient><path d="M1583.8 458.9c-15-25-37.4-46.2-67.3-63.5l-88.7-51.2v391.6l60.2 34.8V611.1l28.5 16.4c29.9 17.3 52.3 22 67.3 14.2s22.4-27.5 22.4-59.2V544c0-31.7-7.5-60.1-22.4-85.1zm-55.9 69.2v57.7l-25.9-15v-57.7c-10.3-11.6-17.5-27.7-17.5-41.7 0-19.3 13.6-27.1 30.4-17.4s30.4 33.2 30.4 52.5c.1 14.1-7.1 21.9-17.4 21.6z" fill="url(#ab)"/></g><g class="letter letter-3"><linearGradient id="ac" gradientUnits="userSpaceOnUse" x1="1845.789" y1="547.557" x2="1297.145" y2="305.509" gradientTransform="translate(0 236)"><stop offset="0" stop-color="#fff"/><stop offset=".01" stop-color="#fffdfd"/><stop offset=".502" stop-color="#e79194"/><stop offset=".842" stop-color="#d84e51"/><stop offset="1" stop-color="#d33338"/></linearGradient><path d="m1639.1 518.7 60.2 34.8v339.1l-60.2-34.8V518.7z" fill="url(#ac)"/><linearGradient id="ad" gradientUnits="userSpaceOnUse" x1="1678.202" y1="296.655" x2="1734.68" y2="232.109" gradientTransform="translate(0 236)"><stop offset="0" stop-color="#fff"/><stop offset=".01" stop-color="#fffdfd"/><stop offset=".502" stop-color="#e79194"/><stop offset=".842" stop-color="#d84e51"/><stop offset="1" stop-color="#d33338"/></linearGradient><path d="m1662.1 506.2-23 12.5 60.2 34.7 23-12.5-60.2-34.7z" fill="url(#ad)"/><linearGradient id="ae" gradientUnits="userSpaceOnUse" x1="1916.092" y1="567.731" x2="1646.476" y2="453.43" gradientTransform="translate(0 236)"><stop offset="0" stop-color="#fff"/><stop offset=".01" stop-color="#fffdfd"/><stop offset=".502" stop-color="#e79194"/><stop offset=".842" stop-color="#d84e51"/><stop offset="1" stop-color="#d33338"/></linearGradient><path d="m1722.3 880-23 12.5V553.4l23-12.5V880z" fill="url(#ae)"/></g><path class="numbers" d="m1068.2 743.9-3.5 2-2.4-1.4c.9-.5 1.6-1 2-1.4s.6-.8.6-1.3c0-.4-.3-.9-.7-1.5l2.2-1.3 21.2 12.2-3.3 1.9-16.1-9.2zm23.5 3.8c-1.8 0-3.5-.5-5.2-1.5l-11.1-6.4c-1.7-1-2.6-2-2.6-3-.1-1 .7-2 2.3-3 1.6-.9 3.3-1.4 5.1-1.3 1.8 0 3.5.5 5.2 1.5l11.1 6.4c1.7 1 2.6 2 2.6 3 .1 1-.7 2-2.3 3-1.6.9-3.3 1.3-5.1 1.3zm1.7-5.3-11.6-6.7c-1.4-.8-2.7-.9-3.8-.2-1.1.7-1 1.4.4 2.2l11.6 6.7c1.4.8 2.7.9 3.8.2 1.2-.7 1-1.4-.4-2.2zm.7-6.7c-1.1 0-2.2-.4-3.3-1l-5.3-3.1c-1.1-.6-1.7-1.3-1.7-1.9 0-.7.5-1.3 1.5-1.9 1-.6 2.1-.9 3.3-.9 1.1 0 2.2.4 3.3 1l5.3 3.1c1.1.6 1.7 1.3 1.7 1.9 0 .7-.5 1.3-1.5 1.9-1.1.6-2.1.9-3.3.9zm1.1-3.4-5.6-3.2c-.9-.5-1.7-.6-2.4-.1-.7.4-.6.9.3 1.4l5.6 3.2c.9.5 1.7.6 2.4.1.7-.4.6-.9-.3-1.4zm-1.9-8.7 2.1-1.2 13 16.9-2.1 1.2-13-16.9zm19.8 12.3c-1.1 0-2.2-.4-3.3-1l-5.3-3.1c-1.1-.6-1.7-1.3-1.7-1.9 0-.7.5-1.3 1.5-1.9 1-.6 2.1-.9 3.3-.9 1.1 0 2.2.4 3.3 1l5.3 3.1c1.1.6 1.7 1.3 1.7 1.9 0 .7-.5 1.3-1.5 1.9-1.1.7-2.2 1-3.3.9zm1.1-3.3-5.6-3.2c-.9-.5-1.7-.6-2.4-.1-.7.4-.6.9.2 1.4l5.6 3.2c.9.5 1.7.6 2.4.1.8-.4.7-.9-.2-1.4zm35.4 64.2c-1.5-.9-2.6-1.8-3.2-2.7s-.9-2.1-1-3.6-.4-2.6-.8-3.4c-.5-.8-1.2-1.5-2.2-2.1-.9-.5-1.7-.8-2.3-.8-.6 0-1.2.1-1.8.4-1.1.7-1 1.4.4 2.2l2.3 1.3-3.1 1.8-2.1-1.2c-1.7-1-2.6-2-2.7-3s.7-2 2.3-2.9c1.6-.9 3.3-1.4 5-1.3 1.8 0 3.5.6 5.2 1.6 1.3.7 2.2 1.7 2.9 2.7.6 1.1 1 2.5 1.1 4.3.1 1.2.3 2 .6 2.6.3.6.8 1.1 1.6 1.5l.5.3 6.3-3.6 3 1.7-9.6 5.5-2.4-1.3zm14.4-6.9c-1.8 0-3.5-.5-5.2-1.5l-11.1-6.4c-1.7-1-2.6-2-2.6-3-.1-1 .7-2 2.3-3 1.6-.9 3.3-1.4 5.1-1.3 1.8 0 3.5.5 5.2 1.5l11.1 6.4c1.7 1 2.6 2 2.6 3 .1 1-.7 2-2.3 3-1.6.9-3.3 1.3-5.1 1.3zm1.7-5.3-11.6-6.7c-1.4-.8-2.7-.9-3.8-.2-1.1.7-1 1.4.4 2.2l11.6 6.7c1.4.8 2.7.9 3.8.2 1.1-.7 1-1.4-.4-2.2zm.7-6.7c-1.1 0-2.2-.4-3.3-1l-5.3-3.1c-1.1-.6-1.7-1.3-1.7-1.9 0-.7.5-1.3 1.5-1.9 1-.6 2.1-.9 3.3-.9 1.1 0 2.2.4 3.3 1l5.3 3.1c1.1.6 1.7 1.3 1.7 1.9s-.5 1.3-1.5 1.9c-1.1.6-2.2.9-3.3.9zm1.1-3.4-5.6-3.2c-.9-.5-1.7-.6-2.4-.1-.7.4-.6.9.3 1.4l5.6 3.2c.9.5 1.7.6 2.4.1.7-.4.6-.9-.3-1.4zm-2-8.7 2.1-1.2 13 16.9-2.1 1.2-13-16.9zm19.9 12.4c-1.1 0-2.2-.4-3.3-1l-5.3-3.1c-1.1-.6-1.7-1.3-1.7-1.9 0-.7.5-1.3 1.5-1.9 1-.6 2.1-.9 3.3-.9 1.1 0 2.2.4 3.3 1l5.3 3.1c1.1.6 1.7 1.3 1.7 1.9 0 .7-.5 1.3-1.5 1.9-1.1.6-2.2.9-3.3.9zm1.1-3.4-5.6-3.2c-.9-.5-1.7-.6-2.4-.1-.7.4-.6.9.2 1.4l5.6 3.2c.9.5 1.7.6 2.4.1.7-.4.7-.9-.2-1.4zm27.3 57.6c-1.7 0-3.5-.6-5.2-1.5l-1.7-1 3.1-1.8 1.9 1.1c1.4.8 2.7.9 3.8.2.6-.3.8-.7.7-1-.1-.4-.5-.8-1.4-1.3l-1.7-1c-1-.6-1.8-.9-2.6-.9s-1.5.2-2.3.6l-1.1.6-3-1.7 1.2-.7c.7-.4 1-.8 1-1.2s-.4-.8-1.2-1.3l-1.5-.9c-.7-.4-1.4-.6-2.1-.7-.6 0-1.2.1-1.7.4-1.1.6-.9 1.3.4 2.1l1.4.8-3.1 1.8-1.1-.6c-1.7-1-2.6-2-2.7-3s.7-2 2.2-2.9c1.6-.9 3.2-1.3 5-1.3 1.7 0 3.4.6 5.1 1.5l.8.4c1.2.7 1.9 1.3 2.2 1.9.3.6.2 1.3-.3 1.9h.1c1.2-.3 2.3-.4 3.4-.2s2.2.6 3.4 1.3l1.9 1.1c1.7 1 2.6 2 2.6 3 .1 1-.7 2-2.3 2.9-1.7 1-3.4 1.4-5.2 1.4zm12.1-7c-1.8 0-3.5-.5-5.2-1.5l-11.1-6.4c-1.7-1-2.6-2-2.6-3-.1-1 .7-2 2.3-3 1.6-.9 3.3-1.4 5.1-1.3 1.8 0 3.5.5 5.2 1.5l11.1 6.4c1.7 1 2.6 2 2.6 3 .1 1-.7 2-2.3 3-1.6.9-3.3 1.3-5.1 1.3zm1.7-5.3-11.6-6.7c-1.4-.8-2.7-.9-3.8-.2-1.1.7-1 1.4.4 2.2l11.6 6.7c1.4.8 2.7.9 3.8.2 1.1-.7 1-1.4-.4-2.2zm.7-6.7c-1.1 0-2.2-.4-3.3-1l-5.3-3.1c-1.1-.6-1.7-1.3-1.7-1.9 0-.7.5-1.3 1.5-1.9 1-.6 2.1-.9 3.3-.9 1.1 0 2.2.4 3.3 1l5.3 3.1c1.1.6 1.7 1.3 1.7 1.9 0 .7-.5 1.3-1.5 1.9-1.1.6-2.2.9-3.3.9zm1.1-3.4-5.6-3.2c-.9-.5-1.7-.6-2.4-.1-.7.4-.6.9.3 1.4l5.6 3.2c.9.5 1.7.6 2.4.1.7-.4.6-.9-.3-1.4zm-2-8.7 2.1-1.2 13 16.9-2.1 1.2-13-16.9zm19.8 12.3c-1.1 0-2.2-.4-3.3-1l-5.3-3.1c-1.1-.6-1.7-1.3-1.7-1.9 0-.7.5-1.3 1.5-1.9 1-.6 2.1-.9 3.3-.9 1.1 0 2.2.4 3.3 1l5.3 3.1c1.1.6 1.7 1.3 1.7 1.9 0 .7-.5 1.3-1.5 1.9-1 .7-2.1 1-3.3.9zm1.1-3.3-5.6-3.2c-.9-.5-1.7-.6-2.4-.1-.7.4-.6.9.2 1.4l5.6 3.2c.9.5 1.7.6 2.4.1.8-.4.7-.9-.2-1.4zm-.4 41.4c-1.7 0-3.5-.6-5.2-1.5l-1.7-1 3.1-1.8 1.9 1.1c1.4.8 2.7.9 3.8.2.6-.3.8-.7.7-1-.1-.4-.5-.8-1.4-1.3l-1.7-1c-1-.6-1.8-.9-2.6-.9s-1.5.2-2.3.6l-1.1.6-3-1.7 1.2-.7c.7-.4 1-.8 1-1.2s-.4-.8-1.2-1.3l-1.5-.9c-.7-.4-1.4-.6-2.1-.7-.6 0-1.2.1-1.7.4-1.1.6-.9 1.3.4 2.1l1.4.8-3.1 1.8-1.1-.6c-1.7-1-2.6-2-2.7-3s.7-2 2.2-2.9c1.6-.9 3.2-1.3 5-1.3 1.7 0 3.4.6 5.1 1.5l.8.4c1.2.7 1.9 1.3 2.2 1.9.3.6.2 1.3-.3 1.9h.1c1.2-.3 2.3-.4 3.4-.2s2.2.6 3.4 1.3l1.9 1.1c1.7 1 2.6 2 2.6 3 .1 1-.7 2-2.3 2.9-1.8 1-3.4 1.5-5.2 1.4zm12.2-7c-1.8 0-3.5-.6-5.2-1.6l-1.7-1 3.1-1.8 1.9 1.1c1.4.8 2.6.9 3.8.2 1.1-.7 1-1.4-.3-2.2l-4.8-2.7c-1.4-.8-2.7-.9-3.8-.2-1.1.7-1 1.4.4 2.2l.2.1-3.1 1.8-11.2-7.2 8.7-5 3 1.7-5.8 3.3 4.8 3.1h.1c-.4-1 0-1.8 1.3-2.5 1.2-.7 2.5-1 4-.9 1.4.1 3 .6 4.5 1.5l4.8 2.8c1.7 1 2.6 2 2.7 3s-.7 2-2.3 2.9c-1.6 1-3.3 1.4-5.1 1.4zm2.3-12c-1.1 0-2.2-.4-3.3-1l-5.3-3.1c-1.1-.6-1.7-1.3-1.7-1.9 0-.7.5-1.3 1.5-1.9 1-.6 2.1-.9 3.3-.9 1.1 0 2.2.4 3.3 1l5.3 3.1c1.1.6 1.7 1.3 1.7 1.9 0 .7-.5 1.3-1.5 1.9-1.1.6-2.2.9-3.3.9zm1.1-3.3-5.6-3.2c-.9-.5-1.7-.6-2.4-.1-.7.4-.6.9.3 1.4l5.6 3.2c.9.5 1.7.6 2.4.1s.6-.9-.3-1.4zm-2-8.8 2.1-1.2 13 16.9-2.1 1.2-13-16.9zm19.8 12.4c-1.1 0-2.2-.4-3.3-1l-5.3-3.1c-1.1-.6-1.7-1.3-1.7-1.9 0-.7.5-1.3 1.5-1.9 1-.6 2.1-.9 3.3-.9 1.1 0 2.2.4 3.3 1l5.3 3.1c1.1.6 1.7 1.3 1.7 1.9 0 .7-.5 1.3-1.5 1.9-1 .6-2.1.9-3.3.9zm1.1-3.4-5.6-3.2c-.9-.5-1.7-.6-2.4-.1-.7.4-.6.9.2 1.4l5.6 3.2c.9.5 1.7.6 2.4.1.8-.4.7-.9-.2-1.4zm26.1 52.3-6.3 3.6-3-1.7-8.3-11.7 3.6-2.1 14.3 8.3 1.6-.9 3 1.7-1.6.9 3.8 2.2-3.3 1.9-3.8-2.2zm-3-1.8-8.3-4.8h-.1l5 6.6 3.4-1.8zm13.4-1.1c-1.8 0-3.5-.6-5.2-1.6l-1.7-1 3.1-1.8 1.9 1.1c1.4.8 2.6.9 3.8.2 1.1-.7 1-1.4-.3-2.2l-4.8-2.7c-1.4-.8-2.7-.9-3.8-.2-1.1.7-1 1.4.4 2.2l.2.1-3.1 1.8-11.2-7.2 8.7-5 3 1.7-5.8 3.3 4.8 3.1h.1c-.4-1 0-1.8 1.3-2.5 1.2-.7 2.5-1 4-.9 1.4.1 3 .6 4.5 1.5l4.8 2.8c1.7 1 2.6 2 2.7 3s-.7 2-2.3 2.9c-1.6 1-3.3 1.5-5.1 1.4zm2.3-11.9c-1.1 0-2.2-.4-3.3-1l-5.3-3.1c-1.1-.6-1.7-1.3-1.7-1.9 0-.7.5-1.3 1.5-1.9 1-.6 2.1-.9 3.3-.9 1.1 0 2.2.4 3.3 1l5.3 3.1c1.1.6 1.7 1.3 1.7 1.9 0 .7-.5 1.3-1.5 1.9-1.1.6-2.2.9-3.3.9zm1.1-3.4-5.6-3.2c-.9-.5-1.7-.6-2.4-.1-.7.4-.6.9.2 1.4l5.6 3.2c.9.5 1.7.6 2.4.1.8-.4.7-.9-.2-1.4zm-2-8.7 2.1-1.2 13 16.9-2.1 1.2-13-16.9zm19.9 12.4c-1.1 0-2.2-.4-3.3-1l-5.3-3.1c-1.1-.6-1.7-1.3-1.7-1.9 0-.7.5-1.3 1.5-1.9 1-.6 2.1-.9 3.3-.9 1.1 0 2.2.4 3.3 1l5.3 3.1c1.1.6 1.7 1.3 1.7 1.9 0 .7-.5 1.3-1.5 1.9-1.1.6-2.2.9-3.3.9zm1.1-3.4-5.6-3.2c-.9-.5-1.7-.6-2.4-.1-.7.4-.6.9.3 1.4l5.6 3.2c.9.5 1.7.6 2.4.1.6-.4.6-.9-.3-1.4zm19.8 53.2c-1.8 0-3.5-.6-5.2-1.6l-1.7-1 3.1-1.8 1.9 1.1c1.4.8 2.6.9 3.8.2 1.1-.7 1-1.4-.3-2.2l-4.8-2.7c-1.4-.8-2.7-.9-3.8-.2-1.1.7-1 1.4.4 2.2l.2.1-3.1 1.8-11.2-7.2 8.7-5 3 1.7-5.8 3.3 4.8 3.1h.1c-.4-1 0-1.8 1.3-2.5 1.2-.7 2.5-1 4-.9 1.4.1 3 .6 4.5 1.5l4.8 2.8c1.7 1 2.6 2 2.7 3s-.7 2-2.3 2.9c-1.7 1-3.4 1.4-5.1 1.4zm12-6.9c-1.8 0-3.5-.6-5.2-1.6l-1.7-1 3.1-1.8 1.9 1.1c1.4.8 2.6.9 3.8.2 1.1-.7 1-1.4-.3-2.2l-4.8-2.7c-1.4-.8-2.7-.9-3.8-.2-1.1.7-1 1.4.4 2.2l.2.1-3.1 1.8-11.2-7.2 8.7-5 3 1.7-5.8 3.3 4.8 3.1h.1c-.4-1 0-1.8 1.3-2.5 1.2-.7 2.5-1 4-.9 1.4.1 3 .6 4.5 1.5l4.8 2.8c1.7 1 2.6 2 2.7 3s-.7 2-2.3 2.9c-1.6 1-3.3 1.4-5.1 1.4zm2.3-12c-1.1 0-2.2-.4-3.3-1l-5.3-3.1c-1.1-.6-1.7-1.3-1.7-1.9s.5-1.3 1.5-1.9c1-.6 2.1-.9 3.3-.9 1.1 0 2.2.4 3.3 1l5.3 3.1c1.1.6 1.7 1.3 1.7 1.9 0 .7-.5 1.3-1.5 1.9-1.1.6-2.2.9-3.3.9zm1.1-3.4-5.6-3.2c-.9-.5-1.7-.6-2.4-.1-.7.4-.6.9.2 1.4l5.6 3.2c.9.5 1.7.6 2.4.1.8-.4.7-.9-.2-1.4zm-2-8.7 2.1-1.2 13 16.9-2.1 1.2-13-16.9zm19.8 12.4c-1.1 0-2.2-.4-3.3-1l-5.3-3.1c-1.1-.6-1.7-1.3-1.7-1.9 0-.7.5-1.3 1.5-1.9 1-.6 2.1-.9 3.3-.9 1.1 0 2.2.4 3.3 1l5.3 3.1c1.1.6 1.7 1.3 1.7 1.9s-.5 1.3-1.5 1.9c-1 .6-2.1.9-3.3.9zm1.1-3.4-5.6-3.2c-.9-.5-1.7-.6-2.4-.1-.7.4-.6.9.3 1.4l5.6 3.2c.9.5 1.7.6 2.4.1.7-.4.6-.9-.3-1.4zm1.9 42.7c-1.8 0-3.5-.5-5.2-1.5l-11-6.3c-3.7-2.1-3.8-4.2-.5-6.1 1.6-.9 3.3-1.4 5.1-1.3 1.8 0 3.5.6 5.2 1.6l.4.2-3.1 1.8-.6-.3c-1.4-.8-2.7-.9-3.8-.2-.6.4-.9.7-.8 1.1.1.4.6.9 1.6 1.4l4.1 2.3h.1c-.6-1-.3-2 1.2-2.8 1.2-.7 2.5-1 4-.9 1.4.1 3 .6 4.5 1.5l3.8 2.2c1.7 1 2.6 2 2.6 3 .1 1-.7 2-2.3 3-1.8.9-3.5 1.3-5.3 1.3zm1.7-5.3-3.8-2.2c-1.4-.8-2.7-.9-3.8-.2-1.1.7-1 1.4.4 2.2l3.8 2.2c1.4.8 2.6.9 3.8.2 1.1-.7 1-1.4-.4-2.2zm10.2-1.6c-1.8 0-3.5-.5-5.2-1.5l-11.1-6.4c-1.7-1-2.6-2-2.6-3-.1-1 .7-2 2.3-3 1.6-.9 3.3-1.4 5.1-1.3 1.8 0 3.5.5 5.2 1.5l11.1 6.4c1.7 1 2.6 2 2.6 3 .1 1-.7 2-2.3 3-1.6.9-3.3 1.3-5.1 1.3zm1.7-5.3-11.6-6.7c-1.4-.8-2.7-.9-3.8-.2-1.1.7-1 1.4.4 2.2l11.6 6.7c1.4.8 2.7.9 3.8.2 1.2-.7 1-1.4-.4-2.2zm.7-6.7c-1.1 0-2.2-.4-3.3-1l-5.3-3.1c-1.1-.6-1.7-1.3-1.7-1.9 0-.7.5-1.3 1.5-1.9 1-.6 2.1-.9 3.3-.9 1.1 0 2.2.4 3.3 1l5.3 3.1c1.1.6 1.7 1.3 1.7 1.9 0 .7-.5 1.3-1.5 1.9-1.1.6-2.1.9-3.3.9zm1.1-3.4-5.6-3.2c-.9-.5-1.7-.6-2.4-.1-.7.4-.6.9.2 1.4l5.6 3.2c.9.5 1.7.6 2.4.1.8-.4.7-.9-.2-1.4zm-2-8.7 2.1-1.2 13 16.9-2.1 1.2-13-16.9zm19.9 12.3c-1.1 0-2.2-.4-3.3-1l-5.3-3.1c-1.1-.6-1.7-1.3-1.7-1.9 0-.7.5-1.3 1.5-1.9 1-.6 2.1-.9 3.3-.9 1.1 0 2.2.4 3.3 1l5.3 3.1c1.1.6 1.7 1.3 1.7 1.9 0 .7-.5 1.3-1.5 1.9-1.1.7-2.2 1-3.3.9zm1.1-3.3-5.6-3.2c-.9-.5-1.7-.6-2.4-.1-.7.4-.6.9.3 1.4l5.6 3.2c.9.5 1.7.6 2.4.1.7-.4.6-.9-.3-1.4zm25.3 56.5c-1.8 0-3.5-.5-5.2-1.5l-1.9-1.1c-1.1-.6-1.8-1.2-2.1-1.8-.4-.6-.4-1.3 0-1.9h-.1c-1.1.2-2.1.2-3.1 0s-2-.6-3.1-1.2l-.9-.5c-1.7-1-2.6-2-2.6-3s.8-2 2.4-2.9 3.3-1.4 5.1-1.4c1.8 0 3.5.5 5.2 1.5l.9.5c2 1.2 2.7 2.4 2.1 3.6h.1c1.2-.2 2.3-.2 3.3 0 1.1.2 2.1.6 3.2 1.2l1.9 1.1c1.7 1 2.5 2 2.6 3 0 1-.8 2-2.5 3-1.8.9-3.5 1.4-5.3 1.4zm-8-11.1-1.7-1c-1.4-.8-2.7-.9-3.9-.2-1.2.7-1 1.4.4 2.2l1.7 1c1.4.8 2.7.9 3.9.2 1.1-.7 1-1.4-.4-2.2zm9.6 5.4-2-1.2c-1.6-.9-3-1-4.3-.3-1.2.7-1.1 1.5.5 2.5l2 1.2c1.6.9 3 1 4.3.3s1.1-1.5-.5-2.5zm10.5-1.4c-1.8 0-3.5-.5-5.2-1.5l-11.1-6.4c-1.7-1-2.6-2-2.6-3-.1-1 .7-2 2.3-3 1.6-.9 3.3-1.4 5.1-1.3 1.8 0 3.5.5 5.2 1.5l11.1 6.4c1.7 1 2.6 2 2.6 3 .1 1-.7 2-2.3 3-1.6.9-3.3 1.4-5.1 1.3zm1.7-5.2-11.6-6.7c-1.4-.8-2.7-.9-3.8-.2-1.1.7-1 1.4.4 2.2l11.6 6.7c1.4.8 2.7.9 3.8.2 1.1-.7 1-1.4-.4-2.2zm.7-6.8c-1.1 0-2.2-.4-3.3-1l-5.3-3.1c-1.1-.6-1.7-1.3-1.7-1.9 0-.7.5-1.3 1.5-1.9 1-.6 2.1-.9 3.3-.9 1.1 0 2.2.4 3.3 1l5.3 3.1c1.1.6 1.7 1.3 1.7 1.9 0 .7-.5 1.3-1.5 1.9-1.1.7-2.2 1-3.3.9zm1.1-3.3-5.6-3.2c-.9-.5-1.7-.6-2.4-.1-.7.4-.6.9.3 1.4l5.6 3.2c.9.5 1.7.6 2.4.1s.6-.9-.3-1.4zm-2-8.7 2.1-1.2 13 16.9-2.1 1.2-13-16.9zm19.9 12.3c-1.1 0-2.2-.4-3.3-1l-5.3-3.1c-1.1-.6-1.7-1.3-1.7-1.9 0-.7.5-1.3 1.5-1.9 1-.6 2.1-.9 3.3-.9 1.1 0 2.2.4 3.3 1l5.3 3.1c1.1.6 1.7 1.3 1.7 1.9 0 .7-.5 1.3-1.5 1.9-1.1.6-2.2.9-3.3.9zm1.1-3.4-5.6-3.2c-.9-.5-1.7-.6-2.4-.1-.7.4-.6.9.2 1.4l5.6 3.2c.9.5 1.7.6 2.4.1.7-.4.7-.8-.2-1.4zm24.4 56c-1.8 0-3.5-.6-5.2-1.6l-.4-.2 3.1-1.8.6.3c1.4.8 2.7.9 3.8.2.6-.4.9-.7.8-1.1-.1-.4-.6-.9-1.6-1.4l-4.1-2.3h-.1c.7 1 .3 2-1.2 2.8-1.2.7-2.5 1-4 .9-1.4-.1-3-.6-4.5-1.5l-3.8-2.2c-1.7-1-2.6-2-2.6-3-.1-1 .7-2 2.3-3 1.6-.9 3.3-1.4 5.1-1.4 1.8 0 3.5.5 5.2 1.5l11 6.3c3.7 2.1 3.8 4.2.5 6.1-1.5 1.1-3.2 1.5-4.9 1.4zm-6.2-9.8-3.8-2.2c-1.4-.8-2.6-.9-3.8-.2-1.1.7-1 1.4.3 2.2l3.8 2.2c1.4.8 2.7.9 3.8.2 1.2-.6 1.1-1.4-.3-2.2zm18.2 2.9c-1.8 0-3.5-.5-5.2-1.5l-11.1-6.4c-1.7-1-2.6-2-2.6-3-.1-1 .7-2 2.3-3 1.6-.9 3.3-1.4 5.1-1.3 1.8 0 3.5.5 5.2 1.5l11.1 6.4c1.7 1 2.6 2 2.6 3 .1 1-.7 2-2.3 3-1.6.8-3.3 1.3-5.1 1.3zm1.8-5.3-11.6-6.7c-1.4-.8-2.7-.9-3.8-.2-1.1.7-1 1.4.4 2.2l11.6 6.7c1.4.8 2.7.9 3.8.2 1.1-.7 1-1.4-.4-2.2zm.7-6.8c-1.1 0-2.2-.4-3.3-1l-5.3-3.1c-1.1-.6-1.7-1.3-1.7-1.9 0-.7.5-1.3 1.5-1.9 1-.6 2.1-.9 3.3-.9 1.1 0 2.2.4 3.3 1l5.3 3.1c1.1.6 1.7 1.3 1.7 1.9 0 .7-.5 1.3-1.5 1.9-1.1.7-2.2 1-3.3.9zm1.1-3.3-5.6-3.2c-.9-.5-1.7-.6-2.4-.1-.7.4-.6.9.3 1.4l5.6 3.2c.9.5 1.7.6 2.4.1.6-.4.5-.9-.3-1.4zm-2-8.7 2.1-1.2 13 16.9-2.1 1.2-13-16.9zm19.8 12.3c-1.1 0-2.2-.4-3.3-1l-5.3-3.1c-1.1-.6-1.7-1.3-1.7-1.9 0-.7.5-1.3 1.5-1.9 1-.6 2.1-.9 3.3-.9 1.1 0 2.2.4 3.3 1l5.3 3.1c1.1.6 1.7 1.3 1.7 1.9 0 .7-.5 1.3-1.5 1.9-1.1.7-2.2.9-3.3.9zm1.1-3.3-5.6-3.2c-.9-.5-1.7-.6-2.4-.1-.7.4-.6.9.2 1.4l5.6 3.2c.9.5 1.7.6 2.4.1.8-.5.7-.9-.2-1.4z" fill="#cc151a"/><g class="dart dart-1"><linearGradient id="af" gradientUnits="userSpaceOnUse" x1="1317.917" y1="13.081" x2="2052.331" y2="431.589" gradientTransform="translate(0 236)"><stop offset="0" stop-color="#212121"/><stop offset="1" stop-color="#d12d31"/></linearGradient><path d="M1666.9 379.9c-32.7-18.9-59.3-3.8-59.3 33.8s26.5 83.4 59.3 102.3c32.7 18.9 59.3 3.8 59.3-33.8-.1-37.6-26.6-83.4-59.3-102.3zm0 122.5c-26.2-15.1-47.4-51.8-47.4-81.8 0-30.1 21.2-42.2 47.4-27 26.2 15.1 47.4 51.8 47.4 81.8s-21.2 42.1-47.4 27z" fill="url(#af)"/><linearGradient id="ag" gradientUnits="userSpaceOnUse" x1="1684.983" y1="278.512" x2="1620.384" y2="160.047" gradientTransform="translate(0 236)"><stop offset="0" stop-color="#1d1d1d"/><stop offset=".05" stop-color="#341c1d"/><stop offset=".154" stop-color="#6f1b1d"/><stop offset=".303" stop-color="#cd181d"/><stop offset=".5" stop-color="#d53f43"/><stop offset=".535" stop-color="#d7474a"/><stop offset=".818" stop-color="#cc151a"/><stop offset=".88" stop-color="#94181b"/><stop offset="1" stop-color="#1d1d1d"/></linearGradient><path d="M1636.9 388.4c-10.7 3.8-17.5 15.1-17.5 32.1 0 30.1 21.2 66.7 47.4 81.8 15.3 8.9 28.9 8.3 37.6.4-8.2 3-18.6 1.6-30-5-26.2-15.1-47.4-51.8-47.4-81.8 0-12.5 3.7-21.9 9.9-27.5z" fill="url(#ag)"/><linearGradient id="ah" gradientUnits="userSpaceOnUse" x1="1648.709" y1="125.103" x2="1731.292" y2="270.635" gradientTransform="translate(0 236)"><stop offset="0" stop-color="#1d1d1d"/><stop offset=".05" stop-color="#341c1d"/><stop offset=".154" stop-color="#6f1b1d"/><stop offset=".303" stop-color="#cd181d"/><stop offset=".5" stop-color="#d53f43"/><stop offset=".535" stop-color="#d7474a"/><stop offset=".818" stop-color="#cc151a"/><stop offset=".88" stop-color="#94181b"/><stop offset="1" stop-color="#1d1d1d"/></linearGradient><path d="M1674.4 375.3c-16.8-9.7-32-10.4-42.8-3.7l-8.5 5.2c10.8-7.3 26.4-6.8 43.7 3.2 32.7 18.9 59.3 64.7 59.3 102.3 0 17.3-5.6 29.8-14.9 36.5l4.4-2.6c11.1-5.9 18-19.3 18-38.4.1-37.8-26.4-83.6-59.2-102.5z" fill="url(#ah)"/><radialGradient id="ai" cx="1675.55" cy="209.737" r="63.762" gradientTransform="translate(0 236)" gradientUnits="userSpaceOnUse"><stop offset="0" stop-color="#fff"/><stop offset="1"/></radialGradient><path d="M1667.4 379.6c-16.9-9.8-32.2-10.4-43-3.6 10.7-6.1 25.5-5.2 41.9 4.3 32.7 18.9 59.3 64.7 59.3 102.3 0 18.1-6.2 31-16.3 37.4 10.7-6.1 17.4-19.3 17.4-38.1 0-37.6-26.6-83.4-59.3-102.3z" fill="url(#ai)"/><radialGradient id="aj" cx="1659.75" cy="213.741" r="51" gradientTransform="translate(0 236)" gradientUnits="userSpaceOnUse"><stop offset="0" stop-color="#fff"/><stop offset="1"/></radialGradient><path d="M1618.9 420.9c0 30.1 21.2 66.7 47.4 81.8 13.5 7.8 25.7 8.3 34.3 2.9-8.6 4.7-20.3 3.9-33.2-3.6-26.2-15.1-47.4-51.8-47.4-81.8 0-14.5 5-24.8 13.1-29.9-8.8 4.9-14.2 15.4-14.2 30.6z" fill="url(#aj)"/><radialGradient id="ak" cx="-12529.445" cy="3334.662" r="16.776" gradientTransform="matrix(.2021 .4056 .8951 -.4459 1260.035 6992.052)" gradientUnits="userSpaceOnUse"><stop offset="0" stop-color="#fff"/><stop offset="1" stop-color="#fff" stop-opacity="0"/></radialGradient><path d="M1716 429.8c8.3-4.1 13.5-10.5 11.6-14.3s-10.1-3.5-18.4.7c-8.3 4.1-13.5 10.5-11.6 14.3 1.9 3.7 10.2 3.4 18.4-.7z" fill="url(#ak)"/></g><g class="dart dart-2"><linearGradient id="al" gradientUnits="userSpaceOnUse" x1="1677.213" y1="244.153" x2="1642.382" y2="184.617" gradientTransform="translate(0 236)"><stop offset="0" stop-color="#1d1d1d"/><stop offset=".05" stop-color="#341c1d"/><stop offset=".154" stop-color="#6f1b1d"/><stop offset=".303" stop-color="#cd181d"/><stop offset=".5" stop-color="#d53f43"/><stop offset=".535" stop-color="#d7474a"/><stop offset=".818" stop-color="#cc151a"/><stop offset=".88" stop-color="#94181b"/><stop offset="1" stop-color="#1d1d1d"/></linearGradient><path d="M1643.1 434.2c0 15 10.6 33.3 23.7 40.9 8.7 5 16.2 4 20.4-1.6-3.7.6-8.1-.3-12.8-3-13.1-7.6-23.7-25.9-23.7-40.9 0-5.1 1.3-9.2 3.4-12-6.6 1.1-11 7-11 16.6z" fill="url(#al)"/><linearGradient id="am" gradientUnits="userSpaceOnUse" x1="1658.142" y1="158.543" x2="1705.947" y2="247.062" gradientTransform="translate(0 236)"><stop offset="0" stop-color="#1d1d1d"/><stop offset=".05" stop-color="#341c1d"/><stop offset=".154" stop-color="#6f1b1d"/><stop offset=".303" stop-color="#cd181d"/><stop offset=".5" stop-color="#d53f43"/><stop offset=".535" stop-color="#d7474a"/><stop offset=".818" stop-color="#cc151a"/><stop offset=".88" stop-color="#94181b"/><stop offset="1" stop-color="#1d1d1d"/></linearGradient><path d="M1674.4 402.5c-9.4-5.5-18-6.1-24.4-2.9l-.1-.1-9 5.5h.1c6.5-4.2 15.7-3.8 25.9 2.1 19.6 11.3 35.6 38.8 35.6 61.4 0 10.5-3.5 18-9.1 22l6-3.6.6-.3.5-.3c5.9-3.9 9.6-11.5 9.6-22.3-.1-22.7-16-50.1-35.7-61.5z" fill="url(#am)"/><linearGradient id="an" gradientUnits="userSpaceOnUse" x1="1457.494" y1="92.619" x2="1898.139" y2="343.722" gradientTransform="translate(0 236)"><stop offset="0" stop-color="#212121"/><stop offset="1" stop-color="#d12d31"/></linearGradient><path d="M1666.9 407.1c-19.6-11.3-35.6-2.3-35.6 20.3 0 22.5 15.9 50 35.6 61.4 19.6 11.3 35.6 2.3 35.6-20.3-.1-22.6-16-50.1-35.6-61.4zm0 68c-13.1-7.6-23.7-25.9-23.7-40.9s10.6-21.1 23.7-13.5 23.7 25.9 23.7 40.9-10.6 21.1-23.7 13.5z" fill="url(#an)"/><radialGradient id="ao" cx="1663.25" cy="212.975" r="25.573" gradientTransform="translate(0 236)" gradientUnits="userSpaceOnUse"><stop offset="0" stop-color="#fff"/><stop offset="1"/></radialGradient><path d="M1643.7 434c0 15 10.6 33.3 23.7 40.9 6.4 3.7 12.2 4.1 16.5 1.8-4.3 3-10.6 2.8-17.6-1.2-13.1-7.6-23.7-25.9-23.7-40.9 0-7.7 2.8-13 7.2-15.4-3.8 2.7-6.1 7.7-6.1 14.8z" fill="url(#ao)"/><radialGradient id="ap" cx="1672.25" cy="210.581" r="38.317" gradientTransform="translate(0 236)" gradientUnits="userSpaceOnUse"><stop offset="0" stop-color="#fff"/><stop offset="1"/></radialGradient><path d="M1692.3 491.2c6.6-3.6 10.7-11.5 10.7-23 0-22.5-15.9-50-35.6-61.4-10.2-5.9-19.4-6.2-25.9-2 6.4-3.5 15.2-2.9 24.9 2.7 19.6 11.3 35.6 38.8 35.6 61.4-.1 10.8-3.8 18.4-9.7 22.3z" fill="url(#ap)"/></g><g class="dart dart-3"><linearGradient id="aq" gradientUnits="userSpaceOnUse" x1="1597.068" y1="172.156" x2="1743.953" y2="255.859" gradientTransform="translate(0 236)"><stop offset=".035" stop-color="#cc151a"/><stop offset=".232" stop-color="#cf2429"/><stop offset=".614" stop-color="#d84d51"/><stop offset="1" stop-color="#e27c7f"/></linearGradient><path d="M1666.9 434.3c-6.5-3.8-11.9-.8-11.9 6.8s5.3 16.7 11.9 20.5c6.5 3.8 11.9.8 11.9-6.8-.1-7.5-5.4-16.7-11.9-20.5z" fill="url(#aq)"/><linearGradient id="ar" gradientUnits="userSpaceOnUse" x1="1665.951" y1="191.45" x2="1682.961" y2="222.231" gradientTransform="translate(0 236)"><stop offset=".035" stop-color="#cc151a"/><stop offset=".157" stop-color="#cf2429"/><stop offset=".393" stop-color="#d84d51"/><stop offset=".631" stop-color="#e27c7f"/><stop offset=".874" stop-color="#da565a"/></linearGradient><path d="M1686.3 450.2c0-7.5-5.3-16.7-11.9-20.5-2.8-1.6-5.4-1.9-7.4-1.2l-.1-.1-.7.4c-.1 0-.1.1-.2.1l-7.5 4.5c2.1-1.2 5.1-1 8.4.9 6.5 3.8 11.9 12.9 11.9 20.5 0 3.6-1.2 6.1-3.2 7.4l7.2-4.3.1-.1c2.1-1.4 3.4-3.9 3.4-7.6z" fill="url(#ar)"/><radialGradient id="as" cx="1668.823" cy="211.362" r="12.861" gradientTransform="translate(0 236)" gradientUnits="userSpaceOnUse"><stop offset="0" stop-color="#fff"/><stop offset="1"/></radialGradient><path d="M1675.3 462.3c2.4-1.1 3.9-3.8 3.9-7.8 0-7.5-5.3-16.7-11.9-20.5-3.6-2.1-6.8-2-9-.3 2.1-1 4.9-.7 7.9 1 6.5 3.8 11.9 12.9 11.9 20.5.1 3.3-1 5.7-2.8 7.1z" fill="url(#as)"/><radialGradient id="at" cx="-13026.751" cy="3550.345" r="11.89" gradientTransform="matrix(.2238 .394 .8695 -.494 1504.447 7329.802)" gradientUnits="userSpaceOnUse"><stop offset="0" stop-color="#eee"/><stop offset="1" stop-color="#fff" stop-opacity="0"/></radialGradient><path d="M1678 448.1c5.7-3.2 9.1-8 7.7-10.6-1.5-2.6-7.3-2.1-13 1.2s-9.1 8-7.7 10.6c1.5 2.6 7.3 2.1 13-1.2z" fill="url(#at)"/></g><g class="dart dart-4"><linearGradient id="au" gradientUnits="userSpaceOnUse" x1="6651.495" y1="-1154.197" x2="6650.927" y2="-1175.423" gradientTransform="rotate(-45.001 6119.542 5772.745)"><stop offset=".035" stop-color="#cc151a"/><stop offset=".232" stop-color="#cf2429"/><stop offset=".614" stop-color="#d84d51"/><stop offset="1" stop-color="#e27c7f"/></linearGradient><path d="m1580.9 498.4-5.2-.7c-2.9-.4-3.1-4.4-.3-5.2l29.4-8-23.9 13.9z" fill="url(#au)"/><radialGradient id="av" cx="6643.435" cy="-1169.101" r="12.042" gradientTransform="rotate(-45.001 6119.542 5772.745)" gradientUnits="userSpaceOnUse"><stop offset="0" stop-color="#fff"/><stop offset=".066" stop-color="#d8d8d8"/><stop offset=".162" stop-color="#a6a6a6"/><stop offset=".262" stop-color="#797979"/><stop offset=".366" stop-color="#545454"/><stop offset=".473" stop-color="#353535"/><stop offset=".585" stop-color="#1e1e1e"/><stop offset=".704" stop-color="#0d0d0d"/><stop offset=".835" stop-color="#030303"/><stop offset="1"/></radialGradient><path d="m1581.1 497.9-5.2-.7c-1.8-.2-2.6-2-2.2-3.4-.8 1.5-.1 3.6 2 3.9l5.2.7 23.8-13.9-1.3.3-22.3 13.1z" fill="url(#av)"/><linearGradient id="aw" gradientUnits="userSpaceOnUse" x1="2722.743" y1="1164.593" x2="2719.64" y2="1159.219" gradientTransform="translate(-1098.083 -688.51)"><stop offset=".035" stop-color="#3f3f3f"/><stop offset=".203" stop-color="#4e4e4e"/><stop offset=".526" stop-color="#767676"/><stop offset=".631" stop-color="#858585"/><stop offset=".874" stop-color="#3f3f3f"/></linearGradient><path d="M1668.2 449.5c0 .6-.2 1.1-.6 1.3l-86.9 50.6c-.4.2-.1-.3-.7-.6-1.1-.7-2-2.2-2-3.5 0-.6-.6-.6-.2-.9l87-50.6c.4-.2.9-.2 1.4.2 1.1.6 2 2.2 2 3.5z" fill="url(#aw)"/><linearGradient id="ax" gradientUnits="userSpaceOnUse" x1="6634.308" y1="-1163.422" x2="6640.249" y2="-1168.728" gradientTransform="rotate(-45.001 6119.542 5772.745)"><stop offset=".035" stop-color="#3f3f3f"/><stop offset=".203" stop-color="#4e4e4e"/><stop offset=".526" stop-color="#767676"/><stop offset=".631" stop-color="#858585"/><stop offset=".874" stop-color="#3f3f3f"/></linearGradient><path d="M1581.3 500.1c0 1.3-.9 1.8-2 1.2-1.1-.7-2-2.2-2-3.5s.9-1.8 2-1.2c1.1.6 2 2.2 2 3.5z" fill="url(#ax)"/><linearGradient id="ay" gradientUnits="userSpaceOnUse" x1="6650.239" y1="-1170.953" x2="6646.217" y2="-1177.911" gradientTransform="rotate(-45.001 6119.542 5772.745)"><stop offset=".035" stop-color="#cc151a"/><stop offset=".232" stop-color="#cf2429"/><stop offset=".614" stop-color="#d84d51"/><stop offset="1" stop-color="#e27c7f"/></linearGradient><path d="m1580.1 496.5 24.3-14-18.9-1.6c-7.1-.6-11.5 7.5-7.2 13.2l1.8 2.4z" fill="url(#ay)"/><linearGradient id="az" gradientUnits="userSpaceOnUse" x1="2680.92" y1="1176.865" x2="2734.067" y2="1160.951" gradientTransform="translate(-1098.083 -688.51)"><stop offset=".035" stop-color="#cc151a"/><stop offset=".232" stop-color="#cf2429"/><stop offset=".614" stop-color="#d84d51"/><stop offset="1" stop-color="#e27c7f"/></linearGradient><path d="m1580.4 496.4 24.3-14-19-1.6c-7.1-.6-11.5 7.5-7.2 13.2l1.9 2.4z" fill="url(#az)"/><radialGradient id="aA" cx="6646.59" cy="-1174.055" r="8.686" gradientTransform="rotate(-45.001 6119.542 5772.745)" gradientUnits="userSpaceOnUse"><stop offset="0" stop-color="#fff"/><stop offset=".066" stop-color="#d8d8d8"/><stop offset=".162" stop-color="#a6a6a6"/><stop offset=".262" stop-color="#797979"/><stop offset=".366" stop-color="#545454"/><stop offset=".473" stop-color="#353535"/><stop offset=".585" stop-color="#1e1e1e"/><stop offset=".704" stop-color="#0d0d0d"/><stop offset=".835" stop-color="#030303"/><stop offset="1"/></radialGradient><path d="M1579 494.2c-4.4-5.6.1-13.8 7.2-13.2l18.4 1.5.2-.1-19-1.6c-7.1-.6-11.5 7.5-7.2 13.2l1.8 2.4.2-.1-1.6-2.1z" fill="url(#aA)"/><linearGradient id="aB" gradientUnits="userSpaceOnUse" x1="6646.398" y1="-1151.679" x2="6649.925" y2="-1156.801" gradientTransform="rotate(-45.001 6119.542 5772.745)"><stop offset=".035" stop-color="#cc151a"/><stop offset=".232" stop-color="#cf2429"/><stop offset=".614" stop-color="#d84d51"/><stop offset="1" stop-color="#e27c7f"/></linearGradient><path d="m1581.6 499.4.6 2.1c1.6 5.7 9.2 6.8 12.4 1.8l11.3-17.8-24.3 13.9z" fill="url(#aB)"/><linearGradient id="aC" gradientUnits="userSpaceOnUse" x1="6654.764" y1="-1165.319" x2="6648.852" y2="-1148.73" gradientTransform="rotate(-45.001 6119.542 5772.745)"><stop offset=".035" stop-color="#cc151a"/><stop offset=".232" stop-color="#cf2429"/><stop offset=".614" stop-color="#d84d51"/><stop offset="1" stop-color="#e27c7f"/></linearGradient><path d="m1582 499 .6 2.1c1.6 5.7 9.2 6.8 12.4 1.8l11.3-17.8L1582 499z" fill="url(#aC)"/><radialGradient id="aD" cx="6636.662" cy="-1157.888" r="7.57" gradientTransform="rotate(-45.001 6119.542 5772.745)" gradientUnits="userSpaceOnUse"><stop offset="0" stop-color="#fff"/><stop offset=".066" stop-color="#d8d8d8"/><stop offset=".162" stop-color="#a6a6a6"/><stop offset=".262" stop-color="#797979"/><stop offset=".366" stop-color="#545454"/><stop offset=".473" stop-color="#353535"/><stop offset=".585" stop-color="#1e1e1e"/><stop offset=".704" stop-color="#0d0d0d"/><stop offset=".835" stop-color="#030303"/><stop offset="1"/></radialGradient><path d="M1595.2 502.7c-3.2 5-10.8 3.9-12.4-1.8l-.5-1.9-.3.1.6 2.1c1.6 5.7 9.2 6.8 12.4 1.8l11.3-17.8-11.1 17.5z" fill="url(#aD)"/><radialGradient id="aE" cx="5392.807" cy="-21702.648" r="15.963" gradientTransform="matrix(1.4213 -.839 .0913 .1547 -4039.66 8342.44)" gradientUnits="userSpaceOnUse"><stop offset="0" stop-color="#cd181d"/><stop offset="1" stop-color="#600b0e" stop-opacity="0"/></radialGradient><path d="M1666.4 447.1c.8 1.4-8.7 8.5-21.2 15.9s-23.3 12.3-24.2 10.9c-.8-1.4 8.7-8.5 21.2-15.9 12.6-7.4 23.4-12.3 24.2-10.9z" fill="url(#aE)"/></g></svg>