<svg xmlns="http://www.w3.org/2000/svg" viewBox="0 0 1920 1080" xml:space="preserve" preserveAspectRatio="xMaxYMid slice"><g class="people"><path opacity=".1" d="M1377.7 844.3c61.1 25.5 91.3 5.2 137.2-21.3 45.9-26.5 51.1-52.7 15.8-69.2-66.6-31.2-104.5.3-150.4 26.8-46 26.5-38.6 48.7-2.6 63.7zm258.4 171.2c67 25.5 97.1 6.1 143.1-20.4 45.9-26.5 65.9-49.3 15.8-69.2-49-19.4-97.9 1-143.8 27.5s-51.5 48.2-15.1 62.1z"/><radialGradient id="a" cx="1674.27" cy="369.44" r="44.648" gradientTransform="matrix(1 0 0 -1 0 1077.89)" gradientUnits="userSpaceOnUse"><stop offset=".03" stop-color="#fedfcb"/><stop offset=".778" stop-color="#f9b69e"/><stop offset=".995" stop-color="#f2a78c"/></radialGradient><path d="M1643.4 690.6c-.8 10.2-4.6 19.7-7.3 25.4-3.1 6.4-4.1 13.8-7.6 12.6-3.4-1.2 1-31 1-31l13.9-7z" fill="url(#a)"/><path fill="#4d1129" d="M1801.7 954.1s3.4 12.9.8 18.3c-2.6 5.4-14.5 9.8-24 5.2-9.6-4.6-13.7-14.5-17.3-17-3.6-2.6-24-4.9-39.2-17.8s-13.2-27.1 2.1-27.4c15.2-.3 42.9 6.7 52.7 13.2 9.7 6.4 24.9 25.5 24.9 25.5z"/><linearGradient id="b" gradientUnits="userSpaceOnUse" x1="1758.729" y1="127.869" x2="1758.729" y2="178.63" gradientTransform="matrix(1 0 0 -1 0 1077.89)"><stop offset=".091" stop-color="#4d1c19"/><stop offset=".471" stop-color="#681715"/><stop offset=".894" stop-color="#8a1010"/></linearGradient><path d="M1794.5 968.1c-10.9 2.3-24.8-7.2-31.2-12.7-6.5-5.4-17.8-2.6-32.5-14.2s-19.9-19.6-13.2-23.5c6.7-3.9 31.1-2.8 50.3 7.6 19.1 10.3 31.9 17.7 31.9 17.7s4.6 14.2 2.3 17.3c-2.4 3.1-1.4 6.5-7.6 7.8z" fill="url(#b)"/><linearGradient id="c" gradientUnits="userSpaceOnUse" x1="1731.455" y1="273.967" x2="1807.809" y2="273.967" gradientTransform="matrix(1 0 0 -1 0 1077.89)"><stop offset=".035" stop-color="#bd163e"/><stop offset=".177" stop-color="#ae193d"/><stop offset=".453" stop-color="#85213b"/><stop offset=".83" stop-color="#442f38"/><stop offset="1" stop-color="#253536"/></linearGradient><path d="M1794.6 642.4s8.1 34.9 2.7 79c-5.4 44.2 3.1 132.8 5 164.2s12.8 69.9-3.1 77.8c-9.2 4.6-25.6 1.9-38.3-12.8-12.8-14.7-15.5-29-13.9-31.8 1.5-2.7 3.9-14.7-1.2-40.7-5-25.9-15.1-89.1-14.3-109.6.8-20.5 8.1-117 8.1-117l55-9.1z" fill="url(#c)"/><linearGradient id="d" gradientUnits="userSpaceOnUse" x1="1731.455" y1="804.9" x2="1776.9" y2="804.9"><stop offset=".035" stop-color="#bd163e"/><stop offset=".177" stop-color="#ae193d"/><stop offset=".453" stop-color="#85213b"/><stop offset=".83" stop-color="#442f38"/><stop offset="1" stop-color="#253536"/></linearGradient><path d="M1731.5 768.6c-.8 20.5 9.3 83.7 14.3 109.6 5 25.9 2.7 38 1.2 40.7s1.2 17 13.9 31.8c5 5.8 10.6 9.7 16 12-5.5-10.4-13.7-31.8-13.7-67.4 0-53.4-11.1-121.6-12.6-158.8-.9-21.8 4.2-62.9 4.2-89.4l-15.2 4.5s-7.3 96.5-8.1 117z" fill="url(#d)"/><radialGradient id="e" cx="1204.421" cy="314.433" r="57.465" gradientTransform="scale(1 -1) rotate(-4.439 -8658.837 -5583.102)" gradientUnits="userSpaceOnUse"><stop offset=".03" stop-color="#fedfcb"/><stop offset=".778" stop-color="#f9b69e"/><stop offset=".995" stop-color="#f2a78c"/></radialGradient><path d="M1639.7 414.5s-33.2-3.4-46.4 3c-13.2 6.4-34.7 27.1-34.7 33.8 0 5.9 17.9 13.7 28.7 10.7 10.7-3 12-4.7 20.7-6.5s26.1-7.5 32.4-10.9c6.4-3.3-.7-30.1-.7-30.1z" fill="url(#e)"/><path fill="#4d1129" d="m1449.2 735.4-4.4 25s12.4 7.2 18.1 9 15-1.8 19.6 4.1c4.6 5.9 23.7 21.1 39.5 24.3 17 3.4 28.9-2.1 29.2-7 .3-4.9-4.1-12.9-19.6-23s-28.7-34.6-28.7-34.6l-53.7 2.2z"/><linearGradient id="f" gradientUnits="userSpaceOnUse" x1="1447.674" y1="314.277" x2="1549.277" y2="314.277" gradientTransform="matrix(1 0 0 -1 0 1077.89)"><stop offset=".091" stop-color="#4d1c19"/><stop offset=".471" stop-color="#681715"/><stop offset=".894" stop-color="#8a1010"/></linearGradient><path d="M1447.9 751.4c2.3 2.8 30.8 9.6 35.4 15.5 5.3 6.7 31.9 23.1 45.3 25.5 12.2 2.1 21.6-4 20.4-8.7-1.7-6.7-12.9-12.9-22.7-20.4-9.8-7.5-20.4-24.8-20.4-24.8l-58.4-4.1.4 17z" fill="url(#f)"/><path fill="#4d1129" d="m1365.6 781.1-.5 23.2 10.6 10.6 3.4-1.3s6.9 17 27.2 30.2c17.5 11.3 38.6 8.6 43.8 4.4 5.2-4.1 5.2-8-7.7-25.3s-31.5-42.3-31.5-42.3l-45.3.5z"/><linearGradient id="g" gradientUnits="userSpaceOnUse" x1="1366.2" y1="262.76" x2="1451.091" y2="262.76" gradientTransform="matrix(1 0 0 -1 0 1077.89)"><stop offset=".091" stop-color="#4d1c19"/><stop offset=".471" stop-color="#681715"/><stop offset=".894" stop-color="#8a1010"/></linearGradient><path d="M1366.9 794.7s18.8 17.4 25.3 27.6c9.8 15.4 35.6 27.2 52.7 21.5 17-5.7-5.9-23.5-10.6-31.2-4.6-7.7-17.8-27.1-17.8-27.1l-50.3-.5.7 9.7z" fill="url(#g)"/><linearGradient id="h" gradientUnits="userSpaceOnUse" x1="1445.675" y1="474.226" x2="1512.3" y2="474.226" gradientTransform="matrix(1 0 0 -1 0 1077.89)"><stop offset=".035" stop-color="#394052"/><stop offset=".46" stop-color="#313543"/><stop offset="1" stop-color="#232229"/></linearGradient><path d="M1507.4 448.8s5.3 111.2 4.5 137.9c-.8 26.7-16.2 96.2-13.5 108.6 2.7 12.4 8.5 23.3 10.1 31 1.5 7.7 3.8 18.4 3.8 18.4s-16.7 15.9-35.6 13.6c-19-2.3-28.8-5.8-30.6-10.5-1.8-4.7 2.7-125.9 2.7-125.9l-2.6-156.9 61.2-16.2z" fill="url(#h)"/><linearGradient id="i" gradientUnits="userSpaceOnUse" x1="1445.675" y1="612.05" x2="1482.278" y2="612.05"><stop offset=".035" stop-color="#394052"/><stop offset=".46" stop-color="#313543"/><stop offset="1" stop-color="#232229"/></linearGradient><path d="M1461.6 724.3c-2.8-30.9 6.2-69.4 15.9-111.2 8.1-35.2 3.8-120.8 2.2-147l-32.8 8.7 1.9 147.2s-4.5 121.2-2.7 125.9c1.7 4.5 10.8 7.8 28.1 10.1-5.6-10.6-11.8-24.2-12.6-33.7z" fill="url(#i)"/><linearGradient id="j" gradientUnits="userSpaceOnUse" x1="1362.1" y1="450.495" x2="1454.9" y2="450.495" gradientTransform="matrix(1 0 0 -1 0 1077.89)"><stop offset=".035" stop-color="#394052"/><stop offset=".46" stop-color="#313543"/><stop offset="1" stop-color="#232229"/></linearGradient><path d="M1454.9 456.1s-7.6 88.4-9.5 127.5-11.6 94.1-16.6 114.7c-5 20.5-10.8 49.6-9.3 63.9 1.5 14.3 8.1 25.6-.4 31.8s-37.2 9.7-44.2 6.2-12.8-2.7-12.8-16.7 1.9-92.6 7.4-123.9c5.4-31.4-3.3-141.2-3.5-155.3-.4-32.9 12.4-51.1 12.4-51.1l76.5 2.9z" fill="url(#j)"/><linearGradient id="k" gradientUnits="userSpaceOnUse" x1="1443.17" y1="784.601" x2="1506.377" y2="831.028" gradientTransform="matrix(1 0 0 -1 0 1077.89)"><stop offset=".035" stop-color="#2f2f36"/><stop offset=".581" stop-color="#d4d1d8"/><stop offset="1" stop-color="#eeebf2"/></linearGradient><path d="M1436.1 183.6c-13.9 3.9-31.4 2.7-16.3 38.7s69.7 158.8 69.7 158.8 18.6-44.5 15.9-83.3c-2.7-38.7-25.9-105-25.9-105l-43.4-9.2z" fill="url(#k)"/><linearGradient id="l" gradientUnits="userSpaceOnUse" x1="1464.01" y1="768.018" x2="1502.045" y2="791.511" gradientTransform="matrix(1 0 0 -1 0 1077.89)"><stop offset=".035" stop-color="#ab2437"/><stop offset=".268" stop-color="#ba2d40"/><stop offset=".718" stop-color="#e34457"/><stop offset="1" stop-color="#ff5467"/></linearGradient><path d="m1463.4 227.8 5.9-2.6 3.9 4.1-1.5 8.5s16.5 32.3 22.7 51.9 7.5 46.2 5.2 58.6-13.7 30.5-13.7 30.5-8.3-59.4-10.8-73.6c-2.6-14.2-10.6-64.8-10.6-64.8l-5.9-3.6 4.8-9z" fill="url(#l)"/><linearGradient id="m" gradientUnits="userSpaceOnUse" x1="1465.024" y1="745.015" x2="1579.69" y2="741.659" gradientTransform="matrix(1 0 0 -1 0 1077.89)"><stop offset=".035" stop-color="#394052"/><stop offset=".46" stop-color="#313543"/><stop offset="1" stop-color="#232229"/></linearGradient><path d="M1465.5 185.2s17.3-2.1 30.5 9.7c9.5 8.5 14.7 19.6 17.6 41.4 2.6 19.3-.8 62-.1 72.8.8 10.8 4.3 79.4 6.2 100.7 1.9 21.3 8.5 45.7-3.5 57.7s-24.8 18.2-27.9 11.2-12.4-69.3-7.4-87.9 19-56.5 18.2-79.4c-.8-22.8-10.8-84-17.4-96-6.5-12-16.2-30.2-16.2-30.2z" fill="url(#m)"/><radialGradient id="n" cx="1486.916" cy="273.858" r="64.758" gradientUnits="userSpaceOnUse"><stop offset="0" stop-color="#fff"/><stop offset="1" stop-opacity="0"/></radialGradient><path d="M1508.1 272.5c-1.6-21.2-2.1-37.7-2.1-37.7l-8.2-4.5 5.5-9.6s-9.9-5.7-13.2-13.2c-2.9-6.5-10.5-14.7-16.4-22.6-4.7-.3-8.2.3-8.2.3s9.7 18.2 16.3 30.2c6.6 12 16.7 73.2 17.4 96 .5 14.1-4.7 34-9.8 51.5 2.5-5.5 7-17.1 7.9-20.3 5.4-17.9 12.4-48.9 10.8-70.1z" fill="url(#n)"/><linearGradient id="o" gradientUnits="userSpaceOnUse" x1="1465.49" y1="804.032" x2="1506.564" y2="804.032" gradientTransform="matrix(1 0 0 -1 0 1077.89)"><stop offset=".035" stop-color="#394052"/><stop offset=".46" stop-color="#313543"/><stop offset="1" stop-color="#232229"/></linearGradient><path d="M1506.3 270.4c-1.6-21.2-2.1-37.7-2.1-37.7l-9.6-2.6 6.8-12.3s-7.6-2.7-10.7-9.9c-2.9-6.6-8.6-17-17.1-23-4.7-.3-8.2.3-8.2.3s9.7 18.2 16.3 30.2c6.6 12 16.7 73.2 17.4 96 .5 14.1-4.7 34-9.8 51.5 2.5-5.5 7-17.1 7.9-20.3 5.5-17.9 10.6-51.1 9.1-72.2z" fill="url(#o)"/><linearGradient id="p" gradientUnits="userSpaceOnUse" x1="1362" y1="492.574" x2="1483.309" y2="492.574"><stop offset=".035" stop-color="#394052"/><stop offset=".46" stop-color="#313543"/><stop offset="1" stop-color="#232229"/></linearGradient><path d="M1378.3 453.2s-12.8 18.2-12.4 51.1c.2 14.1 8.9 123.9 3.5 155.3s-7.4 110-7.4 123.9 5.8 13.2 12.8 16.7c2.7 1.4 8.8 1.6 15.6 1.1-5.5-9.4-11.2-24-12.8-45.4-3.4-44.7 12.9-94.5 10.6-135.4-2-36.1-3.1-117.3 2.9-165.8l-12.8-1.5zm92.4-262.2-34.7-7.4c-10.7 3-23.5 3-21.9 19.3 7.4 12.7 16.7 27.7 22.7 33.6 11.1 10.8 19.1 20.7 19.1 20.7l10-35.7 17.1 23.3s1-20.5-.6-27.2c-.7-3.3-6.3-15.4-11.7-26.6z" opacity=".3" fill="url(#p)"/><linearGradient id="q" gradientUnits="userSpaceOnUse" x1="1402.109" y1="837.875" x2="1468.392" y2="872.904" gradientTransform="matrix(1 0 0 -1 0 1077.89)"><stop offset=".035" stop-color="#2f2f36"/><stop offset=".581" stop-color="#d4d1d8"/><stop offset="1" stop-color="#eeebf2"/></linearGradient><path d="m1470.7 191-34.7-7.4c-10.7 3-23.5 3-21.9 19.3 7.4 12.7 16.7 27.7 22.7 33.6 11.1 10.8 18.6 15.5 18.6 15.5l10.6-30.5 16.5 18.1s1.6-15.2 0-21.9c-.8-3.4-6.4-15.5-11.8-26.7z" fill="url(#q)"/><linearGradient id="r" gradientUnits="userSpaceOnUse" x1="1353.368" y1="718.433" x2="1513.834" y2="747.249" gradientTransform="matrix(1 0 0 -1 0 1077.89)"><stop offset=".035" stop-color="#394052"/><stop offset=".46" stop-color="#313543"/><stop offset="1" stop-color="#232229"/></linearGradient><path d="M1423.9 184.6s-10.8 3.4-4.9 18.8c5.9 15.5 29.4 41.6 44.7 77.2 15.2 35.6 25.6 73.3 24.5 116.4-1 43.1-4.2 81.9-13.9 92.2-11 11.6-44.7 24.5-80.3 18.3-35.6-6.2-46-19.9-42.1-28.4s24.8-97.3 26.3-110.5c1.5-13.2-10.8-48.3-14.7-62.2-3.9-13.9-10.6-42.1-5.7-57.6s13.7-17.3 22.7-26.6c5.9-6 14.8-14.9 25.2-23.9 5.7-4.7 11.2-11.6 18.2-13.7z" fill="url(#r)"/><linearGradient id="s" gradientUnits="userSpaceOnUse" x1="1404.916" y1="277.15" x2="1487.3" y2="277.15"><stop offset=".035" stop-color="#394052"/><stop offset=".46" stop-color="#313543"/><stop offset="1" stop-color="#232229"/></linearGradient><path d="M1463.7 280.7c-15.2-35.6-38.7-61.7-44.7-77.2-5.1-13.2 2.1-17.6 4.3-18.6-6.4 2-12.2 5.7-17.4 10-1.2 10.4-2.1 12.8 2.3 31.3 4.6 19.6 3.5 27.6 3.5 27.6l13.2 2.8v12.9s5.7-4.8 23.1 23.3c17.6 28.3 30.1 42.8 39.3 76.6-2.9-31.9-11.7-60.9-23.6-88.7z" fill="url(#s)"/><linearGradient id="t" gradientUnits="userSpaceOnUse" x1="1386.364" y1="771.755" x2="1457.961" y2="801.96" gradientTransform="matrix(1 0 0 -1 0 1077.89)"><stop offset=".035" stop-color="#394052"/><stop offset=".46" stop-color="#313543"/><stop offset="1" stop-color="#232229"/></linearGradient><path d="M1463.7 280.7c-15.2-35.6-38.7-61.7-44.7-77.2-5.1-13.2 2.1-17.6 4.3-18.6-6.4 2-12.2 5.7-17.4 10-1.2 10.4-2.1 12.8 2.3 31.3 4.6 19.6 5.9 24 5.9 24l13.2 2.8v13s9-1.1 25.1 27.7c15 26.9 25.7 41.9 34.9 75.7-2.9-31.9-11.7-60.9-23.6-88.7z" fill="url(#t)"/><radialGradient id="u" cx="1411.692" cy="783.667" r="58.779" gradientTransform="matrix(1 0 0 -1 0 1077.89)" gradientUnits="userSpaceOnUse"><stop offset="0" stop-color="#fff"/><stop offset="1" stop-opacity="0"/></radialGradient><path d="M1453.6 293c-16.1-28.8-25.2-28.7-25.2-28.7v-12.9l-13.2-2.8s-1.3-4.4-5.9-24c-4.2-17.8-3.2-21.2-2.1-30.7-.4.4-.9.7-1.3 1-1.2 10.4-2.1 12.8 2.3 31.3 4.6 19.6 5.9 24 5.9 24l13.2 2.8v13s9-1.1 25.1 27.7c15 26.9 25.7 41.9 34.9 75.7-.3-3.9-1-6.3-1.5-10.1-8.7-27.4-18.7-42.1-32.2-66.3z" fill="url(#u)"/><linearGradient id="v" gradientUnits="userSpaceOnUse" x1="1522.057" y1="657.24" x2="1544.829" y2="657.24" gradientTransform="matrix(1 0 0 -1 0 1077.89)"><stop offset=".035" stop-color="#394052"/><stop offset=".46" stop-color="#313543"/><stop offset="1" stop-color="#232229"/></linearGradient><path d="M1544.8 398.4s1 12.4-5.2 23.8-17.3 20.7-17.3 20.7-1.8-23.5 4.4-32.3c6.2-8.8 18.1-12.2 18.1-12.2z" fill="url(#v)"/><radialGradient id="w" cx="1595.671" cy="665.123" r="69.383" gradientTransform="matrix(1 0 0 -1 0 1077.89)" gradientUnits="userSpaceOnUse"><stop offset=".03" stop-color="#fedfcb"/><stop offset="1" stop-color="#f9b69e"/></radialGradient><path d="M1537.4 399.5s7.7 6.1 13.6 6.6 25.7-.2 32.2 2c6.2 2.1 25.5 7.9 26 13.1s-6.5 1.8-12.2 1c-5.6-.8-14.9-1.5-14.9-1.5s11.4 11.9 18.5 15.8c7 4 18.4 6 20.3 9.9 1.9 4-.6 7.8-6.3 11.7-8.7 6-15.8 4.1-23.2 4.3-12.9.5-27.8-4.7-33.8-9.7-6-4.9-22.9-18.3-26.6-20.5-3.8-2.2-17.5-7.4-17.5-7.4l23-26 .9.7z" fill="url(#w)"/><radialGradient id="x" cx="1614.269" cy="696.225" r="107.774" gradientTransform="matrix(1 0 0 -1 0 1077.89)" gradientUnits="userSpaceOnUse"><stop offset=".03" stop-color="#fedfcb"/><stop offset=".778" stop-color="#f9b69e"/><stop offset=".995" stop-color="#f2a78c"/></radialGradient><path d="M1614.5 458.2c5.7-4 8.2-7.8 6.3-11.7-.3-.7-.9-1.3-1.7-1.9-4.7 6-20 9.1-29.5 7-10.1-2.2-36.1-19.7-43.7-26.9-3.9-3.7-16.5-8.5-27.9-12.2l-4.7 12.5s13.8 5.2 17.5 7.4c3.8 2.2 20.7 15.6 26.6 20.5 6 4.9 20.9 10.2 33.8 9.7 7.5-.3 14.7 1.6 23.3-4.4z" fill="url(#x)"/><linearGradient id="y" gradientUnits="userSpaceOnUse" x1="1351.228" y1="378.244" x2="1434.513" y2="378.244"><stop offset=".035" stop-color="#394052"/><stop offset=".46" stop-color="#313543"/><stop offset="1" stop-color="#232229"/></linearGradient><path d="M1403.7 462.5c.4-28.5 18.9-64.6 27.7-86 8.8-21.4-2.5-86-15.9-114.1-10.9-22.8-42.6-14.9-58.8-7.8-2.2 16 3.5 39.5 6.9 51.9 3.9 13.9 16.3 49.1 14.7 62.2-1.6 13.2-22.5 102-26.3 110.5-3.9 8.5 6.5 22.2 42.1 28.4 6.1 1.1 12.2 1.5 18.1 1.6-3.8-10.7-8.8-28.6-8.5-46.7z" fill="url(#y)"/><linearGradient id="z" gradientUnits="userSpaceOnUse" x1="1267.294" y1="730.766" x2="1511.609" y2="742.681" gradientTransform="matrix(1 0 0 -1 0 1077.89)"><stop offset=".035" stop-color="#394052"/><stop offset=".46" stop-color="#313543"/><stop offset="1" stop-color="#232229"/></linearGradient><path d="M1366.8 235.6c-15 4.8-15.9 33.8-6.4 55 6.2 13.8 20.7 45.1 25.9 58.6 5.2 13.4 13.4 41.1 27.9 48.8 14.5 7.7 52.4 20.4 67.4 26.9s40.8 18.1 40.8 18.1 4.4-17.8 10.8-28.9c6.5-11.1 11.6-15.5 11.6-15.5s-51.1-24-68.7-33.8-26.6-15.2-30.5-24.3c-3.9-9-16.4-48.1-20.5-57.8-10.4-24.1-22.7-58.5-58.3-47.1z" fill="url(#z)"/><path d="M1382.6 411.6s10.8 4.4 22.2 7.7c11.4 3.4 25 7 25 7s-.1 16.7-6.8 17c-6.7.3-41.1-8.8-43.1-12.9s2.7-18.8 2.7-18.8z" opacity=".1" fill="#d1d3d4"/><linearGradient id="A" gradientUnits="userSpaceOnUse" x1="1365.295" y1="648.456" x2="1435.773" y2="655.168" gradientTransform="matrix(1 0 0 -1 0 1077.89)"><stop offset=".035" stop-color="#394052"/><stop offset=".46" stop-color="#313543"/><stop offset="1" stop-color="#232229"/></linearGradient><path d="M1382.6 411.6s10.8 4.4 22.2 7.7c11.4 3.4 25 7 25 7s-1 13.7-7.7 13.9c-6.7.3-41.1-8.8-43.1-12.9-2.1-4.1 3.6-15.7 3.6-15.7z" fill="url(#A)"/><path fill="#4d1129" d="M1720.7 1000.1s5.7 16.8-1.3 20.4c-7 3.6-17.8 5.7-26.6 1.8s-12.4-7.7-21.7-7.7c-9.3 0-45.4-17.8-52.4-26.6s0-18.8 17.3-17.6c17.3 1.3 42.1 3.4 46.5 4.9 4.3 1.5 38.2 24.8 38.2 24.8z"/><linearGradient id="B" gradientUnits="userSpaceOnUse" x1="1665.341" y1="71.526" x2="1685.475" y2="130.671" gradientTransform="matrix(1 0 0 -1 0 1077.89)"><stop offset=".091" stop-color="#4d1c19"/><stop offset=".471" stop-color="#681715"/><stop offset=".894" stop-color="#8a1010"/></linearGradient><path d="M1712.9 1012.5c-16.2 1.9-21.4-2.6-36.4-5.7s-57.6-20.4-56.8-29.9c.8-9.6 10.6-7.5 18.8-6.7 8.3.8 34.6 2.6 36.7 2.6s44.9 19.4 44.9 19.4 3.1 13.9.3 16c-2.8 1.9-3.1 3.7-7.5 4.3z" fill="url(#B)"/><linearGradient id="C" gradientUnits="userSpaceOnUse" x1="1650.995" y1="250.713" x2="1748.702" y2="250.713" gradientTransform="matrix(1 0 0 -1 0 1077.89)"><stop offset=".035" stop-color="#bd163e"/><stop offset=".177" stop-color="#ae193d"/><stop offset=".453" stop-color="#85213b"/><stop offset=".83" stop-color="#442f38"/><stop offset="1" stop-color="#253536"/></linearGradient><path d="M1744.3 654s9.7 20.9.4 56.9c-9.3 36-20.1 78.6-20.5 124.3s5 163.8-1.9 170.4c-7 6.6-31.5 8.8-41.4 1.5-16.2-11.8-24.8-28.7-23.2-34.5 1.5-5.8 13.9-26.7 9.7-45.3-4.3-18.6-18.6-82.9-15.9-126.6 2.7-43.8 10.1-158 10.1-158l82.7 11.3z" fill="url(#C)"/><radialGradient id="D" cx="1698.172" cy="741.475" r="68.013" gradientTransform="matrix(1 0 0 -1 0 1077.89)" gradientUnits="userSpaceOnUse"><stop offset=".03" stop-color="#fedfcb"/><stop offset="1" stop-color="#f9b69e"/></radialGradient><path d="M1704.6 292.6c-10.3 5-20.7 13.4-21.2 39.2-.5 25.8-.8 38.2 4.4 41.6 5.2 3.4 9 0 10.1 7.2 1 7.2-1 19.1-1 19.1l56.3-12.7s-3.9-9-.3-18.3 19.9-27.4 7.5-54c-12.4-26.5-43.6-28-55.8-22.1z" fill="url(#D)"/><linearGradient id="E" gradientUnits="userSpaceOnUse" x1="1753.956" y1="703.624" x2="1708.089" y2="784.73" gradientTransform="matrix(1 0 0 -1 0 1077.89)"><stop offset=".035" stop-color="#602213"/><stop offset=".571" stop-color="#6d310e"/><stop offset="1" stop-color="#7a4108"/></linearGradient><path d="M1683 314.6c-.2 4.9 2.8 12.9 9.8 13.4s10.3 8.8 8.8 12.7c-1.5 3.9-.5 4.9-.5 4.9s5.2-2.1 7.5 2.1c2.3 4.1-.8 12.9-2.3 16.3s10.1 13.7 19.6 14.5 22.5-.3 26.6-5.2c4.1-4.9 19.4-21.4 13.9-47.8-5.4-26.3-29.7-42.1-52.2-37.7-22.5 4.3-31 19.8-31.2 26.8z" fill="url(#E)"/><linearGradient id="F" gradientUnits="userSpaceOnUse" x1="1629.343" y1="657.25" x2="1810.205" y2="657.25" gradientTransform="matrix(1 0 0 -1 0 1077.89)"><stop offset=".035" stop-color="#bd163e"/><stop offset=".177" stop-color="#ae193d"/><stop offset=".453" stop-color="#85213b"/><stop offset=".83" stop-color="#442f38"/><stop offset="1" stop-color="#253536"/></linearGradient><path d="M1635.4 412.6s-7.2 5.2-5.9 15c1.3 9.8 10.6 24.8 10.6 24.8l97.9-5.4s75.4-3.2 72.1-34c-3.2-29.3-23.3-28-66.9-16.6s-60.7 13.2-74.9 14.5c-14.3 1.3-32.9 1.7-32.9 1.7z" fill="url(#F)"/><linearGradient id="G" gradientUnits="userSpaceOnUse" x1="1731.987" y1="664.25" x2="1717.724" y2="689.561" gradientTransform="matrix(1 0 0 -1 0 1077.89)"><stop offset=".035" stop-color="#2f2f36"/><stop offset=".581" stop-color="#d4d1d8"/><stop offset="1" stop-color="#eeebf2"/></linearGradient><path d="M1687.7 414.3s6.1-21.2 18.8-23.8c12.7-2.6 23.8-1 32.3-4.9s13.1-11.1 13.1-11.1 9.7 2.7 2.5 11.5c-7.2 8.7-66.7 28.3-66.7 28.3z" fill="url(#G)"/><linearGradient id="H" gradientUnits="userSpaceOnUse" x1="1634" y1="708.55" x2="1810.193" y2="708.55"><stop offset=".035" stop-color="#bd163e"/><stop offset=".177" stop-color="#ae193d"/><stop offset=".453" stop-color="#85213b"/><stop offset=".83" stop-color="#442f38"/><stop offset="1" stop-color="#253536"/></linearGradient><path d="M1634 441.2c3.8 7.3 6.1 11.3 6.1 11.3l97.9-5.4s75.2-3.2 72.1-33.8c-18 4.4-63.5 23-105 25.2-37.9 2-61.2 2.5-71.1 2.7zm56.6 205.5-29.2-4s-7.4 114.2-10.1 158 11.6 108.1 15.9 126.6c4.3 18.6-8.1 39.5-9.7 45.3-1.4 5.3 5.7 19.7 19.1 31.2-2.2-24.5-.1-49.9 1.4-67.3 1.7-20.1-13.4-93.1-9.2-136.8 3.7-37.8 18.1-129.8 21.8-153z" fill="url(#H)"/><linearGradient id="I" gradientUnits="userSpaceOnUse" x1="1648.124" y1="534.683" x2="1819.36" y2="534.683" gradientTransform="matrix(1 0 0 -1 0 1077.89)"><stop offset=".035" stop-color="#bd163e"/><stop offset=".177" stop-color="#ae193d"/><stop offset=".453" stop-color="#85213b"/><stop offset=".83" stop-color="#442f38"/><stop offset="1" stop-color="#253536"/></linearGradient><path d="M1734.6 394.4c11.6-3.9 23.8-11.1 23.8-11.1s17.9-.3 28.2 1.3c10.3 1.5 26.1 11.1 25 30.5-1 19.4-5.2 44.2-11.7 71.3s-6.2 46.7-1.3 73.8c4.9 27.1 21.9 86.5 20.7 92.9-1.3 6.5-16 29.4-49.8 41.3-33.8 11.9-90.1 14.7-112.8-11.4-22.7-26.1 6.7-115.9 8-159.8s-14.7-62.3 3.9-85 39.5-36.4 51.4-39.5c11.8-3.1 14.6-4.3 14.6-4.3z" fill="url(#I)"/><linearGradient id="J" gradientUnits="userSpaceOnUse" x1="1668" y1="408.35" x2="1771.816" y2="408.35"><stop offset=".035" stop-color="#bd163e"/><stop offset=".177" stop-color="#ae193d"/><stop offset=".453" stop-color="#85213b"/><stop offset=".83" stop-color="#442f38"/><stop offset="1" stop-color="#253536"/></linearGradient><path d="M1686.1 415.8c5.4-7.2 16.3-17 26.3-18.3 10.1-1.3 29.5-5.2 36-10 7.4-5.5 8.3-10.1 8.3-10.1l15.1 5.6s1.3 18-19.9 24.5-45 6.2-60.4 15.1c-14.5 8.4-23.5 16.7-23.5 16.7l18.1-23.5z" fill="url(#J)"/><linearGradient id="K" gradientUnits="userSpaceOnUse" x1="1692.82" y1="595.947" x2="1734.771" y2="703.901" gradientTransform="matrix(1 0 0 -1 0 1077.89)"><stop offset=".035" stop-color="#bd163e"/><stop offset=".177" stop-color="#ae193d"/><stop offset=".453" stop-color="#85213b"/><stop offset=".83" stop-color="#442f38"/><stop offset="1" stop-color="#253536"/></linearGradient><path d="M1686.1 415.8c5.4-7.2 16.3-17 26.3-18.3 10.1-1.3 29.5-5.2 36-10 7.4-5.5 8.3-10.1 8.3-10.1l15.1 5.6s-.2 14.7-21.4 21.2-48.8 8.3-62.2 18.3c-13.4 10.1-20.1 16.8-20.1 16.8l18-23.5z" fill="url(#K)"/><linearGradient id="L" gradientUnits="userSpaceOnUse" x1="1668" y1="667.04" x2="1771.7" y2="667.04" gradientTransform="matrix(1 0 0 -1 0 1077.89)"><stop offset=".035" stop-color="#bd163e"/><stop offset=".177" stop-color="#ae193d"/><stop offset=".453" stop-color="#85213b"/><stop offset=".83" stop-color="#442f38"/><stop offset="1" stop-color="#253536"/></linearGradient><path d="M1770.2 382.4c-.3 3-2.9 14.9-21.3 20.5-21.2 6.5-48.8 8.3-62.2 18.3-5.1 3.8-9.1 7.1-12.3 9.8l-6.4 8.3s6.7-6.7 20.1-16.8c13.4-10.1 41.1-11.9 62.2-18.3 21.2-6.5 21.4-21.2 21.4-21.2l-1.5-.6z" fill="url(#L)"/><radialGradient id="M" cx="1494.079" cy="918.859" r="76.064" gradientTransform="matrix(1 0 0 -1 0 1077.89)" gradientUnits="userSpaceOnUse"><stop offset=".03" stop-color="#fedfcb"/><stop offset="1" stop-color="#f9b69e"/></radialGradient><path d="m1424.4 179.5-4.4 9.6s13.2 21.7 23 27.9 21.4 13.2 24.8 8.3 7-18.3 7-18.3l-50.4-27.5z" fill="url(#M)"/><radialGradient id="N" cx="1480.655" cy="918.229" r="81.135" gradientTransform="matrix(1 0 0 -1 0 1077.89)" gradientUnits="userSpaceOnUse"><stop offset=".03" stop-color="#fedfcb"/><stop offset="1" stop-color="#f9b69e"/></radialGradient><path d="m1423.9 184.6 5.4.3s16.5 19.1 26.6 23.2c10.1 4.1 19.9 4.6 24.3-2.3 4.4-7 10.8-49.6 7.2-66.4-3.6-16.8-27.4-48.5-62-25.6-34.6 23-10.1 63.5-8.8 64.8 1.4 1.4 7.3 6 7.3 6z" fill="url(#N)"/><linearGradient id="O" gradientUnits="userSpaceOnUse" x1="1404.328" y1="936.622" x2="1489.649" y2="936.622" gradientTransform="matrix(1 0 0 -1 0 1077.89)"><stop offset=".035" stop-color="#602213"/><stop offset=".571" stop-color="#6d310e"/><stop offset="1" stop-color="#7a4108"/></linearGradient><path d="M1416.7 179.4s-5-11.5-.5-14.9c.7-.5 1.3-.8 2-1 2.5-.8 5.2.2 7 2.2l4.8 5.2s.8-5.5 3.3-15.6c1.6-6.6 9.8-12.4 26.9-10.8 9.1.8 20.4 5.4 26.6.5s1.3-15.5-1.8-20.7c-3.1-5.2-32.3-35.2-63-13.2-30.9 21.8-13.6 60.2-5.3 68.3z" fill="url(#O)"/><linearGradient id="P" gradientUnits="userSpaceOnUse" x1="1647.924" y1="573.412" x2="1722.3" y2="573.412"><stop offset=".035" stop-color="#bd163e"/><stop offset=".177" stop-color="#ae193d"/><stop offset=".453" stop-color="#85213b"/><stop offset=".83" stop-color="#442f38"/><stop offset="1" stop-color="#253536"/></linearGradient><path d="M1709.9 454.2c-14.5-21.6-35.4-4.3-50.5 10.3.3 14.6 5.9 31.9 5.1 58.7-1.3 43.9-30.7 133.7-8 159.8 11 12.6 29.8 18.4 50.1 19.8-1.8-10-3.3-22.1-3.9-35.5-1.7-37.8 9.6-58.7 14.3-109.5s11.8-75.5-7.1-103.6z" fill="url(#P)"/><linearGradient id="Q" gradientUnits="userSpaceOnUse" x1="1669.692" y1="246.744" x2="1754.199" y2="272.048" gradientTransform="matrix(1 0 0 -1 0 1077.89)"><stop offset=".091" stop-color="#1b1b1f"/><stop offset=".894" stop-color="#242129"/></linearGradient><path d="M1675.7 776.9v108.9l13-7.6V769l-13 7.9z" fill="url(#Q)"/><linearGradient id="R" gradientUnits="userSpaceOnUse" x1="1475.917" y1="254.783" x2="1911.538" y2="352.436" gradientTransform="matrix(1 0 0 -1 0 1077.89)"><stop offset=".091" stop-color="#1b1b1f"/><stop offset=".894" stop-color="#242129"/></linearGradient><path d="M1675.7 776.9v108.9l-132.3-76.1V700.5l132.3 76.4z" fill="url(#R)"/><linearGradient id="S" gradientUnits="userSpaceOnUse" x1="1577.61" y1="255.692" x2="1636.404" y2="268.872" gradientTransform="matrix(1 0 0 -1 0 1077.89)"><stop offset=".035" stop-color="#ff2427"/><stop offset=".141" stop-color="#ff3336"/><stop offset=".345" stop-color="#ff5c5d"/><stop offset=".629" stop-color="#fe9d9d"/><stop offset=".977" stop-color="#fef7f3"/><stop offset="1" stop-color="#fefdf9"/></linearGradient><path d="M1615.6 815.5v7.3c0 2.8-3 4.5-5.4 3.1l-10.1-5.8c-2.1-1.2-3.4-3.5-3.4-5.9v-5.4c0-2.8 3-4.5 5.4-3.1l11.7 6.8c1.2.5 1.8 1.7 1.8 3z" fill="url(#S)"/><linearGradient id="T" gradientUnits="userSpaceOnUse" x1="1583.678" y1="306.215" x2="1671.814" y2="354.779" gradientTransform="matrix(1 0 0 -1 0 1077.89)"><stop offset=".106" stop-color="#242129"/><stop offset=".909" stop-color="#333"/></linearGradient><path d="M1675.7 776.9V810c0 4.2-3.4 7.6-7.6 7.6h-53.8c-5.9 0-11.6-2.7-15.3-7.3l-49.2-61.7c-4.2-5.3-6.5-11.9-6.5-18.7v-29.5l132.4 76.5z" fill="url(#T)"/><linearGradient id="U" gradientUnits="userSpaceOnUse" x1="1634.21" y1="377.747" x2="1613.441" y2="338.167" gradientTransform="matrix(1 0 0 -1 0 1077.89)"><stop offset=".091" stop-color="#1b1b1f"/><stop offset=".894" stop-color="#242129"/></linearGradient><path d="m1543.4 700.5 132.3 76.4 13-7.9-132.5-76.3-12.8 7.8z" fill="url(#U)"/><linearGradient id="V" gradientUnits="userSpaceOnUse" x1="1629.768" y1="330.12" x2="1610.19" y2="366.477" gradientTransform="matrix(1 0 0 -1 0 1077.89)"><stop offset=".091" stop-color="#1b1b1f"/><stop offset=".894" stop-color="#242129"/></linearGradient><path d="m1626 710.5-17.1-9.9c-4.2-2.4-8-2.6-10.7-.9l-4.3 2.1.6 3.2c-.3 1.2-.5 2.5-.5 4v11.1l3.8 2.2 1 5.4 4.4-2.2v-10c0-4.7 3.3-6.6 7.4-4.2l13.5 7.8c4.1 2.4 7.4 8.1 7.4 12.8v10l4.1 2.4.7 5.2 4.4-2.2v-11.1c.2-9.5-6.5-21-14.7-25.7z" fill="url(#V)"/><radialGradient id="W" cx="1636.75" cy="308.79" r="48.415" gradientTransform="matrix(1 0 0 -1 0 1077.89)" gradientUnits="userSpaceOnUse"><stop offset="0" stop-color="#fff"/><stop offset="1"/></radialGradient><path d="m1676 813.7 1.1-36.1 11.6-8.6-13.3 5.9-90.6-50.4 89.3 52.5 1.9 36.7z" fill="url(#W)"/><radialGradient id="X" cx="1008.988" cy="-46.61" r="47.48" gradientTransform="scale(1 -1) rotate(-6.436 -4334.803 -5660.64)" gradientUnits="userSpaceOnUse"><stop offset=".03" stop-color="#fedfcb"/><stop offset="1" stop-color="#f9b69e"/></radialGradient><path d="M1621.9 661.3s-14.5 17.7-21.1 29.8c-3.5 6.5-3.4 7.7-1.8 21 .7 6.2 2 10.8 5.3 11.2 1.5.2.6-3.5.6-3.5s.6 6.2 4.6 7.1c4 1 1.9-3.9 1.9-3.9s1.1 6.6 5.2 7.3 1.8-4.5 1.8-4.5 1.4 6.9 4.6 8.1c3.2 1.1 3.8-.9 3.8-5.7 0-5.6 2.4-10.5 7.4-19.4 5.3-9.4 9.8-13.7 9.2-22.6-.6-8.9 6.8-16.4 6.8-16.4l-28.3-8.5z" fill="url(#X)"/><linearGradient id="Y" gradientUnits="userSpaceOnUse" x1="1612.1" y1="515.722" x2="1717.637" y2="515.722" gradientTransform="matrix(1 0 0 -1 0 1077.89)"><stop offset=".035" stop-color="#bd163e"/><stop offset=".177" stop-color="#ae193d"/><stop offset=".453" stop-color="#85213b"/><stop offset=".83" stop-color="#442f38"/><stop offset="1" stop-color="#253536"/></linearGradient><path d="M1676.4 441.6c18-6.3 35.7 4.9 40.1 23.7 4.4 18.8-4.9 90.4-12.1 110.2-7.2 19.9-52.2 109-52.2 109s-15.7-2.1-25.6-6.5c-9.8-4.4-14.5-13.4-14.5-13.4s31-76.7 36.9-94.5 3.8-63 5.7-83.1c2.4-24.5 4.2-39.3 21.7-45.4z" fill="url(#Y)"/><path opacity=".1" d="M1564.5 426.6c-1.9 2.2-.8 7.3 5.6 7.8 6.4.6 20.4-1 25.7-1 5.3 0 31.2-10.1 31.2-10.1l-62.5 3.3z"/><radialGradient id="Z" cx="1130.006" cy="387.342" r="64.416" gradientTransform="scale(1 -1) rotate(-4.439 -8658.837 -5583.102)" gradientUnits="userSpaceOnUse"><stop offset=".03" stop-color="#fedfcb"/><stop offset="1" stop-color="#f9b69e"/></radialGradient><path d="M1596.1 415c-6.2 3.6-15.8 5.5-20.9 8.1s-9.5 1.1-10.8 3.5c-1.3 2.3-.4 8.6 12.2 5.8s19.8-4.7 27.3-4.4c7.5.3 22.1.1 24.9-4s-2.5-9.6-2.5-9.6l-30.2.6z" fill="url(#Z)"/><radialGradient id="aa" cx="1578.716" cy="632.022" r="31.174" gradientTransform="matrix(1 0 0 -1 0 1077.89)" gradientUnits="userSpaceOnUse"><stop offset=".03" stop-color="#fedfcb"/><stop offset="1" stop-color="#f9b69e"/></radialGradient><path d="M1553.6 451c-1.3-2.4 11.4-1.9 15.2-.5 3.8 1.5 17 6.8 20.2 8.8 2.2 1.4 5.2 3.7-2.9 4.2-15.7.9-27.8-3.8-32.5-12.5z" fill="url(#aa)"/></g><g class="woman"><path opacity=".1" d="M1327.8 999.6c-54.7 25.8-77.7 10.7-112.7-9.5s-49.7-38.7-8.7-58.7c40.1-19.5 77.8-4.6 112.9 15.6 35 20.2 38.3 38.6 8.5 52.6z"/><radialGradient id="ab" cx="1343.885" cy="282.745" r="252.884" gradientTransform="matrix(1 0 0 -1 0 1077.89)" gradientUnits="userSpaceOnUse"><stop offset=".03" stop-color="#fedfcb"/><stop offset="1" stop-color="#f9b69e"/></radialGradient><path d="M1194.1 613.3c.7 13.6-.7 62.3 11.2 93.4 11.9 31-1.5 50.8-4.3 67.6-4.3 26.5-1.9 51.5 2.2 86.6s3.8 51.9-.3 59.4-1.4 18.1 21.2 24.2c22.5 6.1 49 6.4 46.5-14.3-.8-6.8-20.2 8.9-26.7-1.4-6.5-10.2-14-26.6-10.2-63.8s8.2-60 10.2-80.5 6.1-45.7 10.2-73 8.5-108.5 8.5-108.5l-68.5 10.3z" fill="url(#ab)"/><radialGradient id="ac" cx="1360.873" cy="288.395" r="208.205" gradientTransform="matrix(1 0 0 -1 0 1077.89)" gradientUnits="userSpaceOnUse"><stop offset=".03" stop-color="#fedfcb"/><stop offset="1" stop-color="#f9b69e"/></radialGradient><path d="M1218.8 914.8c0-11.2 2.8-39.7 2.8-58.7s13.4-84.5 7.3-97.9c-8.9-19.4 3.4-45.9 3.4-55.9 0-9.2-.6-79.4-.6-94.6l-37.6 5.7c.7 13.6-.7 62.3 11.2 93.4 11.9 31-1.5 50.8-4.3 67.6-4.3 26.5-1.9 51.5 2.2 86.6s3.8 51.9-.3 59.4-1.4 18.1 21.2 24.2c5.6 1.5 11.5 2.7 17.1 3.3l-5.1-2.8c0-.1-17.3-19.1-17.3-30.3z" fill="url(#ac)"/><path fill="#4d091d" d="M1200.7 919.8s-8.3 9.3-7.3 16.9c1 7.6 7 17 7.3 24.1.2 7-.3 12.5 0 12.8s5.1.6 5.1.6l2.1-1.7v-25.6s13.4-1.5 20.6 3.8 27.5 9.3 36.1 5.6 14.7-29.5 13.8-33.5c-.9-3.9-21.7 7-25.1 8.5s-4.6 1.7-4.6 1.7 10.7-3 13.3.9c2.6 3.9.1 12.4-8.4 13.9s-19.1-10.5-28.1-13.7c-8.8-3.2-22.5-8.5-24.8-14.3z"/><linearGradient id="ad" gradientUnits="userSpaceOnUse" x1="1302.9" y1="575.14" x2="1389.6" y2="575.14" gradientTransform="matrix(1 0 0 -1 0 1077.89)"><stop offset=".091" stop-color="#4d1720"/><stop offset=".599" stop-color="#321d21"/><stop offset=".894" stop-color="#212121"/></linearGradient><path d="m1389.6 466-20.8 111.6-65.9-37.6 20.8-112.1 65.9 38.1z" fill="url(#ad)"/><linearGradient id="ae" gradientUnits="userSpaceOnUse" x1="1250.032" y1="552.242" x2="1556.892" y2="621.03" gradientTransform="matrix(1 0 0 -1 0 1077.89)"><stop offset=".035" stop-color="#9d9eb3"/><stop offset=".581" stop-color="#d4d1d8"/><stop offset="1" stop-color="#eeebf2"/></linearGradient><path d="m1385.5 469.5-20.9 111.7-61.7-41.2 20.8-112.1 61.8 41.6z" fill="url(#ae)"/><path d="M1377.9 466.8 1357 578.5l-54.1-38.5 20.8-112.1 54.2 38.9z" fill="#2b2b2b"/><radialGradient id="af" cx="1394.216" cy="321.145" r="230.855" gradientTransform="matrix(1 0 0 -1 0 1077.89)" gradientUnits="userSpaceOnUse"><stop offset=".03" stop-color="#fedfcb"/><stop offset="1" stop-color="#f9b69e"/></radialGradient><path d="M1237.9 659.8c4.8 13.2 11.3 39.2 17.1 57.7 5.8 18.4 12.9 38 9.4 51.3-3.4 13.3-12.2 35.9-12.2 66.3s3.4 94.5-1 104.1-8.5 18.5-6.1 24.3 23.2 10.8 39.9 21.8c17.7 11.7 39.2-12.3 30.7-17.4-8.5-5.1-9.9 1-16.4-3.1s-21.2-16.7-20.5-32.1c.7-15.4 17.7-116 22.5-138.2s7.2-36.5 8.9-62.1 2.7-59.7 0-83.9-86-25.9-72.3 11.3z" fill="url(#af)"/><radialGradient id="ag" cx="1461.524" cy="329.528" r="225.111" gradientTransform="matrix(1 0 0 -1 0 1077.89)" gradientUnits="userSpaceOnUse"><stop offset=".03" stop-color="#fedfcb"/><stop offset="1" stop-color="#f9b69e"/></radialGradient><path d="m1286.8 986.4-16-20.2s3.4-11.2 1.7-17.3c-1.7-6.2-5.6-10.1-5.6-29.1s15.7-103.5 19-116.9-4.5-26.3-3.4-36.9c1.1-10.6 11.7-41.4 9-62.6-1.7-12.8-7.2-46.8-11.3-71.9 2.9.3 5.7.7 8.3 1.3-24.5-5.5-59.9 1.8-50.6 27.1 4.8 13.2 11.3 39.2 17.1 57.7 5.8 18.4 12.9 38 9.4 51.3-3.4 13.3-12.2 35.9-12.2 66.3s3.4 94.5-1 104.1-8.5 18.5-6.1 24.3 23.2 10.8 39.9 21.8c4.9 3.2 10.1 3.7 14.8 2.7-4.2.8-8.6.5-13-1.7z" fill="url(#ag)"/><linearGradient id="ah" gradientUnits="userSpaceOnUse" x1="1185.249" y1="430.235" x2="1386.634" y2="430.235" gradientTransform="matrix(1 0 0 -1 0 1077.89)"><stop offset=".035" stop-color="#ab121e"/><stop offset=".268" stop-color="#ba1d26"/><stop offset=".718" stop-color="#e33b3c"/><stop offset="1" stop-color="#ff504b"/></linearGradient><path d="m1217.3 548.4 87.4 3.6s5.5 62.8 7.5 86.3 2.2 99.1 2.2 99.1-24.7 12.8-45.9 8.7c-21.2-4.1-69.7-15.3-69.7-15.3s-1.7-23.3-3-44.6c-1.3-22.1-5.8-69.5 1.3-90.3s20.2-47.5 20.2-47.5z" fill="url(#ah)"/><linearGradient id="ai" gradientUnits="userSpaceOnUse" x1="1317.4" y1="426.538" x2="1124.424" y2="439.962" gradientTransform="matrix(1 0 0 -1 0 1077.89)"><stop offset=".035" stop-color="#ab121e"/><stop offset=".268" stop-color="#ba1d26"/><stop offset=".718" stop-color="#e33b3c"/><stop offset="1" stop-color="#ff504b"/></linearGradient><path d="m1217.3 548.4 87.4 3.6s5.5 62.8 7.5 86.3 2.2 99.1 2.2 99.1-24.7 12.8-45.9 8.7c-21.2-4.1-69.7-15.3-69.7-15.3s-1.7-23.3-3-44.6c-1.3-22.1-5.8-69.5 1.3-90.3s20.2-47.5 20.2-47.5z" fill="url(#ai)"/><path fill="#4d091d" d="M1247.7 946.1s-9.7 9-7.5 19.2 8 10.9 8 18.3v19.1l4.4 1.7 4.9-1.8v-29.2s11.7 3.2 22.9 11.5c11.1 8.3 25 9.1 33 5s22.9-24.8 19-28.9c-3.9-4.1-32.5 4.3-32.5 4.3s10.8 1.1 12.5 6.6-7.8 12.5-15.2 9.2c-7.4-3.3-15.7-13.6-30.2-19.5-14.7-6-18.4-13.4-19.3-15.5z"/><radialGradient id="aj" cx="1390.347" cy="565.818" r="34.943" gradientTransform="matrix(1 0 0 -1 0 1077.89)" gradientUnits="userSpaceOnUse"><stop offset=".03" stop-color="#fedfcb"/><stop offset="1" stop-color="#f9b69e"/></radialGradient><path d="m1343.8 527.7 18.7-7.9s6.8-10.5 11.7-11.9 7.7-1.9 8-3.4c.5-2.2.8-3.9.8-3.9s6.8-1.1 7.5 5.7-1.8 6.9-1.8 6.9 1.8.4 2.1 2.6-.5 4.1-1.6 5.2l-1.1 1.1s1.1 1.3.3 3.8-3.2 3.9-3.2 3.9.4 4.7-2.2 5.7-4.6 1.4-8.2 2.6c-3.6 1.3-24.2 8.1-24.2 8.1l-6.8-18.5z" fill="url(#aj)"/><radialGradient id="ak" cx="1390.347" cy="566.852" r="35.999" gradientTransform="matrix(1 0 0 -1 0 1077.89)" gradientUnits="userSpaceOnUse"><stop offset=".03" stop-color="#fedfcb"/><stop offset="1" stop-color="#f9b69e"/></radialGradient><path d="M1362.7 521.4s.2-9.9 3-15.1c2.9-5.2 6.3-10.8 7.4-12.7 1.1-2 4-4.6 6.1-2.7 1.4 1.3 1.3 2.2-.5 7.4s0 8.3-2 12.6c-2 4.2-14 10.5-14 10.5z" fill="url(#ak)"/><linearGradient id="al" gradientUnits="userSpaceOnUse" x1="1209.694" y1="406.492" x2="1310.376" y2="432.222" gradientTransform="matrix(1 0 0 -1 0 1077.89)"><stop offset=".035" stop-color="#ab121e"/><stop offset=".268" stop-color="#ba1d26"/><stop offset=".718" stop-color="#e33b3c"/><stop offset="1" stop-color="#ff504b"/></linearGradient><path d="M1312.3 638.3c-1.9-21.4-6.5-75.1-7.4-84.8l-18.4 3.3s-1.7 67.7-2.2 98.4c-.4 24.2 2.6 71.7 3.9 90.8 14.4-2.4 26.3-8.6 26.3-8.6s-.2-75.5-2.2-99.1z" fill="url(#al)"/><linearGradient id="am" gradientUnits="userSpaceOnUse" x1="1191.485" y1="590.015" x2="1350.899" y2="672.239" gradientTransform="matrix(1 0 0 -1 0 1077.89)"><stop offset=".035" stop-color="#ab121e"/><stop offset=".268" stop-color="#ba1d26"/><stop offset=".718" stop-color="#e33b3c"/><stop offset="1" stop-color="#ff504b"/></linearGradient><path d="M1201.3 402.3c-6.8 15.2-17 68.1-12.8 83.8 2.7 10.2 27 69.9 27 69.9l20.1-28.3-34.3-125.4z" fill="url(#am)"/><linearGradient id="an" gradientUnits="userSpaceOnUse" x1="1187.517" y1="479.15" x2="1235.6" y2="479.15"><stop offset=".035" stop-color="#ab121e"/><stop offset=".268" stop-color="#ba1d26"/><stop offset=".718" stop-color="#e33b3c"/><stop offset="1" stop-color="#ff504b"/></linearGradient><path d="M1201.3 402.3c-6.8 15.2-17 68.1-12.8 83.8 2.7 10.2 27 69.9 27 69.9l20.1-28.3-34.3-125.4z" fill="url(#an)"/><linearGradient id="ao" gradientUnits="userSpaceOnUse" x1="1172.441" y1="553.486" x2="1387.231" y2="555.164" gradientTransform="matrix(1 0 0 -1 0 1077.89)"><stop offset=".035" stop-color="#ab121e"/><stop offset=".268" stop-color="#ba1d26"/><stop offset=".718" stop-color="#e33b3c"/><stop offset="1" stop-color="#ff504b"/></linearGradient><path d="M1272 416.9c8.9 7.5 37.2 28.7 42.3 44.4 5.1 15.7.4 23.1-2.4 35.1-3.1 13.3-8.5 22.2-6.1 47.4s8.1 94.3 9.1 102.5-7.8 11.5-16 12.8c-8.2 1.4-52.9 3.1-77.8-6.5s-30.9-13.3-30.9-19.1.5-32.8 12.3-57.3c12.1-24.8 16.5-48.8 15.5-62.1s-22.5-69.6-21.5-90.8c1-21.2 10.2-39.9 25.2-35.1 15.2 4.8 50.3 28.7 50.3 28.7z" fill="url(#ao)"/><linearGradient id="ap" gradientUnits="userSpaceOnUse" x1="1190.3" y1="523.824" x2="1287.6" y2="523.824"><stop offset=".035" stop-color="#ab121e"/><stop offset=".268" stop-color="#ba1d26"/><stop offset=".718" stop-color="#e33b3c"/><stop offset="1" stop-color="#ff504b"/></linearGradient><path d="M1262.3 659.8c4.6-4 21-19.8 22-42.9 1.1-26.8-3.9-52-10.1-52.9-6.2-.8-11.2-11.2-11.2-19 0-36.4-10.9-100.7-2-109.9 4.1-4.2 14.6-6.3 25.5-6.2-6-5.1-11.4-9.4-14.5-12 0 0-35.1-23.9-50.2-28.7-15-4.8-24.2 14-25.2 35.1-1 21.2 20.5 77.4 21.5 90.8 1 13.3-3.5 37.3-15.5 62.1-11.9 24.5-12.3 51.5-12.3 57.3s6 9.6 30.9 19.1c19 7.3 49.3 8 66.4 7.4-6.8.3-15.8.3-25.3-.2z" fill="url(#ap)"/><radialGradient id="aq" cx="1247.493" cy="722.516" r="52.685" gradientTransform="matrix(1 0 0 -1 0 1077.89)" gradientUnits="userSpaceOnUse"><stop offset=".03" stop-color="#fedfcb"/><stop offset="1" stop-color="#f9b69e"/></radialGradient><path d="M1239.3 295.4c19.2-4.5 44 4.1 48.8 27.3 4.8 23.2-.2 48.8-3.1 53.2-4.3 6.6-16.7 5.5-20.1 10.9-3.4 5.5-5.8 17.4-3.1 21.5 2.7 4.1 7.2 8.2 7.2 8.2l-31.4-3.8-17.7-11.3s8.2-15 4.4-21.5c-3.8-6.5-24.8-25.7-18.1-54.9 5.4-23.8 27.3-28.2 33.1-29.6z" fill="url(#aq)"/><linearGradient id="ar" gradientUnits="userSpaceOnUse" x1="1221.578" y1="653.88" x2="1250.664" y2="677.652" gradientTransform="matrix(1 0 0 -1 0 1077.89)"><stop offset=".035" stop-color="#9d9eb3"/><stop offset=".581" stop-color="#d4d1d8"/><stop offset="1" stop-color="#eeebf2"/></linearGradient><path d="M1221.5 392.3s5.6 6 17.7 8 18.4.3 22.5 3.2c4.1 2.9 9.9 11.4 9.9 11.4s-7.8-6.1-16.4-6.8c-8.5-.7-24.7-.9-30.4-4.8s-4.6-6.5-4.6-7.5c.1-.9 1.3-3.5 1.3-3.5z" fill="url(#ar)"/><path d="M1223.3 389.5s-10.5 9.3-9.3 17.8c1.3 8.4 9.9 16.4 25.1 15.2 15.2-1.2 23.8-2.9 31.2.3 6.8 3 19.8 9.4 19.8 9.4s-13.4-21.8-24.9-23.7c-11.4-1.9-26.2-.5-33-3.9s-11-4.5-11.9-8.8c-.8-4.1 3-6.3 3-6.3z" opacity=".2" fill="#d1d3d4"/><linearGradient id="as" gradientUnits="userSpaceOnUse" x1="1214.78" y1="667.04" x2="1290.1" y2="667.04" gradientTransform="matrix(1 0 0 -1 0 1077.89)"><stop offset=".035" stop-color="#ab121e"/><stop offset=".268" stop-color="#ba1d26"/><stop offset=".718" stop-color="#e33b3c"/><stop offset="1" stop-color="#ff504b"/></linearGradient><path d="M1223.3 389.5s-9.7 5.4-8.4 13.9c1.3 8.4 9.9 16.4 25.1 15.2 15.2-1.2 24.4-1.5 31.7 1.7 6.8 3 18.4 11.9 18.4 11.9s-13.4-21.8-24.9-23.7c-11.4-1.9-26.2-.5-33-3.9s-11-4.5-11.9-8.8c-.8-4.1 3-6.3 3-6.3z" fill="url(#as)"/><radialGradient id="at" cx="1240.677" cy="648.167" r="29.76" gradientTransform="matrix(1 0 0 -1 0 1077.89)" gradientUnits="userSpaceOnUse"><stop offset="0" stop-color="#fff"/><stop offset="1" stop-color="#9c9c9c" stop-opacity="0"/></radialGradient><path d="M1272.8 418.6c-7.3-3.2-16.5-2.9-31.7-1.7s-23.8-6.8-25.1-15.2c-.4-2.7.3-5 1.4-7-1.7 2.3-3 5.2-2.5 8.7 1.3 8.4 9.9 16.4 25.1 15.2 15.2-1.2 24.4-1.5 31.7 1.7 6.8 3 18.4 11.9 18.4 11.9s-1.3-2.1-3.4-5c-4-2.8-9.8-6.7-13.9-8.6z" fill="url(#at)"/><linearGradient id="au" gradientUnits="userSpaceOnUse" x1="1232.69" y1="689.684" x2="1253.1" y2="781.303" gradientTransform="matrix(1 0 0 -1 0 1077.89)"><stop offset=".035" stop-color="#600a09"/><stop offset=".367" stop-color="#671909"/><stop offset="1" stop-color="#7a4108"/></linearGradient><path d="M1271.2 327.9s7.5-6.4 16.8-5.1c12.7 1.7 1-24.6-27.3-32.3-21.5-5.8-52.3 2.4-57.4 27.1-7.1 34.2 11.9 48.9 13.7 61.6 1.8 12.5 40.2 10.4 35.4-9.5-2.4-10.1-3.6-19.2 4.4-18.5 8.4.5 8.5-17 14.4-23.3z" fill="url(#au)"/><linearGradient id="av" gradientUnits="userSpaceOnUse" x1="1183.845" y1="534.635" x2="1319.207" y2="588.892" gradientTransform="matrix(1 0 0 -1 0 1077.89)"><stop offset=".035" stop-color="#ab121e"/><stop offset=".268" stop-color="#ba1d26"/><stop offset=".718" stop-color="#e33b3c"/><stop offset="1" stop-color="#ff504b"/></linearGradient><path d="M1251 460.1c-.1 17.7 6.8 74.7 8.2 89.9 1.4 15.2 11.4 27.5 22.2 25.4 10.7-2 47.6-16 57-19.1s25.6-7.2 25.6-7.2 1.4-10.9-1.9-17.2c-3.2-6.3-7.8-11.4-7.8-11.4s-12.2 3.7-25.9 7.3c-12.1 3.2-37.1 8.7-37.1 8.7s0-37 2.9-54.2 7.6-36.9-2.4-46.6c-11.8-11.5-40.6-6.9-40.8 24.4z" fill="url(#av)"/><linearGradient id="aw" gradientUnits="userSpaceOnUse" x1="1250.999" y1="509.567" x2="1364.299" y2="509.567"><stop offset=".035" stop-color="#ab121e"/><stop offset=".268" stop-color="#ba1d26"/><stop offset=".718" stop-color="#e33b3c"/><stop offset="1" stop-color="#ff504b"/></linearGradient><path d="M1341.7 545.7c-9.4 3.1-46.2 17.1-57 19.1-10.7 2-20.8-10.2-22.2-25.4-1.4-15.2-8.3-72.2-8.2-89.9 0-2.2.2-4.2.5-6.1-2.3 4.4-3.8 9.9-3.8 16.8-.1 17.7 6.8 74.7 8.2 89.9 1.4 15.2 11.4 27.5 22.2 25.4 10.7-2 47.6-16 57-19.1s25.6-7.2 25.6-7.2.6-4.7.1-9.8c-5.3 1.3-15.6 4-22.4 6.3z" fill="url(#aw)"/><linearGradient id="ax" gradientUnits="userSpaceOnUse" x1="1201.818" y1="347.896" x2="1269.7" y2="347.896"><stop offset=".035" stop-color="#600a09"/><stop offset=".367" stop-color="#671909"/><stop offset="1" stop-color="#7a4108"/></linearGradient><path d="M1269.4 330c-31.3 0-47.6-5.1-62.9-21.1-1.4 2.6-2.5 5.5-3.1 8.6-7.1 34.2 11.9 48.9 13.7 61.6 1.8 12.5 40.2 10.4 35.4-9.5-2.4-10.1-3.6-19.2 4.4-18.5 7.5.6 8.3-13.6 12.8-21l-.3-.1z" fill="url(#ax)"/><linearGradient id="ay" gradientUnits="userSpaceOnUse" x1="1211.722" y1="694.464" x2="1211.722" y2="759.632" gradientTransform="matrix(1 0 0 -1 0 1077.89)"><stop offset=".035" stop-color="#600a09"/><stop offset=".367" stop-color="#671909"/><stop offset="1" stop-color="#7a4108"/></linearGradient><path d="M1197 328.5c19.5-12 28.6 5.6 34.1 21.4 5.6 15.8 10.2 30-10.3 33.5-28.6 4.9-44.5-42.2-23.8-54.9z" fill="url(#ay)"/><linearGradient id="az" gradientUnits="userSpaceOnUse" x1="1187.639" y1="354.18" x2="1235.917" y2="354.18"><stop offset=".035" stop-color="#600a09"/><stop offset=".367" stop-color="#671909"/><stop offset="1" stop-color="#7a4108"/></linearGradient><path d="M1231.2 349.9c-4.2-11.9-10.4-24.8-21.6-25.3 10.4 9.9 10 23.5-4.9 24.4-7.3.4-12.8-.7-17-2.9-1.1 18 12.8 40.8 33.2 37.3 20.5-3.5 15.8-17.6 10.3-33.5z" fill="url(#az)"/></g></svg>